<?xml version="1.0" standalone="no"?>
 <!DOCTYPE svg PUBLIC "-//W3C//DTD SVG 1.1//EN" 
 "http://www.w3.org/Graphics/SVG/1.1/DTD/svg11.dtd"> 
<svg
  xmlns:svg="http://www.w3.org/2000/svg"
  xmlns="http://www.w3.org/2000/svg"
  xmlns:xlink="http://www.w3.org/1999/xlink"
  version="1.1"
  width="29.700220cm" height="21.000720cm" viewBox="0 0 116930 82680">
<title>SVG Picture created as PNN_PS_01-B_Cu.svg date 2020/12/30 23:45:00 </title>
  <desc>Picture generated by PCBNEW </desc>
<g style="fill:#000000; fill-opacity:1;stroke:#000000; stroke-opacity:1;
stroke-linecap:round; stroke-linejoin:round;"
 transform="translate(0 0) scale(1 1)">
</g>
<g style="fill:#000000; fill-opacity:0.0; 
stroke:#000000; stroke-width:-0.000393701; stroke-opacity:1; 
stroke-linecap:round; stroke-linejoin:round;">
</g>
<g style="fill:#000000; fill-opacity:0.0; 
stroke:#000000; stroke-width:39.3701; stroke-opacity:1; 
stroke-linecap:round; stroke-linejoin:round;">
</g>
<g style="fill:#000000; fill-opacity:0.0; 
stroke:#000000; stroke-width:59.0551; stroke-opacity:1; 
stroke-linecap:round; stroke-linejoin:round;">
<rect x="69685.9" y="65357.2" width="42519.7" height="12598.4" rx="0" />
</g>
<g style="fill:#000000; fill-opacity:0.0; 
stroke:#000000; stroke-width:39.3701; stroke-opacity:1; 
stroke-linecap:round; stroke-linejoin:round;">
</g>
<g style="fill:#000000; fill-opacity:0.0; 
stroke:#000000; stroke-width:59.0551; stroke-opacity:1; 
stroke-linecap:round; stroke-linejoin:round;">
<rect x="3937.01" y="3937.01" width="109056" height="74806" rx="0" />
</g>
<g style="fill:#000000; fill-opacity:0.0; 
stroke:#000000; stroke-width:39.3701; stroke-opacity:1; 
stroke-linecap:round; stroke-linejoin:round;">
</g>
<g style="fill:#000000; fill-opacity:0.0; 
stroke:#000000; stroke-width:59.0551; stroke-opacity:1; 
stroke-linecap:round; stroke-linejoin:round;">
<rect x="4724.41" y="4724.41" width="107481" height="73231.2" rx="0" />
</g>
<g style="fill:#000000; fill-opacity:0.0; 
stroke:#000000; stroke-width:39.3701; stroke-opacity:1; 
stroke-linecap:round; stroke-linejoin:round;">
</g>
<g style="fill:#000000; fill-opacity:0.0; 
stroke:#000000; stroke-width:59.0551; stroke-opacity:1; 
stroke-linecap:round; stroke-linejoin:round;">
<path d="M23622 4724
L23622 3937
" />
</g>
<g style="fill:#000000; fill-opacity:0.0; 
stroke:#000000; stroke-width:39.3701; stroke-opacity:1; 
stroke-linecap:round; stroke-linejoin:round;">
</g>
<g style="fill:#000000; fill-opacity:0.0; 
stroke:#000000; stroke-width:59.0551; stroke-opacity:1; 
stroke-linecap:round; stroke-linejoin:round;">
<path d="M43307 4724
L43307 3937
" />
</g>
<g style="fill:#000000; fill-opacity:0.0; 
stroke:#000000; stroke-width:39.3701; stroke-opacity:1; 
stroke-linecap:round; stroke-linejoin:round;">
</g>
<g style="fill:#000000; fill-opacity:0.0; 
stroke:#000000; stroke-width:59.0551; stroke-opacity:1; 
stroke-linecap:round; stroke-linejoin:round;">
<path d="M62992 4724
L62992 3937
" />
</g>
<g style="fill:#000000; fill-opacity:0.0; 
stroke:#000000; stroke-width:39.3701; stroke-opacity:1; 
stroke-linecap:round; stroke-linejoin:round;">
</g>
<g style="fill:#000000; fill-opacity:0.0; 
stroke:#000000; stroke-width:59.0551; stroke-opacity:1; 
stroke-linecap:round; stroke-linejoin:round;">
<path d="M82677 4724
L82677 3937
" />
</g>
<g style="fill:#000000; fill-opacity:0.0; 
stroke:#000000; stroke-width:39.3701; stroke-opacity:1; 
stroke-linecap:round; stroke-linejoin:round;">
</g>
<g style="fill:#000000; fill-opacity:0.0; 
stroke:#000000; stroke-width:59.0551; stroke-opacity:1; 
stroke-linecap:round; stroke-linejoin:round;">
<path d="M102362 4724
L102362 3937
" />
</g>
<g style="fill:#000000; fill-opacity:0.0; 
stroke:#000000; stroke-width:39.3701; stroke-opacity:1; 
stroke-linecap:round; stroke-linejoin:round;">
</g>
<g style="fill:#000000; fill-opacity:0.0; 
stroke:#000000; stroke-width:59.0551; stroke-opacity:1; 
stroke-linecap:round; stroke-linejoin:round;">
<text x="13779.5" y="4586.61"
textLength="640.982" font-size="682.415" lengthAdjust="spacingAndGlyphs"
text-anchor="start" opacity="0">1</text>
<path d="M14199 4562
L13906 4562
" />
<path d="M14052 4562
L14052 4050
L14004 4123
L13955 4172
L13906 4196
" />
</g>
<g style="fill:#000000; fill-opacity:0.0; 
stroke:#000000; stroke-width:39.3701; stroke-opacity:1; 
stroke-linecap:round; stroke-linejoin:round;">
</g>
<g style="fill:#000000; fill-opacity:0.0; 
stroke:#000000; stroke-width:59.0551; stroke-opacity:1; 
stroke-linecap:round; stroke-linejoin:round;">
<text x="33464.6" y="4586.61"
textLength="546.494" font-size="682.415" lengthAdjust="spacingAndGlyphs"
text-anchor="start" opacity="0">2</text>
<path d="M33591 4099
L33615 4074
L33664 4050
L33786 4050
L33835 4074
L33859 4099
L33884 4147
L33884 4196
L33859 4269
L33567 4562
L33884 4562
" />
</g>
<g style="fill:#000000; fill-opacity:0.0; 
stroke:#000000; stroke-width:39.3701; stroke-opacity:1; 
stroke-linecap:round; stroke-linejoin:round;">
</g>
<g style="fill:#000000; fill-opacity:0.0; 
stroke:#000000; stroke-width:59.0551; stroke-opacity:1; 
stroke-linecap:round; stroke-linejoin:round;">
<text x="53149.6" y="4586.61"
textLength="546.494" font-size="682.415" lengthAdjust="spacingAndGlyphs"
text-anchor="start" opacity="0">3</text>
<path d="M53252 4050
L53569 4050
L53398 4245
L53471 4245
L53520 4269
L53544 4294
L53569 4342
L53569 4464
L53544 4513
L53520 4537
L53471 4562
L53325 4562
L53276 4537
L53252 4513
" />
</g>
<g style="fill:#000000; fill-opacity:0.0; 
stroke:#000000; stroke-width:39.3701; stroke-opacity:1; 
stroke-linecap:round; stroke-linejoin:round;">
</g>
<g style="fill:#000000; fill-opacity:0.0; 
stroke:#000000; stroke-width:59.0551; stroke-opacity:1; 
stroke-linecap:round; stroke-linejoin:round;">
<text x="72834.6" y="4586.61"
textLength="546.494" font-size="682.415" lengthAdjust="spacingAndGlyphs"
text-anchor="start" opacity="0">4</text>
<path d="M73205 4221
L73205 4562
" />
<path d="M73083 4026
L72961 4391
L73278 4391
" />
</g>
<g style="fill:#000000; fill-opacity:0.0; 
stroke:#000000; stroke-width:39.3701; stroke-opacity:1; 
stroke-linecap:round; stroke-linejoin:round;">
</g>
<g style="fill:#000000; fill-opacity:0.0; 
stroke:#000000; stroke-width:59.0551; stroke-opacity:1; 
stroke-linecap:round; stroke-linejoin:round;">
<text x="92519.7" y="4586.61"
textLength="546.494" font-size="682.415" lengthAdjust="spacingAndGlyphs"
text-anchor="start" opacity="0">5</text>
<path d="M92914 4050
L92671 4050
L92646 4294
L92671 4269
L92719 4245
L92841 4245
L92890 4269
L92914 4294
L92939 4342
L92939 4464
L92914 4513
L92890 4537
L92841 4562
L92719 4562
L92671 4537
L92646 4513
" />
</g>
<g style="fill:#000000; fill-opacity:0.0; 
stroke:#000000; stroke-width:39.3701; stroke-opacity:1; 
stroke-linecap:round; stroke-linejoin:round;">
</g>
<g style="fill:#000000; fill-opacity:0.0; 
stroke:#000000; stroke-width:59.0551; stroke-opacity:1; 
stroke-linecap:round; stroke-linejoin:round;">
<text x="112205" y="4586.61"
textLength="546.494" font-size="682.415" lengthAdjust="spacingAndGlyphs"
text-anchor="start" opacity="0">6</text>
<path d="M112575 4050
L112477 4050
L112429 4074
L112404 4099
L112356 4172
L112331 4269
L112331 4464
L112356 4513
L112380 4537
L112429 4562
L112526 4562
L112575 4537
L112599 4513
L112624 4464
L112624 4342
L112599 4294
L112575 4269
L112526 4245
L112429 4245
L112380 4269
L112356 4294
L112331 4342
" />
</g>
<g style="fill:#000000; fill-opacity:0.0; 
stroke:#000000; stroke-width:39.3701; stroke-opacity:1; 
stroke-linecap:round; stroke-linejoin:round;">
</g>
<g style="fill:#000000; fill-opacity:0.0; 
stroke:#000000; stroke-width:59.0551; stroke-opacity:1; 
stroke-linecap:round; stroke-linejoin:round;">
<path d="M23622 77955
L23622 78742
" />
</g>
<g style="fill:#000000; fill-opacity:0.0; 
stroke:#000000; stroke-width:39.3701; stroke-opacity:1; 
stroke-linecap:round; stroke-linejoin:round;">
</g>
<g style="fill:#000000; fill-opacity:0.0; 
stroke:#000000; stroke-width:59.0551; stroke-opacity:1; 
stroke-linecap:round; stroke-linejoin:round;">
<path d="M43307 77955
L43307 78742
" />
</g>
<g style="fill:#000000; fill-opacity:0.0; 
stroke:#000000; stroke-width:39.3701; stroke-opacity:1; 
stroke-linecap:round; stroke-linejoin:round;">
</g>
<g style="fill:#000000; fill-opacity:0.0; 
stroke:#000000; stroke-width:59.0551; stroke-opacity:1; 
stroke-linecap:round; stroke-linejoin:round;">
<path d="M62992 77955
L62992 78742
" />
</g>
<g style="fill:#000000; fill-opacity:0.0; 
stroke:#000000; stroke-width:39.3701; stroke-opacity:1; 
stroke-linecap:round; stroke-linejoin:round;">
</g>
<g style="fill:#000000; fill-opacity:0.0; 
stroke:#000000; stroke-width:59.0551; stroke-opacity:1; 
stroke-linecap:round; stroke-linejoin:round;">
<path d="M82677 77955
L82677 78742
" />
</g>
<g style="fill:#000000; fill-opacity:0.0; 
stroke:#000000; stroke-width:39.3701; stroke-opacity:1; 
stroke-linecap:round; stroke-linejoin:round;">
</g>
<g style="fill:#000000; fill-opacity:0.0; 
stroke:#000000; stroke-width:59.0551; stroke-opacity:1; 
stroke-linecap:round; stroke-linejoin:round;">
<path d="M102362 77955
L102362 78742
" />
</g>
<g style="fill:#000000; fill-opacity:0.0; 
stroke:#000000; stroke-width:39.3701; stroke-opacity:1; 
stroke-linecap:round; stroke-linejoin:round;">
</g>
<g style="fill:#000000; fill-opacity:0.0; 
stroke:#000000; stroke-width:59.0551; stroke-opacity:1; 
stroke-linecap:round; stroke-linejoin:round;">
<text x="13779.5" y="78605.2"
textLength="546.494" font-size="682.415" lengthAdjust="spacingAndGlyphs"
text-anchor="start" opacity="0">1</text>
<path d="M14199 78580
L13906 78580
" />
<path d="M14052 78580
L14052 78069
L14004 78142
L13955 78190
L13906 78215
" />
</g>
<g style="fill:#000000; fill-opacity:0.0; 
stroke:#000000; stroke-width:39.3701; stroke-opacity:1; 
stroke-linecap:round; stroke-linejoin:round;">
</g>
<g style="fill:#000000; fill-opacity:0.0; 
stroke:#000000; stroke-width:59.0551; stroke-opacity:1; 
stroke-linecap:round; stroke-linejoin:round;">
<text x="33464.6" y="78605.2"
textLength="546.494" font-size="682.415" lengthAdjust="spacingAndGlyphs"
text-anchor="start" opacity="0">2</text>
<path d="M33591 78117
L33615 78093
L33664 78069
L33786 78069
L33835 78093
L33859 78117
L33884 78166
L33884 78215
L33859 78288
L33567 78580
L33884 78580
" />
</g>
<g style="fill:#000000; fill-opacity:0.0; 
stroke:#000000; stroke-width:39.3701; stroke-opacity:1; 
stroke-linecap:round; stroke-linejoin:round;">
</g>
<g style="fill:#000000; fill-opacity:0.0; 
stroke:#000000; stroke-width:59.0551; stroke-opacity:1; 
stroke-linecap:round; stroke-linejoin:round;">
<text x="53149.6" y="78605.2"
textLength="546.494" font-size="682.415" lengthAdjust="spacingAndGlyphs"
text-anchor="start" opacity="0">3</text>
<path d="M53252 78069
L53569 78069
L53398 78263
L53471 78263
L53520 78288
L53544 78312
L53569 78361
L53569 78483
L53544 78532
L53520 78556
L53471 78580
L53325 78580
L53276 78556
L53252 78532
" />
</g>
<g style="fill:#000000; fill-opacity:0.0; 
stroke:#000000; stroke-width:39.3701; stroke-opacity:1; 
stroke-linecap:round; stroke-linejoin:round;">
</g>
<g style="fill:#000000; fill-opacity:0.0; 
stroke:#000000; stroke-width:59.0551; stroke-opacity:1; 
stroke-linecap:round; stroke-linejoin:round;">
<text x="72834.6" y="78605.2"
textLength="546.494" font-size="682.415" lengthAdjust="spacingAndGlyphs"
text-anchor="start" opacity="0">4</text>
<path d="M73205 78239
L73205 78580
" />
<path d="M73083 78044
L72961 78410
L73278 78410
" />
</g>
<g style="fill:#000000; fill-opacity:0.0; 
stroke:#000000; stroke-width:39.3701; stroke-opacity:1; 
stroke-linecap:round; stroke-linejoin:round;">
</g>
<g style="fill:#000000; fill-opacity:0.0; 
stroke:#000000; stroke-width:59.0551; stroke-opacity:1; 
stroke-linecap:round; stroke-linejoin:round;">
<text x="92519.7" y="78605.2"
textLength="546.494" font-size="682.415" lengthAdjust="spacingAndGlyphs"
text-anchor="start" opacity="0">5</text>
<path d="M92914 78069
L92671 78069
L92646 78312
L92671 78288
L92719 78263
L92841 78263
L92890 78288
L92914 78312
L92939 78361
L92939 78483
L92914 78532
L92890 78556
L92841 78580
L92719 78580
L92671 78556
L92646 78532
" />
</g>
<g style="fill:#000000; fill-opacity:0.0; 
stroke:#000000; stroke-width:39.3701; stroke-opacity:1; 
stroke-linecap:round; stroke-linejoin:round;">
</g>
<g style="fill:#000000; fill-opacity:0.0; 
stroke:#000000; stroke-width:59.0551; stroke-opacity:1; 
stroke-linecap:round; stroke-linejoin:round;">
<text x="112205" y="78605.2"
textLength="546.494" font-size="682.415" lengthAdjust="spacingAndGlyphs"
text-anchor="start" opacity="0">6</text>
<path d="M112575 78069
L112477 78069
L112429 78093
L112404 78117
L112356 78190
L112331 78288
L112331 78483
L112356 78532
L112380 78556
L112429 78580
L112526 78580
L112575 78556
L112599 78532
L112624 78483
L112624 78361
L112599 78312
L112575 78288
L112526 78263
L112429 78263
L112380 78288
L112356 78312
L112331 78361
" />
</g>
<g style="fill:#000000; fill-opacity:0.0; 
stroke:#000000; stroke-width:39.3701; stroke-opacity:1; 
stroke-linecap:round; stroke-linejoin:round;">
</g>
<g style="fill:#000000; fill-opacity:0.0; 
stroke:#000000; stroke-width:59.0551; stroke-opacity:1; 
stroke-linecap:round; stroke-linejoin:round;">
<path d="M3937 23622
L4724 23622
" />
</g>
<g style="fill:#000000; fill-opacity:0.0; 
stroke:#000000; stroke-width:39.3701; stroke-opacity:1; 
stroke-linecap:round; stroke-linejoin:round;">
</g>
<g style="fill:#000000; fill-opacity:0.0; 
stroke:#000000; stroke-width:59.0551; stroke-opacity:1; 
stroke-linecap:round; stroke-linejoin:round;">
<path d="M3937 43307
L4724 43307
" />
</g>
<g style="fill:#000000; fill-opacity:0.0; 
stroke:#000000; stroke-width:39.3701; stroke-opacity:1; 
stroke-linecap:round; stroke-linejoin:round;">
</g>
<g style="fill:#000000; fill-opacity:0.0; 
stroke:#000000; stroke-width:59.0551; stroke-opacity:1; 
stroke-linecap:round; stroke-linejoin:round;">
<path d="M3937 62992
L4724 62992
" />
</g>
<g style="fill:#000000; fill-opacity:0.0; 
stroke:#000000; stroke-width:39.3701; stroke-opacity:1; 
stroke-linecap:round; stroke-linejoin:round;">
</g>
<g style="fill:#000000; fill-opacity:0.0; 
stroke:#000000; stroke-width:59.0551; stroke-opacity:1; 
stroke-linecap:round; stroke-linejoin:round;">
<text x="4330.71" y="14035.4"
textLength="497.75" font-size="682.415" lengthAdjust="spacingAndGlyphs"
text-anchor="middle" opacity="0">A</text>
<path d="M4208 13864
L4452 13864
" />
<path d="M4160 14011
L4330 13499
L4501 14011
" />
</g>
<g style="fill:#000000; fill-opacity:0.0; 
stroke:#000000; stroke-width:39.3701; stroke-opacity:1; 
stroke-linecap:round; stroke-linejoin:round;">
</g>
<g style="fill:#000000; fill-opacity:0.0; 
stroke:#000000; stroke-width:59.0551; stroke-opacity:1; 
stroke-linecap:round; stroke-linejoin:round;">
<text x="4330.71" y="33720.5"
textLength="570.866" font-size="682.415" lengthAdjust="spacingAndGlyphs"
text-anchor="middle" opacity="0">B</text>
<path d="M4367 33428
L4440 33452
L4464 33476
L4489 33525
L4489 33598
L4464 33647
L4440 33671
L4391 33696
L4196 33696
L4196 33184
L4367 33184
L4416 33208
L4440 33233
L4464 33281
L4464 33330
L4440 33379
L4416 33403
L4367 33428
L4196 33428
" />
</g>
<g style="fill:#000000; fill-opacity:0.0; 
stroke:#000000; stroke-width:39.3701; stroke-opacity:1; 
stroke-linecap:round; stroke-linejoin:round;">
</g>
<g style="fill:#000000; fill-opacity:0.0; 
stroke:#000000; stroke-width:59.0551; stroke-opacity:1; 
stroke-linecap:round; stroke-linejoin:round;">
<text x="4330.71" y="53405.5"
textLength="570.866" font-size="682.415" lengthAdjust="spacingAndGlyphs"
text-anchor="middle" opacity="0">C</text>
<path d="M4489 53332
L4464 53356
L4391 53381
L4342 53381
L4269 53356
L4221 53308
L4196 53259
L4172 53161
L4172 53088
L4196 52991
L4221 52942
L4269 52893
L4342 52869
L4391 52869
L4464 52893
L4489 52918
" />
</g>
<g style="fill:#000000; fill-opacity:0.0; 
stroke:#000000; stroke-width:39.3701; stroke-opacity:1; 
stroke-linecap:round; stroke-linejoin:round;">
</g>
<g style="fill:#000000; fill-opacity:0.0; 
stroke:#000000; stroke-width:59.0551; stroke-opacity:1; 
stroke-linecap:round; stroke-linejoin:round;">
<text x="4330.71" y="73090.6"
textLength="570.866" font-size="682.415" lengthAdjust="spacingAndGlyphs"
text-anchor="middle" opacity="0">D</text>
<path d="M4196 73066
L4196 72554
L4318 72554
L4391 72578
L4440 72627
L4464 72676
L4489 72773
L4489 72846
L4464 72944
L4440 72993
L4391 73041
L4318 73066
L4196 73066
" />
</g>
<g style="fill:#000000; fill-opacity:0.0; 
stroke:#000000; stroke-width:39.3701; stroke-opacity:1; 
stroke-linecap:round; stroke-linejoin:round;">
</g>
<g style="fill:#000000; fill-opacity:0.0; 
stroke:#000000; stroke-width:59.0551; stroke-opacity:1; 
stroke-linecap:round; stroke-linejoin:round;">
<path d="M112992 23622
L112205 23622
" />
</g>
<g style="fill:#000000; fill-opacity:0.0; 
stroke:#000000; stroke-width:39.3701; stroke-opacity:1; 
stroke-linecap:round; stroke-linejoin:round;">
</g>
<g style="fill:#000000; fill-opacity:0.0; 
stroke:#000000; stroke-width:59.0551; stroke-opacity:1; 
stroke-linecap:round; stroke-linejoin:round;">
<path d="M112992 43307
L112205 43307
" />
</g>
<g style="fill:#000000; fill-opacity:0.0; 
stroke:#000000; stroke-width:39.3701; stroke-opacity:1; 
stroke-linecap:round; stroke-linejoin:round;">
</g>
<g style="fill:#000000; fill-opacity:0.0; 
stroke:#000000; stroke-width:59.0551; stroke-opacity:1; 
stroke-linecap:round; stroke-linejoin:round;">
<path d="M112992 62992
L112205 62992
" />
</g>
<g style="fill:#000000; fill-opacity:0.0; 
stroke:#000000; stroke-width:39.3701; stroke-opacity:1; 
stroke-linecap:round; stroke-linejoin:round;">
</g>
<g style="fill:#000000; fill-opacity:0.0; 
stroke:#000000; stroke-width:59.0551; stroke-opacity:1; 
stroke-linecap:round; stroke-linejoin:round;">
<text x="112599" y="14035.4"
textLength="497.75" font-size="682.415" lengthAdjust="spacingAndGlyphs"
text-anchor="middle" opacity="0">A</text>
<path d="M112477 13864
L112721 13864
" />
<path d="M112428 14011
L112599 13499
L112769 14011
" />
</g>
<g style="fill:#000000; fill-opacity:0.0; 
stroke:#000000; stroke-width:39.3701; stroke-opacity:1; 
stroke-linecap:round; stroke-linejoin:round;">
</g>
<g style="fill:#000000; fill-opacity:0.0; 
stroke:#000000; stroke-width:59.0551; stroke-opacity:1; 
stroke-linecap:round; stroke-linejoin:round;">
<text x="112599" y="33720.5"
textLength="570.866" font-size="682.415" lengthAdjust="spacingAndGlyphs"
text-anchor="middle" opacity="0">B</text>
<path d="M112635 33428
L112708 33452
L112733 33476
L112757 33525
L112757 33598
L112733 33647
L112708 33671
L112660 33696
L112465 33696
L112465 33184
L112635 33184
L112684 33208
L112708 33233
L112733 33281
L112733 33330
L112708 33379
L112684 33403
L112635 33428
L112465 33428
" />
</g>
<g style="fill:#000000; fill-opacity:0.0; 
stroke:#000000; stroke-width:39.3701; stroke-opacity:1; 
stroke-linecap:round; stroke-linejoin:round;">
</g>
<g style="fill:#000000; fill-opacity:0.0; 
stroke:#000000; stroke-width:59.0551; stroke-opacity:1; 
stroke-linecap:round; stroke-linejoin:round;">
<text x="112599" y="53405.5"
textLength="570.866" font-size="682.415" lengthAdjust="spacingAndGlyphs"
text-anchor="middle" opacity="0">C</text>
<path d="M112757 53332
L112733 53356
L112660 53381
L112611 53381
L112538 53356
L112489 53308
L112465 53259
L112440 53161
L112440 53088
L112465 52991
L112489 52942
L112538 52893
L112611 52869
L112660 52869
L112733 52893
L112757 52918
" />
</g>
<g style="fill:#000000; fill-opacity:0.0; 
stroke:#000000; stroke-width:39.3701; stroke-opacity:1; 
stroke-linecap:round; stroke-linejoin:round;">
</g>
<g style="fill:#000000; fill-opacity:0.0; 
stroke:#000000; stroke-width:59.0551; stroke-opacity:1; 
stroke-linecap:round; stroke-linejoin:round;">
<text x="112599" y="73090.6"
textLength="570.866" font-size="682.415" lengthAdjust="spacingAndGlyphs"
text-anchor="middle" opacity="0">D</text>
<path d="M112465 73066
L112465 72554
L112587 72554
L112660 72578
L112708 72627
L112733 72676
L112757 72773
L112757 72846
L112733 72944
L112708 72993
L112660 73041
L112587 73066
L112465 73066
" />
</g>
<g style="fill:#000000; fill-opacity:0.0; 
stroke:#000000; stroke-width:39.3701; stroke-opacity:1; 
stroke-linecap:round; stroke-linejoin:round;">
</g>
<g style="fill:#000000; fill-opacity:0.0; 
stroke:#000000; stroke-width:59.0551; stroke-opacity:1; 
stroke-linecap:round; stroke-linejoin:round;">
<text x="78741" y="76321.7"
textLength="2758.72" font-size="787.402" lengthAdjust="spacingAndGlyphs"
text-anchor="start" opacity="0">Date: </text>
<path d="M78911 76293
L78911 75703
L79051 75703
L79136 75731
L79192 75787
L79220 75843
L79248 75956
L79248 76040
L79220 76153
L79192 76209
L79136 76265
L79051 76293
L78911 76293
" />
<path d="M79754 76293
L79754 75984
L79726 75928
L79670 75899
L79557 75899
L79501 75928
" />
<path d="M79754 76265
L79698 76293
L79557 76293
L79501 76265
L79473 76209
L79473 76153
L79501 76096
L79557 76068
L79698 76068
L79754 76040
" />
<path d="M79951 75899
L80176 75899
" />
<path d="M80036 75703
L80036 76209
L80064 76265
L80120 76293
L80176 76293
" />
<path d="M80598 76265
L80542 76293
L80429 76293
L80373 76265
L80345 76209
L80345 75984
L80373 75928
L80429 75899
L80542 75899
L80598 75928
L80626 75984
L80626 76040
L80345 76096
" />
<path d="M80879 76237
L80907 76265
L80879 76293
L80851 76265
L80879 76237
L80879 76293
" />
<path d="M80879 75928
L80907 75956
L80879 75984
L80851 75956
L80879 75928
L80879 75984
" />
</g>
<g style="fill:#000000; fill-opacity:0.0; 
stroke:#000000; stroke-width:39.3701; stroke-opacity:1; 
stroke-linecap:round; stroke-linejoin:round;">
</g>
<g style="fill:#000000; fill-opacity:0.0; 
stroke:#000000; stroke-width:59.0551; stroke-opacity:1; 
stroke-linecap:round; stroke-linejoin:round;">
<path d="M69685 76577
L112205 76577
" />
</g>
<g style="fill:#000000; fill-opacity:0.0; 
stroke:#000000; stroke-width:39.3701; stroke-opacity:1; 
stroke-linecap:round; stroke-linejoin:round;">
</g>
<g style="fill:#000000; fill-opacity:0.0; 
stroke:#000000; stroke-width:59.0551; stroke-opacity:1; 
stroke-linecap:round; stroke-linejoin:round;">
<text x="70079.6" y="77424.1"
textLength="14991.6" font-size="787.402" lengthAdjust="spacingAndGlyphs"
text-anchor="start" opacity="0">KiCad E.D.A.  kicad 5.1.8-5.fc33</text>
<path d="M70249 77395
L70249 76805
" />
<path d="M70587 77395
L70334 77058
" />
<path d="M70587 76805
L70249 77142
" />
<path d="M70840 77395
L70840 77002
" />
<path d="M70840 76805
L70812 76833
L70840 76861
L70868 76833
L70840 76805
L70840 76861
" />
<path d="M71458 77339
L71430 77367
L71346 77395
L71290 77395
L71205 77367
L71149 77311
L71121 77255
L71093 77142
L71093 77058
L71121 76946
L71149 76889
L71205 76833
L71290 76805
L71346 76805
L71430 76833
L71458 76861
" />
<path d="M71965 77395
L71965 77086
L71937 77030
L71880 77002
L71768 77002
L71712 77030
" />
<path d="M71965 77367
L71908 77395
L71768 77395
L71712 77367
L71683 77311
L71683 77255
L71712 77199
L71768 77171
L71908 77171
L71965 77142
" />
<path d="M72499 77395
L72499 76805
" />
<path d="M72499 77367
L72443 77395
L72330 77395
L72274 77367
L72246 77339
L72218 77283
L72218 77114
L72246 77058
L72274 77030
L72330 77002
L72443 77002
L72499 77030
" />
<path d="M73230 77086
L73427 77086
" />
<path d="M73511 77395
L73230 77395
L73230 76805
L73511 76805
" />
<path d="M73764 77339
L73793 77367
L73764 77395
L73736 77367
L73764 77339
L73764 77395
" />
<path d="M74046 77395
L74046 76805
L74186 76805
L74271 76833
L74327 76889
L74355 76946
L74383 77058
L74383 77142
L74355 77255
L74327 77311
L74271 77367
L74186 77395
L74046 77395
" />
<path d="M74636 77339
L74664 77367
L74636 77395
L74608 77367
L74636 77339
L74636 77395
" />
<path d="M74889 77227
L75171 77227
" />
<path d="M74833 77395
L75030 76805
L75227 77395
" />
<path d="M75424 77339
L75452 77367
L75424 77395
L75395 77367
L75424 77339
L75424 77395
" />
<path d="M76605 77395
L76605 76805
" />
<path d="M76661 77171
L76830 77395
" />
<path d="M76830 77002
L76605 77227
" />
<path d="M77083 77395
L77083 77002
" />
<path d="M77083 76805
L77055 76833
L77083 76861
L77111 76833
L77083 76805
L77083 76861
" />
<path d="M77617 77367
L77561 77395
L77448 77395
L77392 77367
L77364 77339
L77336 77283
L77336 77114
L77364 77058
L77392 77030
L77448 77002
L77561 77002
L77617 77030
" />
<path d="M78123 77395
L78123 77086
L78095 77030
L78039 77002
L77926 77002
L77870 77030
" />
<path d="M78123 77367
L78067 77395
L77926 77395
L77870 77367
L77842 77311
L77842 77255
L77870 77199
L77926 77171
L78067 77171
L78123 77142
" />
<path d="M78658 77395
L78658 76805
" />
<path d="M78658 77367
L78601 77395
L78489 77395
L78433 77367
L78404 77339
L78376 77283
L78376 77114
L78404 77058
L78433 77030
L78489 77002
L78601 77002
L78658 77030
" />
<path d="M79670 76805
L79389 76805
L79361 77086
L79389 77058
L79445 77030
L79586 77030
L79642 77058
L79670 77086
L79698 77142
L79698 77283
L79670 77339
L79642 77367
L79586 77395
L79445 77395
L79389 77367
L79361 77339
" />
<path d="M79951 77339
L79979 77367
L79951 77395
L79923 77367
L79951 77339
L79951 77395
" />
<path d="M80542 77395
L80204 77395
" />
<path d="M80373 77395
L80373 76805
L80317 76889
L80260 76946
L80204 76974
" />
<path d="M80795 77339
L80823 77367
L80795 77395
L80767 77367
L80795 77339
L80795 77395
" />
<path d="M81160 77058
L81104 77030
L81076 77002
L81048 76946
L81048 76917
L81076 76861
L81104 76833
L81160 76805
L81273 76805
L81329 76833
L81357 76861
L81385 76917
L81385 76946
L81357 77002
L81329 77030
L81273 77058
L81160 77058
L81104 77086
L81076 77114
L81048 77171
L81048 77283
L81076 77339
L81104 77367
L81160 77395
L81273 77395
L81329 77367
L81357 77339
L81385 77283
L81385 77171
L81357 77114
L81329 77086
L81273 77058
" />
<path d="M81638 77171
L82088 77171
" />
<path d="M82651 76805
L82370 76805
L82341 77086
L82370 77058
L82426 77030
L82566 77030
L82623 77058
L82651 77086
L82679 77142
L82679 77283
L82651 77339
L82623 77367
L82566 77395
L82426 77395
L82370 77367
L82341 77339
" />
<path d="M82932 77339
L82960 77367
L82932 77395
L82904 77367
L82932 77339
L82932 77395
" />
<path d="M83129 77002
L83354 77002
" />
<path d="M83213 77395
L83213 76889
L83241 76833
L83298 76805
L83354 76805
" />
<path d="M83804 77367
L83748 77395
L83635 77395
L83579 77367
L83551 77339
L83523 77283
L83523 77114
L83551 77058
L83579 77030
L83635 77002
L83748 77002
L83804 77030
" />
<path d="M84001 76805
L84366 76805
L84169 77030
L84254 77030
L84310 77058
L84338 77086
L84366 77142
L84366 77283
L84338 77339
L84310 77367
L84254 77395
L84085 77395
L84029 77367
L84001 77339
" />
<path d="M84563 76805
L84929 76805
L84732 77030
L84816 77030
L84872 77058
L84901 77086
L84929 77142
L84929 77283
L84901 77339
L84872 77367
L84816 77395
L84647 77395
L84591 77367
L84563 77339
" />
</g>
<g style="fill:#000000; fill-opacity:0.0; 
stroke:#000000; stroke-width:39.3701; stroke-opacity:1; 
stroke-linecap:round; stroke-linejoin:round;">
</g>
<g style="fill:#000000; fill-opacity:0.0; 
stroke:#000000; stroke-width:59.0551; stroke-opacity:1; 
stroke-linecap:round; stroke-linejoin:round;">
<path d="M69685 75396
L112205 75396
" />
</g>
<g style="fill:#000000; fill-opacity:0.0; 
stroke:#000000; stroke-width:39.3701; stroke-opacity:1; 
stroke-linecap:round; stroke-linejoin:round;">
</g>
<g style="fill:#000000; fill-opacity:0.0; 
stroke:#000000; stroke-width:118.11; stroke-opacity:1; 
stroke-linecap:round; stroke-linejoin:round;">
<text x="103544" y="76321.7"
textLength="2336.9" font-size="787.402" lengthAdjust="spacingAndGlyphs"
text-anchor="start" opacity="0">Rev: </text>
<path d="M104099 76293
L103902 76012
" />
<path d="M103761 76293
L103761 75703
L103986 75703
L104042 75731
L104070 75759
L104099 75815
L104099 75899
L104070 75956
L104042 75984
L103986 76012
L103761 76012
" />
<path d="M104577 76265
L104520 76293
L104408 76293
L104352 76265
L104323 76209
L104323 75984
L104352 75928
L104408 75899
L104520 75899
L104577 75928
L104605 75984
L104605 76040
L104323 76096
" />
<path d="M104802 75899
L104942 76293
L105083 75899
" />
<path d="M105308 76237
L105336 76265
L105308 76293
L105280 76265
L105308 76237
L105308 76293
" />
<path d="M105308 75928
L105336 75956
L105308 75984
L105280 75956
L105308 75928
L105308 75984
" />
</g>
<g style="fill:#000000; fill-opacity:0.0; 
stroke:#000000; stroke-width:39.3701; stroke-opacity:1; 
stroke-linecap:round; stroke-linejoin:round;">
</g>
<g style="fill:#000000; fill-opacity:0.0; 
stroke:#000000; stroke-width:59.0551; stroke-opacity:1; 
stroke-linecap:round; stroke-linejoin:round;">
<text x="70079.6" y="76321.7"
textLength="3781.21" font-size="787.402" lengthAdjust="spacingAndGlyphs"
text-anchor="start" opacity="0">Size: A4</text>
<path d="M70221 76265
L70305 76293
L70446 76293
L70502 76265
L70530 76237
L70559 76181
L70559 76124
L70530 76068
L70502 76040
L70446 76012
L70334 75984
L70277 75956
L70249 75928
L70221 75871
L70221 75815
L70249 75759
L70277 75731
L70334 75703
L70474 75703
L70559 75731
" />
<path d="M70812 76293
L70812 75899
" />
<path d="M70812 75703
L70784 75731
L70812 75759
L70840 75731
L70812 75703
L70812 75759
" />
<path d="M71037 75899
L71346 75899
L71037 76293
L71346 76293
" />
<path d="M71796 76265
L71740 76293
L71627 76293
L71571 76265
L71543 76209
L71543 75984
L71571 75928
L71627 75899
L71740 75899
L71796 75928
L71824 75984
L71824 76040
L71543 76096
" />
<path d="M72077 76237
L72105 76265
L72077 76293
L72049 76265
L72077 76237
L72077 76293
" />
<path d="M72077 75928
L72105 75956
L72077 75984
L72049 75956
L72077 75928
L72077 75984
" />
<path d="M72780 76124
L73061 76124
" />
<path d="M72724 76293
L72921 75703
L73118 76293
" />
<path d="M73568 75899
L73568 76293
" />
<path d="M73427 75674
L73286 76096
L73652 76096
" />
</g>
<g style="fill:#000000; fill-opacity:0.0; 
stroke:#000000; stroke-width:39.3701; stroke-opacity:1; 
stroke-linecap:round; stroke-linejoin:round;">
</g>
<g style="fill:#000000; fill-opacity:0.0; 
stroke:#000000; stroke-width:59.0551; stroke-opacity:1; 
stroke-linecap:round; stroke-linejoin:round;">
<text x="103544" y="77424.1"
textLength="3349.27" font-size="787.402" lengthAdjust="spacingAndGlyphs"
text-anchor="start" opacity="0">Id: 1/1</text>
<path d="M103714 77395
L103714 76805
" />
<path d="M104248 77395
L104248 76805
" />
<path d="M104248 77367
L104192 77395
L104079 77395
L104023 77367
L103995 77339
L103967 77283
L103967 77114
L103995 77058
L104023 77030
L104079 77002
L104192 77002
L104248 77030
" />
<path d="M104529 77339
L104557 77367
L104529 77395
L104501 77367
L104529 77339
L104529 77395
" />
<path d="M104529 77030
L104557 77058
L104529 77086
L104501 77058
L104529 77030
L104529 77086
" />
<path d="M105570 77395
L105232 77395
" />
<path d="M105401 77395
L105401 76805
L105345 76889
L105289 76946
L105232 76974
" />
<path d="M106245 76777
L105739 77536
" />
<path d="M106751 77395
L106413 77395
" />
<path d="M106582 77395
L106582 76805
L106526 76889
L106470 76946
L106413 76974
" />
</g>
<g style="fill:#000000; fill-opacity:0.0; 
stroke:#000000; stroke-width:39.3701; stroke-opacity:1; 
stroke-linecap:round; stroke-linejoin:round;">
</g>
<g style="fill:#000000; fill-opacity:0.0; 
stroke:#000000; stroke-width:59.0551; stroke-opacity:1; 
stroke-linecap:round; stroke-linejoin:round;">
<path d="M69685 73821
L112205 73821
" />
</g>
<g style="fill:#000000; fill-opacity:0.0; 
stroke:#000000; stroke-width:39.3701; stroke-opacity:1; 
stroke-linecap:round; stroke-linejoin:round;">
</g>
<g style="fill:#000000; fill-opacity:0.0; 
stroke:#000000; stroke-width:157.48; stroke-opacity:1; 
stroke-linecap:round; stroke-linejoin:round;">
<text x="70079.6" y="74924.1"
textLength="3701.14" font-size="1049.87" lengthAdjust="spacingAndGlyphs"
text-anchor="start" opacity="0">Title: </text>
<path d="M70360 74099
L70810 74099
" />
<path d="M70486 74886
L70585 74099
" />
<path d="M70974 74886
L71039 74361
" />
<path d="M71072 74099
L71030 74136
L71063 74174
L71105 74136
L71072 74099
L71063 74174
" />
<path d="M71302 74361
L71602 74361
" />
<path d="M71447 74099
L71363 74774
L71391 74849
L71461 74886
L71536 74886
" />
<path d="M71911 74886
L71841 74849
L71813 74774
L71897 74099
" />
<path d="M72516 74849
L72436 74886
L72286 74886
L72216 74849
L72187 74774
L72225 74474
L72272 74399
L72352 74361
L72501 74361
L72572 74399
L72600 74474
L72591 74549
L72206 74624
" />
<path d="M72895 74811
L72928 74849
L72886 74886
L72853 74849
L72895 74811
L72886 74886
" />
<path d="M72947 74399
L72980 74436
L72937 74474
L72905 74436
L72947 74399
L72937 74474
" />
</g>
<g style="fill:#000000; fill-opacity:0.0; 
stroke:#000000; stroke-width:39.3701; stroke-opacity:1; 
stroke-linecap:round; stroke-linejoin:round;">
</g>
<g style="fill:#000000; fill-opacity:0.0; 
stroke:#000000; stroke-width:59.0551; stroke-opacity:1; 
stroke-linecap:round; stroke-linejoin:round;">
<text x="70079.6" y="73408.3"
textLength="12184.5" font-size="787.402" lengthAdjust="spacingAndGlyphs"
text-anchor="start" opacity="0">File: PNN_PS_01.kicad_pcb</text>
<path d="M70446 73070
L70249 73070
" />
<path d="M70249 73380
L70249 72789
L70530 72789
" />
<path d="M70755 73380
L70755 72986
" />
<path d="M70755 72789
L70727 72817
L70755 72845
L70784 72817
L70755 72789
L70755 72845
" />
<path d="M71121 73380
L71065 73352
L71037 73295
L71037 72789
" />
<path d="M71571 73352
L71515 73380
L71402 73380
L71346 73352
L71318 73295
L71318 73070
L71346 73014
L71402 72986
L71515 72986
L71571 73014
L71599 73070
L71599 73127
L71318 73183
" />
<path d="M71852 73323
L71880 73352
L71852 73380
L71824 73352
L71852 73323
L71852 73380
" />
<path d="M71852 73014
L71880 73042
L71852 73070
L71824 73042
L71852 73014
L71852 73070
" />
<path d="M72583 73380
L72583 72789
L72808 72789
L72865 72817
L72893 72845
L72921 72902
L72921 72986
L72893 73042
L72865 73070
L72808 73099
L72583 73099
" />
<path d="M73174 73380
L73174 72789
L73511 73380
L73511 72789
" />
<path d="M73793 73380
L73793 72789
L74130 73380
L74130 72789
" />
<path d="M74271 73436
L74721 73436
" />
<path d="M74861 73380
L74861 72789
L75086 72789
L75142 72817
L75171 72845
L75199 72902
L75199 72986
L75171 73042
L75142 73070
L75086 73099
L74861 73099
" />
<path d="M75424 73352
L75508 73380
L75649 73380
L75705 73352
L75733 73323
L75761 73267
L75761 73211
L75733 73155
L75705 73127
L75649 73099
L75536 73070
L75480 73042
L75452 73014
L75424 72958
L75424 72902
L75452 72845
L75480 72817
L75536 72789
L75677 72789
L75761 72817
" />
<path d="M75874 73436
L76323 73436
" />
<path d="M76577 72789
L76633 72789
L76689 72817
L76717 72845
L76745 72902
L76773 73014
L76773 73155
L76745 73267
L76717 73323
L76689 73352
L76633 73380
L76577 73380
L76520 73352
L76492 73323
L76464 73267
L76436 73155
L76436 73014
L76464 72902
L76492 72845
L76520 72817
L76577 72789
" />
<path d="M77336 73380
L76998 73380
" />
<path d="M77167 73380
L77167 72789
L77111 72874
L77055 72930
L76998 72958
" />
<path d="M77589 73323
L77617 73352
L77589 73380
L77561 73352
L77589 73323
L77589 73380
" />
<path d="M77870 73380
L77870 72789
" />
<path d="M77926 73155
L78095 73380
" />
<path d="M78095 72986
L77870 73211
" />
<path d="M78348 73380
L78348 72986
" />
<path d="M78348 72789
L78320 72817
L78348 72845
L78376 72817
L78348 72789
L78348 72845
" />
<path d="M78883 73352
L78826 73380
L78714 73380
L78658 73352
L78629 73323
L78601 73267
L78601 73099
L78629 73042
L78658 73014
L78714 72986
L78826 72986
L78883 73014
" />
<path d="M79389 73380
L79389 73070
L79361 73014
L79304 72986
L79192 72986
L79136 73014
" />
<path d="M79389 73352
L79332 73380
L79192 73380
L79136 73352
L79108 73295
L79108 73239
L79136 73183
L79192 73155
L79332 73155
L79389 73127
" />
<path d="M79923 73380
L79923 72789
" />
<path d="M79923 73352
L79867 73380
L79754 73380
L79698 73352
L79670 73323
L79642 73267
L79642 73099
L79670 73042
L79698 73014
L79754 72986
L79867 72986
L79923 73014
" />
<path d="M80064 73436
L80514 73436
" />
<path d="M80654 72986
L80654 73577
" />
<path d="M80654 73014
L80710 72986
L80823 72986
L80879 73014
L80907 73042
L80935 73099
L80935 73267
L80907 73323
L80879 73352
L80823 73380
L80710 73380
L80654 73352
" />
<path d="M81442 73352
L81385 73380
L81273 73380
L81217 73352
L81188 73323
L81160 73267
L81160 73099
L81188 73042
L81217 73014
L81273 72986
L81385 72986
L81442 73014
" />
<path d="M81695 73380
L81695 72789
" />
<path d="M81695 73014
L81751 72986
L81863 72986
L81920 73014
L81948 73042
L81976 73099
L81976 73267
L81948 73323
L81920 73352
L81863 73380
L81751 73380
L81695 73352
" />
</g>
<g style="fill:#000000; fill-opacity:0.0; 
stroke:#000000; stroke-width:39.3701; stroke-opacity:1; 
stroke-linecap:round; stroke-linejoin:round;">
</g>
<g style="fill:#000000; fill-opacity:0.0; 
stroke:#000000; stroke-width:59.0551; stroke-opacity:1; 
stroke-linecap:round; stroke-linejoin:round;">
<path d="M69685 71459
L112205 71459
" />
</g>
<g style="fill:#000000; fill-opacity:0.0; 
stroke:#000000; stroke-width:39.3701; stroke-opacity:1; 
stroke-linecap:round; stroke-linejoin:round;">
</g>
<g style="fill:#000000; fill-opacity:0.0; 
stroke:#000000; stroke-width:59.0551; stroke-opacity:1; 
stroke-linecap:round; stroke-linejoin:round;">
<text x="70079.6" y="72345.4"
textLength="3236.78" font-size="787.402" lengthAdjust="spacingAndGlyphs"
text-anchor="start" opacity="0">Sheet: </text>
<path d="M70221 72289
L70305 72317
L70446 72317
L70502 72289
L70530 72260
L70559 72204
L70559 72148
L70530 72092
L70502 72064
L70446 72036
L70334 72007
L70277 71979
L70249 71951
L70221 71895
L70221 71839
L70249 71782
L70277 71754
L70334 71726
L70474 71726
L70559 71754
" />
<path d="M70812 72317
L70812 71726
" />
<path d="M71065 72317
L71065 72007
L71037 71951
L70980 71923
L70896 71923
L70840 71951
L70812 71979
" />
<path d="M71571 72289
L71515 72317
L71402 72317
L71346 72289
L71318 72232
L71318 72007
L71346 71951
L71402 71923
L71515 71923
L71571 71951
L71599 72007
L71599 72064
L71318 72120
" />
<path d="M72077 72289
L72021 72317
L71908 72317
L71852 72289
L71824 72232
L71824 72007
L71852 71951
L71908 71923
L72021 71923
L72077 71951
L72105 72007
L72105 72064
L71824 72120
" />
<path d="M72274 71923
L72499 71923
" />
<path d="M72358 71726
L72358 72232
L72386 72289
L72443 72317
L72499 72317
" />
<path d="M72696 72260
L72724 72289
L72696 72317
L72668 72289
L72696 72260
L72696 72317
" />
<path d="M72696 71951
L72724 71979
L72696 72007
L72668 71979
L72696 71951
L72696 72007
" />
</g>
<g style="fill:#000000; fill-opacity:0.0; 
stroke:#000000; stroke-width:39.3701; stroke-opacity:1; 
stroke-linecap:round; stroke-linejoin:round;">
</g>
<g style="fill:#000000; fill-opacity:0.0; 
stroke:#000000; stroke-width:59.0551; stroke-opacity:1; 
stroke-linecap:round; stroke-linejoin:round;">
<path d="M77559 75396
L77559 76577
" />
</g>
<g style="fill:#000000; fill-opacity:0.0; 
stroke:#000000; stroke-width:39.3701; stroke-opacity:1; 
stroke-linecap:round; stroke-linejoin:round;">
</g>
<g style="fill:#000000; fill-opacity:0.0; 
stroke:#000000; stroke-width:59.0551; stroke-opacity:1; 
stroke-linecap:round; stroke-linejoin:round;">
<path d="M102756 75396
L102756 77955
" />
<g >
</g>
<g style="fill:#848400; fill-opacity:0.0; 
stroke:#848400; stroke-width:59.0551; stroke-opacity:1; 
stroke-linecap:round; stroke-linejoin:round;">
</g>
<g style="fill:#848400; fill-opacity:0.0; 
stroke:#848400; stroke-width:0; stroke-opacity:1; 
stroke-linecap:round; stroke-linejoin:round;">
</g>
<g style="fill:#848400; fill-opacity:1.0; 
stroke:#848400; stroke-width:0; stroke-opacity:1; 
stroke-linecap:round; stroke-linejoin:round;">
<path style="fill:#848400; fill-opacity:1.0; 
stroke:#848400; stroke-width:0; stroke-opacity:1; 
stroke-linecap:round; stroke-linejoin:round;fill-rule:evenodd;"
d="M 28854.7,24204.7
29445.3,24204.7
29445.3,24795.3
28854.7,24795.3
Z" /> 
<circle cx="29150" cy="26500" r="295.276" /> 
</g>
<g style="fill:#848400; fill-opacity:1.0; 
stroke:#848400; stroke-width:39.3701; stroke-opacity:1; 
stroke-linecap:round; stroke-linejoin:round;">
</g>
<g style="fill:#848400; fill-opacity:1.0; 
stroke:#848400; stroke-width:0; stroke-opacity:1; 
stroke-linecap:round; stroke-linejoin:round;">
<circle cx="29150" cy="25500" r="295.276" /> 
</g>
<g style="fill:#848400; fill-opacity:1.0; 
stroke:#848400; stroke-width:39.3701; stroke-opacity:1; 
stroke-linecap:round; stroke-linejoin:round;">
</g>
<g >
</g>
<g >
</g>
<g style="fill:#848400; fill-opacity:1.0; 
stroke:#848400; stroke-width:39.3701; stroke-opacity:1; 
stroke-linecap:round; stroke-linejoin:round;">
</g>
<g style="fill:#848400; fill-opacity:1.0; 
stroke:#848400; stroke-width:0; stroke-opacity:1; 
stroke-linecap:round; stroke-linejoin:round;">
<circle cx="26776.4" cy="29158.3" r="393.701" /> 
</g>
<g style="fill:#848400; fill-opacity:1.0; 
stroke:#848400; stroke-width:39.3701; stroke-opacity:1; 
stroke-linecap:round; stroke-linejoin:round;">
</g>
<g style="fill:#848400; fill-opacity:1.0; 
stroke:#848400; stroke-width:0; stroke-opacity:1; 
stroke-linecap:round; stroke-linejoin:round;">
<circle cx="24776.4" cy="29158.3" r="393.701" /> 
</g>
<g style="fill:#848400; fill-opacity:1.0; 
stroke:#848400; stroke-width:39.3701; stroke-opacity:1; 
stroke-linecap:round; stroke-linejoin:round;">
</g>
<g style="fill:#848400; fill-opacity:1.0; 
stroke:#848400; stroke-width:0; stroke-opacity:1; 
stroke-linecap:round; stroke-linejoin:round;">
<path style="fill:#848400; fill-opacity:1.0; 
stroke:#848400; stroke-width:0; stroke-opacity:1; 
stroke-linecap:round; stroke-linejoin:round;fill-rule:evenodd;"
d="M 27014.7,27814.6
27031.4,27817.1
27047.8,27821.2
27063.7,27826.9
27079,27834.1
27093.5,27842.8
27107.1,27852.9
27119.6,27864.2
27131,27876.8
27141.1,27890.3
27149.7,27904.8
27157,27920.1
27162.7,27936
27166.8,27952.4
27169.2,27969.1
27170.1,27986
27170.1,28330.5
27169.2,28347.4
27166.8,28364.1
27162.7,28380.5
27157,28396.4
27149.7,28411.7
27141.1,28426.2
27131,28439.8
27119.6,28452.3
27107.1,28463.7
27093.5,28473.7
27079,28482.4
27063.7,28489.6
27047.8,28495.3
27031.4,28499.4
27014.7,28501.9
26997.8,28502.8
26554.9,28502.8
26538,28501.9
26521.3,28499.4
26504.9,28495.3
26489,28489.6
26473.7,28482.4
26459.2,28473.7
26445.7,28463.7
26433.1,28452.3
26421.8,28439.8
26411.7,28426.2
26403,28411.7
26395.8,28396.4
26390.1,28380.5
26386,28364.1
26383.5,28347.4
26382.7,28330.5
26382.7,27986
26383.5,27969.1
26386,27952.4
26390.1,27936
26395.8,27920.1
26403,27904.8
26411.7,27890.3
26421.8,27876.8
26433.1,27864.2
26445.7,27852.9
26459.2,27842.8
26473.7,27834.1
26489,27826.9
26504.9,27821.2
26521.3,27817.1
26538,27814.6
26554.9,27813.8
26997.8,27813.8
Z" /> 
<path style="fill:#848400; fill-opacity:1.0; 
stroke:#848400; stroke-width:0; stroke-opacity:1; 
stroke-linecap:round; stroke-linejoin:round;fill-rule:evenodd;"
d="M 25014.7,27814.6
25031.4,27817.1
25047.8,27821.2
25063.7,27826.9
25079,27834.1
25093.5,27842.8
25107.1,27852.9
25119.6,27864.2
25131,27876.8
25141.1,27890.3
25149.7,27904.8
25157,27920.1
25162.7,27936
25166.8,27952.4
25169.2,27969.1
25170.1,27986
25170.1,28330.5
25169.2,28347.4
25166.8,28364.1
25162.7,28380.5
25157,28396.4
25149.7,28411.7
25141.1,28426.2
25131,28439.8
25119.6,28452.3
25107.1,28463.7
25093.5,28473.7
25079,28482.4
25063.7,28489.6
25047.8,28495.3
25031.4,28499.4
25014.7,28501.9
24997.8,28502.8
24554.9,28502.8
24538,28501.9
24521.3,28499.4
24504.9,28495.3
24489,28489.6
24473.7,28482.4
24459.2,28473.7
24445.7,28463.7
24433.1,28452.3
24421.8,28439.8
24411.7,28426.2
24403,28411.7
24395.8,28396.4
24390.1,28380.5
24386,28364.1
24383.5,28347.4
24382.7,28330.5
24382.7,27986
24383.5,27969.1
24386,27952.4
24390.1,27936
24395.8,27920.1
24403,27904.8
24411.7,27890.3
24421.8,27876.8
24433.1,27864.2
24445.7,27852.9
24459.2,27842.8
24473.7,27834.1
24489,27826.9
24504.9,27821.2
24521.3,27817.1
24538,27814.6
24554.9,27813.8
24997.8,27813.8
Z" /> 
</g>
<g >
</g>
<g style="fill:#848400; fill-opacity:1.0; 
stroke:#848400; stroke-width:0; stroke-opacity:1; 
stroke-linecap:round; stroke-linejoin:round;">
<circle cx="54300" cy="29941.7" r="393.701" /> 
</g>
<g style="fill:#848400; fill-opacity:1.0; 
stroke:#848400; stroke-width:39.3701; stroke-opacity:1; 
stroke-linecap:round; stroke-linejoin:round;">
</g>
<g style="fill:#848400; fill-opacity:1.0; 
stroke:#848400; stroke-width:0; stroke-opacity:1; 
stroke-linecap:round; stroke-linejoin:round;">
<circle cx="56300" cy="29941.7" r="393.701" /> 
</g>
<g style="fill:#848400; fill-opacity:1.0; 
stroke:#848400; stroke-width:39.3701; stroke-opacity:1; 
stroke-linecap:round; stroke-linejoin:round;">
</g>
<g style="fill:#848400; fill-opacity:1.0; 
stroke:#848400; stroke-width:0; stroke-opacity:1; 
stroke-linecap:round; stroke-linejoin:round;">
<circle cx="54323.6" cy="30941.7" r="393.701" /> 
</g>
<g style="fill:#848400; fill-opacity:1.0; 
stroke:#848400; stroke-width:39.3701; stroke-opacity:1; 
stroke-linecap:round; stroke-linejoin:round;">
</g>
<g style="fill:#848400; fill-opacity:1.0; 
stroke:#848400; stroke-width:0; stroke-opacity:1; 
stroke-linecap:round; stroke-linejoin:round;">
<circle cx="56323.6" cy="30941.7" r="393.701" /> 
</g>
<g style="fill:#848400; fill-opacity:1.0; 
stroke:#848400; stroke-width:39.3701; stroke-opacity:1; 
stroke-linecap:round; stroke-linejoin:round;">
</g>
<g style="fill:#848400; fill-opacity:1.0; 
stroke:#848400; stroke-width:0; stroke-opacity:1; 
stroke-linecap:round; stroke-linejoin:round;">
<path style="fill:#848400; fill-opacity:1.0; 
stroke:#848400; stroke-width:0; stroke-opacity:1; 
stroke-linecap:round; stroke-linejoin:round;fill-rule:evenodd;"
d="M 54562,31598.1
54578.7,31600.6
54595.1,31604.7
54611,31610.4
54626.3,31617.6
54640.8,31626.3
54654.3,31636.3
54666.9,31647.7
54678.2,31660.2
54688.3,31673.8
54697,31688.3
54704.2,31703.6
54709.9,31719.5
54714,31735.9
54716.5,31752.6
54717.3,31769.5
54717.3,32114
54716.5,32130.9
54714,32147.6
54709.9,32164
54704.2,32179.9
54697,32195.2
54688.3,32209.7
54678.2,32223.2
54666.9,32235.8
54654.3,32247.1
54640.8,32257.2
54626.3,32265.9
54611,32273.1
54595.1,32278.8
54578.7,32282.9
54562,32285.4
54545.1,32286.2
54102.2,32286.2
54085.3,32285.4
54068.6,32282.9
54052.2,32278.8
54036.3,32273.1
54021,32265.9
54006.5,32257.2
53992.9,32247.1
53980.4,32235.8
53969,32223.2
53958.9,32209.7
53950.3,32195.2
53943,32179.9
53937.3,32164
53933.2,32147.6
53930.8,32130.9
53929.9,32114
53929.9,31769.5
53930.8,31752.6
53933.2,31735.9
53937.3,31719.5
53943,31703.6
53950.3,31688.3
53958.9,31673.8
53969,31660.2
53980.4,31647.7
53992.9,31636.3
54006.5,31626.3
54021,31617.6
54036.3,31610.4
54052.2,31604.7
54068.6,31600.6
54085.3,31598.1
54102.2,31597.2
54545.1,31597.2
Z" /> 
<path style="fill:#848400; fill-opacity:1.0; 
stroke:#848400; stroke-width:0; stroke-opacity:1; 
stroke-linecap:round; stroke-linejoin:round;fill-rule:evenodd;"
d="M 56562,31598.1
56578.7,31600.6
56595.1,31604.7
56611,31610.4
56626.3,31617.6
56640.8,31626.3
56654.3,31636.3
56666.9,31647.7
56678.2,31660.2
56688.3,31673.8
56697,31688.3
56704.2,31703.6
56709.9,31719.5
56714,31735.9
56716.5,31752.6
56717.3,31769.5
56717.3,32114
56716.5,32130.9
56714,32147.6
56709.9,32164
56704.2,32179.9
56697,32195.2
56688.3,32209.7
56678.2,32223.2
56666.9,32235.8
56654.3,32247.1
56640.8,32257.2
56626.3,32265.9
56611,32273.1
56595.1,32278.8
56578.7,32282.9
56562,32285.4
56545.1,32286.2
56102.2,32286.2
56085.3,32285.4
56068.6,32282.9
56052.2,32278.8
56036.3,32273.1
56021,32265.9
56006.5,32257.2
55992.9,32247.1
55980.4,32235.8
55969,32223.2
55958.9,32209.7
55950.3,32195.2
55943,32179.9
55937.3,32164
55933.2,32147.6
55930.8,32130.9
55929.9,32114
55929.9,31769.5
55930.8,31752.6
55933.2,31735.9
55937.3,31719.5
55943,31703.6
55950.3,31688.3
55958.9,31673.8
55969,31660.2
55980.4,31647.7
55992.9,31636.3
56006.5,31626.3
56021,31617.6
56036.3,31610.4
56052.2,31604.7
56068.6,31600.6
56085.3,31598.1
56102.2,31597.2
56545.1,31597.2
Z" /> 
</g>
<g >
</g>
<g style="fill:#848400; fill-opacity:1.0; 
stroke:#848400; stroke-width:0; stroke-opacity:1; 
stroke-linecap:round; stroke-linejoin:round;">
<circle cx="53100" cy="23100" r="283.465" /> 
</g>
<g style="fill:#848400; fill-opacity:1.0; 
stroke:#848400; stroke-width:39.3701; stroke-opacity:1; 
stroke-linecap:round; stroke-linejoin:round;">
</g>
<g style="fill:#848400; fill-opacity:1.0; 
stroke:#848400; stroke-width:0; stroke-opacity:1; 
stroke-linecap:round; stroke-linejoin:round;">
<circle cx="53100" cy="24100" r="283.465" /> 
</g>
<g style="fill:#848400; fill-opacity:1.0; 
stroke:#848400; stroke-width:39.3701; stroke-opacity:1; 
stroke-linecap:round; stroke-linejoin:round;">
</g>
<g style="fill:#848400; fill-opacity:1.0; 
stroke:#848400; stroke-width:0; stroke-opacity:1; 
stroke-linecap:round; stroke-linejoin:round;">
<circle cx="53100" cy="25100" r="283.465" /> 
</g>
<g style="fill:#848400; fill-opacity:1.0; 
stroke:#848400; stroke-width:39.3701; stroke-opacity:1; 
stroke-linecap:round; stroke-linejoin:round;">
</g>
<g >
</g>
<g >
</g>
<g >
</g>
<g >
</g>
<g >
</g>
<g style="fill:#848400; fill-opacity:1.0; 
stroke:#848400; stroke-width:39.3701; stroke-opacity:1; 
stroke-linecap:round; stroke-linejoin:round;">
</g>
<g style="fill:#848400; fill-opacity:1.0; 
stroke:#848400; stroke-width:0; stroke-opacity:1; 
stroke-linecap:round; stroke-linejoin:round;">
<path style="fill:#848400; fill-opacity:1.0; 
stroke:#848400; stroke-width:0; stroke-opacity:1; 
stroke-linecap:round; stroke-linejoin:round;fill-rule:evenodd;"
d="M 39369.3,28640.3
40156.7,28640.3
40156.7,29427.7
39369.3,29427.7
Z" /> 
<circle cx="39763" cy="31034" r="393.701" /> 
</g>
<g >
</g>
<g style="fill:#848400; fill-opacity:1.0; 
stroke:#848400; stroke-width:0; stroke-opacity:1; 
stroke-linecap:round; stroke-linejoin:round;">
<path style="fill:#848400; fill-opacity:1.0; 
stroke:#848400; stroke-width:0; stroke-opacity:1; 
stroke-linecap:round; stroke-linejoin:round;fill-rule:evenodd;"
d="M 43609.7,31410.7
42822.3,31410.7
42822.3,30623.3
43609.7,30623.3
Z" /> 
<circle cx="43216" cy="29017" r="393.701" /> 
</g>
<g >
</g>
<g >
</g>
<g >
</g>
<g >
</g>
<g >
</g>
<g >
</g>
<g >
</g>
<g style="fill:#848400; fill-opacity:1.0; 
stroke:#848400; stroke-width:0; stroke-opacity:1; 
stroke-linecap:round; stroke-linejoin:round;">
<path style="fill:#848400; fill-opacity:1.0; 
stroke:#848400; stroke-width:0; stroke-opacity:1; 
stroke-linecap:round; stroke-linejoin:round;fill-rule:evenodd;"
d="M 32133.3,28708
32920.7,28708
32920.7,29458
32133.3,29458
Z" /> 
</g>
<g style="fill:#848400; fill-opacity:1.0; 
stroke:#848400; stroke-width:750; stroke-opacity:1; 
stroke-linecap:round; stroke-linejoin:round;">
</g>
<g style="fill:#848400; fill-opacity:0.0; 
stroke:#848400; stroke-width:750; stroke-opacity:1; 
stroke-linecap:round; stroke-linejoin:round;">
<path d="M32545 30083
L32508 30083
" />
<path d="M32545 31083
L32508 31083
" />
</g>
<g >
</g>
<g style="fill:#848400; fill-opacity:0.0; 
stroke:#848400; stroke-width:750; stroke-opacity:1; 
stroke-linecap:round; stroke-linejoin:round;">
<path d="M35885 29112
L35922 29112
" />
<path d="M35885 30112
L35922 30112
" />
</g>
<g style="fill:#848400; fill-opacity:0.0; 
stroke:#848400; stroke-width:0; stroke-opacity:1; 
stroke-linecap:round; stroke-linejoin:round;">
</g>
<g style="fill:#848400; fill-opacity:1.0; 
stroke:#848400; stroke-width:0; stroke-opacity:1; 
stroke-linecap:round; stroke-linejoin:round;">
<path style="fill:#848400; fill-opacity:1.0; 
stroke:#848400; stroke-width:0; stroke-opacity:1; 
stroke-linecap:round; stroke-linejoin:round;fill-rule:evenodd;"
d="M 36297.7,31487
35510.3,31487
35510.3,30737
36297.7,30737
Z" /> 
</g>
<g >
</g>
<g >
</g>
<g >
</g>
<g >
</g>
<g style="fill:#008400; fill-opacity:1.0; 
stroke:#008400; stroke-width:0; stroke-opacity:1; 
stroke-linecap:round; stroke-linejoin:round;">
<path style="fill:#008400; fill-opacity:1.0; 
stroke:#008400; stroke-width:0; stroke-opacity:1; 
stroke-linecap:round; stroke-linejoin:round;fill-rule:evenodd;"
d="M 47016.1,24051
47025.6,24052.5
47035,24054.8
47044.1,24058.1
47052.8,24062.2
47061.1,24067.2
47068.8,24072.9
47076,24079.4
47082.5,24086.6
47088.2,24094.3
47093.2,24102.6
47097.3,24111.3
47100.6,24120.4
47102.9,24129.8
47104.4,24139.3
47104.8,24149
47104.8,24523
47104.4,24532.7
47102.9,24542.2
47100.6,24551.6
47097.3,24560.7
47093.2,24569.4
47088.2,24577.7
47082.5,24585.4
47076,24592.6
47068.8,24599.1
47061.1,24604.8
47052.8,24609.8
47044.1,24613.9
47035,24617.2
47025.6,24619.5
47016.1,24621
47006.4,24621.4
46740.7,24621.4
46731,24621
46721.5,24619.5
46712.1,24617.2
46703,24613.9
46694.3,24609.8
46686,24604.8
46678.2,24599.1
46671.1,24592.6
46664.6,24585.4
46658.8,24577.7
46653.9,24569.4
46649.7,24560.7
46646.5,24551.6
46644.1,24542.2
46642.7,24532.7
46642.2,24523
46642.2,24149
46642.7,24139.3
46644.1,24129.8
46646.5,24120.4
46649.7,24111.3
46653.9,24102.6
46658.8,24094.3
46664.6,24086.6
46671.1,24079.4
46678.2,24072.9
46686,24067.2
46694.3,24062.2
46703,24058.1
46712.1,24054.8
46721.5,24052.5
46731,24051
46740.7,24050.6
47006.4,24050.6
Z" /> 
<path style="fill:#008400; fill-opacity:1.0; 
stroke:#008400; stroke-width:0; stroke-opacity:1; 
stroke-linecap:round; stroke-linejoin:round;fill-rule:evenodd;"
d="M 47833,24051
47842.5,24052.5
47851.9,24054.8
47861,24058.1
47869.7,24062.2
47878,24067.2
47885.8,24072.9
47892.9,24079.4
47899.4,24086.6
47905.2,24094.3
47910.1,24102.6
47914.3,24111.3
47917.5,24120.4
47919.9,24129.8
47921.3,24139.3
47921.8,24149
47921.8,24523
47921.3,24532.7
47919.9,24542.2
47917.5,24551.6
47914.3,24560.7
47910.1,24569.4
47905.2,24577.7
47899.4,24585.4
47892.9,24592.6
47885.8,24599.1
47878,24604.8
47869.7,24609.8
47861,24613.9
47851.9,24617.2
47842.5,24619.5
47833,24621
47823.3,24621.4
47557.6,24621.4
47547.9,24621
47538.4,24619.5
47529,24617.2
47519.9,24613.9
47511.2,24609.8
47502.9,24604.8
47495.2,24599.1
47488,24592.6
47481.5,24585.4
47475.8,24577.7
47470.8,24569.4
47466.7,24560.7
47463.4,24551.6
47461.1,24542.2
47459.6,24532.7
47459.2,24523
47459.2,24149
47459.6,24139.3
47461.1,24129.8
47463.4,24120.4
47466.7,24111.3
47470.8,24102.6
47475.8,24094.3
47481.5,24086.6
47488,24079.4
47495.2,24072.9
47502.9,24067.2
47511.2,24062.2
47519.9,24058.1
47529,24054.8
47538.4,24052.5
47547.9,24051
47557.6,24050.6
47823.3,24050.6
Z" /> 
</g>
<g >
</g>
<g >
</g>
<g >
</g>
<g >
</g>
<g >
</g>
<g >
</g>
<g >
</g>
<g style="fill:#848400; fill-opacity:1.0; 
stroke:#848400; stroke-width:0; stroke-opacity:1; 
stroke-linecap:round; stroke-linejoin:round;">
<circle cx="34250" cy="35050" r="1181.1" /> 
</g>
<g style="fill:#848400; fill-opacity:1.0; 
stroke:#848400; stroke-width:39.3701; stroke-opacity:1; 
stroke-linecap:round; stroke-linejoin:round;">
</g>
<g style="fill:#848400; fill-opacity:1.0; 
stroke:#848400; stroke-width:0; stroke-opacity:1; 
stroke-linecap:round; stroke-linejoin:round;">
<circle cx="34250" cy="25050" r="1181.1" /> 
</g>
<g style="fill:#848400; fill-opacity:1.0; 
stroke:#848400; stroke-width:39.3701; stroke-opacity:1; 
stroke-linecap:round; stroke-linejoin:round;">
</g>
<g >
</g>
<g style="fill:#848400; fill-opacity:1.0; 
stroke:#848400; stroke-width:39.3701; stroke-opacity:1; 
stroke-linecap:round; stroke-linejoin:round;">
</g>
<g style="fill:#848400; fill-opacity:1.0; 
stroke:#848400; stroke-width:0; stroke-opacity:1; 
stroke-linecap:round; stroke-linejoin:round;">
<circle cx="41450" cy="25000" r="1181.1" /> 
</g>
<g style="fill:#848400; fill-opacity:1.0; 
stroke:#848400; stroke-width:39.3701; stroke-opacity:1; 
stroke-linecap:round; stroke-linejoin:round;">
</g>
<g style="fill:#848400; fill-opacity:1.0; 
stroke:#848400; stroke-width:0; stroke-opacity:1; 
stroke-linecap:round; stroke-linejoin:round;">
<circle cx="41450" cy="35000" r="1181.1" /> 
</g>
<g style="fill:#848400; fill-opacity:1.0; 
stroke:#848400; stroke-width:39.3701; stroke-opacity:1; 
stroke-linecap:round; stroke-linejoin:round;">
</g>
<g >
</g>
<g style="fill:#C2C2C2; fill-opacity:1.0; 
stroke:#C2C2C2; stroke-width:39.3701; stroke-opacity:1; 
stroke-linecap:round; stroke-linejoin:round;">
</g>
<g style="fill:#C2C2C2; fill-opacity:1.0; 
stroke:#C2C2C2; stroke-width:0; stroke-opacity:1; 
stroke-linecap:round; stroke-linejoin:round;">
<circle cx="46900" cy="25100" r="100" /> 
</g>
<g style="fill:#C2C2C2; fill-opacity:1.0; 
stroke:#C2C2C2; stroke-width:39.3701; stroke-opacity:1; 
stroke-linecap:round; stroke-linejoin:round;">
</g>
<g style="fill:#C2C2C2; fill-opacity:1.0; 
stroke:#C2C2C2; stroke-width:0; stroke-opacity:1; 
stroke-linecap:round; stroke-linejoin:round;">
<circle cx="45300" cy="24300" r="100" /> 
</g>
<g style="fill:#C2C2C2; fill-opacity:1.0; 
stroke:#C2C2C2; stroke-width:39.3701; stroke-opacity:1; 
stroke-linecap:round; stroke-linejoin:round;">
</g>
<g style="fill:#C2C2C2; fill-opacity:1.0; 
stroke:#C2C2C2; stroke-width:0; stroke-opacity:1; 
stroke-linecap:round; stroke-linejoin:round;">
<circle cx="51600" cy="21900" r="100" /> 
</g>
<g style="fill:#C2C2C2; fill-opacity:1.0; 
stroke:#C2C2C2; stroke-width:39.3701; stroke-opacity:1; 
stroke-linecap:round; stroke-linejoin:round;">
</g>
<g style="fill:#C2C2C2; fill-opacity:1.0; 
stroke:#C2C2C2; stroke-width:0; stroke-opacity:1; 
stroke-linecap:round; stroke-linejoin:round;">
<circle cx="49400" cy="21900" r="100" /> 
</g>
<g style="fill:#C2C2C2; fill-opacity:1.0; 
stroke:#C2C2C2; stroke-width:39.3701; stroke-opacity:1; 
stroke-linecap:round; stroke-linejoin:round;">
</g>
<g style="fill:#C2C2C2; fill-opacity:1.0; 
stroke:#C2C2C2; stroke-width:0; stroke-opacity:1; 
stroke-linecap:round; stroke-linejoin:round;">
<circle cx="47600" cy="23600" r="100" /> 
</g>
<g style="fill:#C2C2C2; fill-opacity:1.0; 
stroke:#C2C2C2; stroke-width:39.3701; stroke-opacity:1; 
stroke-linecap:round; stroke-linejoin:round;">
</g>
<g style="fill:#C2C2C2; fill-opacity:1.0; 
stroke:#C2C2C2; stroke-width:0; stroke-opacity:1; 
stroke-linecap:round; stroke-linejoin:round;">
<circle cx="47000" cy="27800" r="250" /> 
</g>
<g style="fill:#C2C2C2; fill-opacity:1.0; 
stroke:#C2C2C2; stroke-width:39.3701; stroke-opacity:1; 
stroke-linecap:round; stroke-linejoin:round;">
</g>
<g style="fill:#C2C2C2; fill-opacity:1.0; 
stroke:#C2C2C2; stroke-width:0; stroke-opacity:1; 
stroke-linecap:round; stroke-linejoin:round;">
<circle cx="39500" cy="22600" r="100" /> 
</g>
<g style="fill:#C2C2C2; fill-opacity:1.0; 
stroke:#C2C2C2; stroke-width:39.3701; stroke-opacity:1; 
stroke-linecap:round; stroke-linejoin:round;">
</g>
<g style="fill:#C2C2C2; fill-opacity:1.0; 
stroke:#C2C2C2; stroke-width:0; stroke-opacity:1; 
stroke-linecap:round; stroke-linejoin:round;">
<circle cx="55000" cy="21400" r="100" /> 
</g>
<g style="fill:#C2C2C2; fill-opacity:1.0; 
stroke:#C2C2C2; stroke-width:39.3701; stroke-opacity:1; 
stroke-linecap:round; stroke-linejoin:round;">
</g>
<g style="fill:#C2C2C2; fill-opacity:1.0; 
stroke:#C2C2C2; stroke-width:0; stroke-opacity:1; 
stroke-linecap:round; stroke-linejoin:round;">
<circle cx="56650" cy="21400" r="100" /> 
</g>
<g style="fill:#C2C2C2; fill-opacity:1.0; 
stroke:#C2C2C2; stroke-width:39.3701; stroke-opacity:1; 
stroke-linecap:round; stroke-linejoin:round;">
</g>
<g style="fill:#C2C2C2; fill-opacity:1.0; 
stroke:#C2C2C2; stroke-width:0; stroke-opacity:1; 
stroke-linecap:round; stroke-linejoin:round;">
<circle cx="50000" cy="21450" r="100" /> 
</g>
<g style="fill:#C2C2C2; fill-opacity:1.0; 
stroke:#C2C2C2; stroke-width:39.3701; stroke-opacity:1; 
stroke-linecap:round; stroke-linejoin:round;">
</g>
<g style="fill:#C2C2C2; fill-opacity:1.0; 
stroke:#C2C2C2; stroke-width:0; stroke-opacity:1; 
stroke-linecap:round; stroke-linejoin:round;">
<circle cx="51000" cy="21400" r="100" /> 
</g>
<g style="fill:#C2C2C2; fill-opacity:1.0; 
stroke:#C2C2C2; stroke-width:39.3701; stroke-opacity:1; 
stroke-linecap:round; stroke-linejoin:round;">
</g>
<g style="fill:#C2C2C2; fill-opacity:1.0; 
stroke:#C2C2C2; stroke-width:0; stroke-opacity:1; 
stroke-linecap:round; stroke-linejoin:round;">
<circle cx="47000" cy="26550" r="250" /> 
</g>
<g style="fill:#C2C2C2; fill-opacity:1.0; 
stroke:#C2C2C2; stroke-width:39.3701; stroke-opacity:1; 
stroke-linecap:round; stroke-linejoin:round;">
</g>
<g >
</g>
<g style="fill:#008400; fill-opacity:1.0; 
stroke:#008400; stroke-width:39.3701; stroke-opacity:1; 
stroke-linecap:round; stroke-linejoin:round;">
</g>
<g style="fill:#008400; fill-opacity:1.0; 
stroke:#008400; stroke-width:100; stroke-opacity:1; 
stroke-linecap:round; stroke-linejoin:round;">
</g>
<g style="fill:#008400; fill-opacity:0.0; 
stroke:#008400; stroke-width:100; stroke-opacity:1; 
stroke-linecap:round; stroke-linejoin:round;">
<path d="M46900 24362
L46873 24336
" />
</g>
<g style="fill:#008400; fill-opacity:0.0; 
stroke:#008400; stroke-width:200; stroke-opacity:1; 
stroke-linecap:round; stroke-linejoin:round;">
<path d="M46900 25100
L46900 24362
" />
</g>
<g style="fill:#008400; fill-opacity:0.0; 
stroke:#008400; stroke-width:100; stroke-opacity:1; 
stroke-linecap:round; stroke-linejoin:round;">
<path d="M46837 24300
L46873 24336
" />
</g>
<g style="fill:#008400; fill-opacity:0.0; 
stroke:#008400; stroke-width:200; stroke-opacity:1; 
stroke-linecap:round; stroke-linejoin:round;">
<path d="M45300 24300
L46837 24300
" />
</g>
<g style="fill:#008400; fill-opacity:0.0; 
stroke:#008400; stroke-width:100; stroke-opacity:1; 
stroke-linecap:round; stroke-linejoin:round;">
<path d="M47600 24245
L47690 24336
" />
</g>
<g style="fill:#008400; fill-opacity:0.0; 
stroke:#008400; stroke-width:200; stroke-opacity:1; 
stroke-linecap:round; stroke-linejoin:round;">
<path d="M47600 23600
L47600 24245
" />
</g>
<g style="fill:#008400; fill-opacity:0.0; 
stroke:#008400; stroke-width:1000; stroke-opacity:1; 
stroke-linecap:round; stroke-linejoin:round;">
<path d="M32527 31083
L33544 32100
" />
<path d="M39763 29101
L39763 29034
" />
<path d="M36764 32100
L39763 29101
" />
<path d="M33544 32100
L36764 32100
" />
<path d="M35904 30112
L36488 30112
" />
<path d="M42132 27933
L43216 29017
" />
<path d="M38666 27933
L42132 27933
" />
<path d="M36488 30112
L38666 27933
" />
</g>
<g >
</g>
<g style="fill:#008400; fill-opacity:0.0; 
stroke:#008400; stroke-width:1000; stroke-opacity:1; 
stroke-linecap:round; stroke-linejoin:round;">
<g >
</g>
<g style="fill:#008400; fill-opacity:1.0; 
stroke:#008400; stroke-width:100; stroke-opacity:1; 
stroke-linecap:round; stroke-linejoin:round;">
<path style="fill:#008400; fill-opacity:1.0; 
stroke:#008400; stroke-width:100; stroke-opacity:1; 
stroke-linecap:round; stroke-linejoin:round;fill-rule:evenodd;"
d="M 57795.2,37303.7
23269.7,37230.9
23269.7,34922.6
23956.7,34922.6
23956.7,35177.4
24006.4,35427.2
24103.9,35662.6
24245.4,35874.4
24425.6,36054.6
24637.4,36196.1
24872.8,36293.6
25122.6,36343.3
25377.4,36343.3
25627.2,36293.6
25862.6,36196.1
26074.4,36054.6
26254.6,35874.4
26396.1,35662.6
26493.6,35427.2
26543.3,35177.4
26543.3,34922.6
26540.6,34909
32818.9,34909
32818.9,35191
32873.9,35467.4
32981.8,35727.9
33138.4,35962.3
33337.7,36161.6
33572.1,36318.2
33832.6,36426.1
34109,36481.1
34391,36481.1
34667.4,36426.1
34927.9,36318.2
35162.3,36161.6
35361.6,35962.3
35518.2,35727.9
35626.1,35467.4
35681.1,35191
35681.1,34909
35671.2,34859
40018.9,34859
40018.9,35141
40073.9,35417.4
40181.8,35677.9
40338.4,35912.3
40537.7,36111.6
40772.1,36268.2
41032.6,36376.1
41309,36431.1
41591,36431.1
41867.4,36376.1
42127.9,36268.2
42362.3,36111.6
42561.6,35912.3
42718.2,35677.9
42826.1,35417.4
42881.1,35141
42881.1,35072.6
54506.7,35072.6
54506.7,35327.4
54556.4,35577.2
54653.9,35812.6
54795.4,36024.4
54975.6,36204.6
55187.4,36346.1
55422.8,36443.6
55672.6,36493.3
55927.4,36493.3
56177.2,36443.6
56412.6,36346.1
56624.4,36204.6
56804.6,36024.4
56946.1,35812.6
57043.6,35577.2
57093.3,35327.4
57093.3,35072.6
57043.6,34822.8
56946.1,34587.4
56804.6,34375.6
56624.4,34195.4
56412.6,34053.9
56177.2,33956.4
55927.4,33906.7
55672.6,33906.7
55422.8,33956.4
55187.4,34053.9
54975.6,34195.4
54795.4,34375.6
54653.9,34587.4
54556.4,34822.8
54506.7,35072.6
42881.1,35072.6
42881.1,34859
42826.1,34582.6
42718.2,34322.1
42561.6,34087.7
42362.3,33888.4
42127.9,33731.8
41867.4,33623.9
41591,33568.9
41309,33568.9
41032.6,33623.9
40772.1,33731.8
40537.7,33888.4
40338.4,34087.7
40181.8,34322.1
40073.9,34582.6
40018.9,34859
35671.2,34859
35626.1,34632.6
35518.2,34372.1
35361.6,34137.7
35162.3,33938.4
34927.9,33781.8
34667.4,33673.9
34391,33618.9
34109,33618.9
33832.6,33673.9
33572.1,33781.8
33337.7,33938.4
33138.4,34137.7
32981.8,34372.1
32873.9,34632.6
32818.9,34909
26540.6,34909
26493.6,34672.8
26396.1,34437.4
26254.6,34225.6
26074.4,34045.4
25862.6,33903.9
25627.2,33806.4
25377.4,33756.7
25122.6,33756.7
24872.8,33806.4
24637.4,33903.9
24425.6,34045.4
24245.4,34225.6
24103.9,34437.4
24006.4,34672.8
23956.7,34922.6
23269.7,34922.6
23269.7,31083
31773.4,31083
31787.9,31230
31830.7,31371.4
31900.4,31501.7
31970.6,31587.3
32987.6,32604.3
33011.1,32632.9
33039.7,32656.4
33125.3,32726.6
33194.9,32763.8
33255.6,32796.3
33397,32839.1
33507.2,32850
33507.2,32850
33544,32853.6
33580.8,32850
36727.9,32850
36764.7,32853.6
36801.5,32850
36801.5,32850
36911.7,32839.1
37053.1,32796.3
37183.4,32726.6
37297.6,32632.9
37321.1,32604.3
38155.9,31769.5
53678.7,31769.5
53678.7,32114
53686.8,32196.6
53710.9,32276
53750.1,32349.2
53802.7,32413.4
53866.9,32466.1
53940.1,32505.2
54019.6,32529.3
54102.2,32537.4
54545.1,32537.4
54627.7,32529.3
54707.1,32505.2
54780.3,32466.1
54844.5,32413.4
54897.2,32349.2
54936.3,32276
54960.4,32196.6
54968.5,32114
54968.5,31769.5
55678.7,31769.5
55678.7,32114
55686.8,32196.6
55710.9,32276
55750.1,32349.2
55802.7,32413.4
55866.9,32466.1
55940.1,32505.2
56019.6,32529.3
56102.2,32537.4
56545.1,32537.4
56627.7,32529.3
56707.1,32505.2
56780.3,32466.1
56844.5,32413.4
56897.2,32349.2
56936.3,32276
56960.4,32196.6
56968.5,32114
56968.5,31769.5
56960.4,31686.9
56936.3,31607.4
56897.2,31534.2
56844.5,31470.1
56780.3,31417.4
56766,31409.7
56823.6,31352.1
56894.1,31246.6
56942.6,31129.5
56967.3,31005.1
56967.3,30878.3
56942.6,30754
56894.1,30636.8
56823.6,30531.4
56734,30441.7
56628.5,30371.3
56511.4,30322.8
56387,30298
56260.2,30298
56135.9,30322.8
56018.7,30371.3
55913.3,30441.7
55823.6,30531.4
55753.2,30636.8
55704.7,30754
55679.9,30878.3
55679.9,31005.1
55704.7,31129.5
55753.2,31246.6
55823.6,31352.1
55881.3,31409.7
55866.9,31417.4
55802.7,31470.1
55750.1,31534.2
55710.9,31607.4
55686.8,31686.9
55678.7,31769.5
54968.5,31769.5
54960.4,31686.9
54936.3,31607.4
54897.2,31534.2
54844.5,31470.1
54780.3,31417.4
54766,31409.7
54823.6,31352.1
54894.1,31246.6
54942.6,31129.5
54967.3,31005.1
54967.3,30878.3
54942.6,30754
54894.1,30636.8
54823.6,30531.4
54734,30441.7
54628.5,30371.3
54511.4,30322.8
54387,30298
54260.2,30298
54135.9,30322.8
54018.7,30371.3
53913.3,30441.7
53823.6,30531.4
53753.2,30636.8
53704.7,30754
53679.9,30878.3
53679.9,31005.1
53704.7,31129.5
53753.2,31246.6
53823.6,31352.1
53881.3,31409.7
53866.9,31417.4
53802.7,31470.1
53750.1,31534.2
53710.9,31607.4
53686.8,31686.9
53678.7,31769.5
38155.9,31769.5
39189.9,30735.4
39144,30846.2
39119.3,30970.6
39119.3,31097.4
39144,31221.8
39192.6,31338.9
39263,31444.3
39352.7,31534
39458.1,31604.4
39575.2,31653
39699.6,31677.7
39826.4,31677.7
39950.8,31653
40067.9,31604.4
40173.3,31534
40263,31444.3
40333.4,31338.9
40382,31221.8
40406.7,31097.4
40406.7,30970.6
40382,30846.2
40333.4,30729.1
40263,30623.7
40262.6,30623.3
42571.1,30623.3
42571.1,31410.7
42575.9,31459.7
42590.2,31506.8
42613.4,31550.3
42644.7,31588.3
42682.7,31619.6
42726.2,31642.8
42773.3,31657.1
42822.3,31661.9
43609.7,31661.9
43658.7,31657.1
43705.8,31642.8
43749.3,31619.6
43787.3,31588.3
43818.6,31550.3
43841.8,31506.8
43856.1,31459.7
43860.9,31410.7
43860.9,30623.3
43856.1,30574.3
43841.8,30527.2
43818.6,30483.7
43787.3,30445.7
43749.3,30414.4
43705.8,30391.2
43658.7,30376.9
43609.7,30372.1
42822.3,30372.1
42773.3,30376.9
42726.2,30391.2
42682.7,30414.4
42644.7,30445.7
42613.4,30483.7
42590.2,30527.2
42575.9,30574.3
42571.1,30623.3
40262.6,30623.3
40173.3,30534
40067.9,30463.6
39950.8,30415
39826.4,30390.3
39699.6,30390.3
39575.2,30415
39464.4,30460.9
40267.3,29658.1
40288.3,29640.8
40296.3,29636.6
40334.3,29605.3
40365.6,29567.3
40388.8,29523.8
40390.1,29519.5
40434.9,29435.7
40459.3,29390.1
40502.1,29248.7
40513,29138.5
40513,29138.5
40516.6,29101.7
40513,29064.9
40513,28997.2
40502.1,28887
40459.3,28745.6
40426.3,28684
41822.3,28684
42711.7,29573.4
42797.3,29643.6
42927.6,29713.3
43069,29756.1
43216,29770.6
43363,29756.1
43504.4,29713.3
43634.7,29643.6
43748.9,29549.9
43842.6,29435.7
43912.3,29305.4
43955.1,29164
43969.6,29017
43955.1,28870
43912.3,28728.6
43842.6,28598.3
43772.4,28512.7
42689.4,27429.7
42665.9,27401.1
42551.7,27307.4
42421.4,27237.7
42280,27194.8
42169.8,27184
42169.8,27184
42133,27180.4
42096.2,27184
38702.8,27184
38666,27180.4
38629.2,27184
38629.2,27184
38519,27194.8
38377.6,27237.7
38317,27270.2
38247.3,27307.4
38176.8,27365.2
38133.1,27401.1
38109.6,27429.7
36547.7,28991.6
36547.7,28912
36448.4,28912
36476.3,28821.8
36459.9,28797.9
36388.3,28699.2
36298.8,28616.3
36194.9,28552.4
36104,28579.2
36104,28912
36111.9,28912
36111.9,29312
36104,29312
36104,29319.9
35704,29319.9
35704,29312
35359.6,29312
35331.7,29402.2
35348.1,29426.1
35419.7,29524.8
35427.9,29532.5
35371.1,29579.1
35277.4,29693.3
35207.7,29823.6
35164.9,29965
35150.4,30112
35164.9,30259
35207.7,30400.4
35277.4,30530.7
35316.8,30578.7
35301.4,30597.4
35278.2,30640.9
35263.9,30688
35259.1,30737
35259.1,31350
33854.7,31350
33031.3,30526.6
33006.7,30506.5
33067.9,30431.9
33125.9,30323.3
33161.7,30205.5
33173.7,30083
33161.7,29960.5
33125.9,29842.7
33067.9,29734.1
33027.2,29684.5
33060.3,29666.9
33098.3,29635.6
33129.6,29597.6
33152.8,29554.1
33167.1,29507
33171.9,29458
33171.9,28821.8
35331.7,28821.8
35359.6,28912
35704,28912
35704,28579.2
35613.1,28552.4
35509.2,28616.3
35419.7,28699.2
35348.1,28797.9
35331.7,28821.8
33171.9,28821.8
33171.9,28708
33167.1,28659
33152.8,28611.9
33129.6,28568.4
33098.3,28530.4
33060.3,28499.1
33016.8,28475.9
32969.7,28461.6
32920.7,28456.8
32133.3,28456.8
32084.3,28461.6
32037.2,28475.9
31993.7,28499.1
31955.7,28530.4
31924.4,28568.4
31901.2,28611.9
31886.9,28659
31882.1,28708
31882.1,29458
31886.9,29507
31901.2,29554.1
31924.4,29597.6
31955.7,29635.6
31993.7,29666.9
32026.8,29684.5
31986.1,29734.1
31928.1,29842.7
31892.3,29960.5
31880.3,30083
31892.3,30205.5
31928.1,30323.3
31986.1,30431.9
32047.3,30506.5
31994.1,30550.1
31900.4,30664.3
31830.7,30794.6
31787.9,30936
31773.4,31083
23269.7,31083
23269.7,29094.9
24132.7,29094.9
24132.7,29221.7
24157.4,29346
24205.9,29463.2
24276.4,29568.6
24366,29658.3
24471.5,29728.7
24588.6,29777.2
24713,29802
24839.8,29802
24964.1,29777.2
25081.3,29728.7
25186.7,29658.3
25276.4,29568.6
25346.8,29463.2
25395.3,29346
25420.1,29221.7
25420.1,29094.9
26132.7,29094.9
26132.7,29221.7
26157.4,29346
26205.9,29463.2
26276.4,29568.6
26366,29658.3
26471.5,29728.7
26588.6,29777.2
26713,29802
26839.8,29802
26964.1,29777.2
27081.3,29728.7
27186.7,29658.3
27276.4,29568.6
27346.8,29463.2
27395.3,29346
27420.1,29221.7
27420.1,29094.9
27395.3,28970.5
27346.8,28853.4
27276.4,28747.9
27186.7,28658.3
27081.3,28587.8
26964.1,28539.3
26839.8,28514.6
26713,28514.6
26588.6,28539.3
26471.5,28587.8
26366,28658.3
26276.4,28747.9
26205.9,28853.4
26157.4,28970.5
26132.7,29094.9
25420.1,29094.9
25395.3,28970.5
25346.8,28853.4
25276.4,28747.9
25186.7,28658.3
25081.3,28587.8
24964.1,28539.3
24839.8,28514.6
24713,28514.6
24588.6,28539.3
24471.5,28587.8
24366,28658.3
24276.4,28747.9
24205.9,28853.4
24157.4,28970.5
24132.7,29094.9
23269.7,29094.9
23269.7,24204.7
28603.5,24204.7
28603.5,24795.3
28608.3,24844.3
28622.6,24891.4
28645.9,24934.8
28677.1,24972.9
28715.2,25004.1
28758.6,25027.4
28805.7,25041.7
28848.2,25045.8
28802.4,25076.5
28726.5,25152.4
28666.8,25241.7
28625.7,25340.9
28604.7,25446.3
28604.7,25553.7
28625.7,25659.1
28666.8,25758.3
28726.5,25847.6
28802.4,25923.5
28891.7,25983.2
28932.2,26000
28891.7,26016.8
28802.4,26076.5
28726.5,26152.4
28666.8,26241.7
28625.7,26340.9
28604.7,26446.3
28604.7,26553.7
28625.7,26659.1
28666.8,26758.3
28726.5,26847.6
28802.4,26923.5
28891.7,26983.2
28990.9,27024.3
29096.3,27045.3
29203.7,27045.3
29309.1,27024.3
29408.3,26983.2
29497.6,26923.5
29573.5,26847.6
29633.2,26758.3
29674.3,26659.1
29695.3,26553.7
29695.3,26446.3
29674.3,26340.9
29633.2,26241.7
29573.5,26152.4
29497.6,26076.5
29408.3,26016.8
29367.8,26000
29408.3,25983.2
29497.6,25923.5
29573.5,25847.6
29633.2,25758.3
29674.3,25659.1
29695.3,25553.7
29695.3,25446.3
29674.3,25340.9
29633.2,25241.7
29573.5,25152.4
29497.6,25076.5
29451.8,25045.8
29494.3,25041.7
29541.4,25027.4
29584.8,25004.1
29622.9,24972.9
29654.1,24934.8
29667.9,24909
32818.9,24909
32818.9,25191
32873.9,25467.4
32981.8,25727.9
33138.4,25962.3
33337.7,26161.6
33572.1,26318.2
33832.6,26426.1
34109,26481.1
34391,26481.1
34667.4,26426.1
34927.9,26318.2
35162.3,26161.6
35361.6,25962.3
35518.2,25727.9
35626.1,25467.4
35681.1,25191
35681.1,24909
35671.2,24859
40018.9,24859
40018.9,25141
40073.9,25417.4
40181.8,25677.9
40338.4,25912.3
40537.7,26111.6
40772.1,26268.2
41032.6,26376.1
41309,26431.1
41591,26431.1
41867.4,26376.1
42127.9,26268.2
42362.3,26111.6
42561.6,25912.3
42718.2,25677.9
42826.1,25417.4
42881.1,25141
42881.1,24859
42826.1,24582.6
42718.2,24322.1
42703.4,24300
44948.3,24300
44950,24317.2
44950,24334.5
44953.4,24351.4
44955.1,24368.6
44960.1,24385.1
44963.5,24402.1
44970.1,24418.1
44975.1,24434.6
44983.2,24449.8
44989.8,24465.8
44999.4,24480.2
45007.6,24495.4
45018.5,24508.7
45028.1,24523.1
45040.4,24535.3
45051.3,24548.7
45064.7,24559.6
45076.9,24571.9
45091.3,24581.5
45104.6,24592.4
45119.8,24600.6
45134.2,24610.2
45150.2,24616.8
45165.4,24624.9
45181.9,24629.9
45197.9,24636.5
45214.9,24639.9
45231.4,24644.9
45248.6,24646.6
45265.5,24650
46415.6,24650
46417.6,24656.8
46450,24717.3
46493.4,24770.2
46546.4,24813.7
46550,24815.6
46550,25134.5
46553.4,25151.4
46555.1,25168.6
46560.1,25185.1
46563.5,25202.1
46570.1,25218.1
46575.1,25234.6
46583.2,25249.8
46589.8,25265.8
46599.4,25280.2
46607.6,25295.4
46618.5,25308.7
46628.1,25323.1
46640.4,25335.3
46651.3,25348.7
46664.7,25359.6
46676.9,25371.9
46691.3,25381.5
46704.6,25392.4
46719.8,25400.6
46734.2,25410.2
46750.2,25416.8
46765.4,25424.9
46781.9,25429.9
46797.9,25436.5
46814.9,25439.9
46831.4,25444.9
46848.6,25446.6
46865.5,25450
46882.8,25450
46900,25451.7
46917.2,25450
46934.5,25450
46951.4,25446.6
46968.6,25444.9
46985.1,25439.9
47002.1,25436.5
47018.1,25429.9
47034.6,25424.9
47049.8,25416.8
47065.8,25410.2
47080.2,25400.6
47095.4,25392.4
47108.7,25381.5
47123.1,25371.9
47135.3,25359.6
47148.7,25348.7
47159.6,25335.3
47171.9,25323.1
47181.5,25308.7
47192.4,25295.4
47200.6,25280.2
47210.2,25265.8
47216.8,25249.8
47224.9,25234.6
47229.9,25218.1
47236.5,25202.1
47239.9,25185.1
47244.9,25168.6
47246.6,25151.4
47250,25134.5
47250,24773.2
47253.6,24770.2
47255.8,24767.7
47281.5,24799.1
47319.6,24830.3
47363,24853.5
47410.2,24867.8
47459.2,24872.6
47578,24871.4
47640.5,24808.9
47640.5,24386
47740.5,24386
47740.5,24808.9
47803,24871.4
47921.8,24872.6
47970.8,24867.8
48017.9,24853.5
48061.3,24830.3
48099.4,24799.1
48130.6,24761
48153.9,24717.6
48168.1,24670.4
48173,24621.4
48171.8,24448.5
48109.3,24386
47740.5,24386
47640.5,24386
47632.6,24386
47632.6,24286
47640.5,24286
47640.5,23863.1
47740.5,23863.1
47740.5,24286
48109.3,24286
48171.8,24223.5
48173,24050.6
48168.1,24001.6
48153.9,23954.4
48130.6,23911
48099.4,23872.9
48061.3,23841.7
48017.9,23818.5
47970.8,23804.2
47921.8,23799.4
47803,23800.6
47740.5,23863.1
47640.5,23863.1
47578,23800.6
47459.2,23799.4
47410.2,23804.2
47363,23818.5
47319.6,23841.7
47281.5,23872.9
47255.8,23904.3
47253.6,23901.8
47200.7,23858.3
47140.2,23826
47074.6,23806.1
47006.4,23799.4
46740.7,23799.4
46672.5,23806.1
46606.9,23826
46546.4,23858.3
46493.4,23901.8
46453.8,23950
45265.5,23950
45248.6,23953.4
45231.4,23955.1
45214.9,23960.1
45197.9,23963.5
45181.9,23970.1
45165.4,23975.1
45150.2,23983.2
45134.2,23989.8
45119.8,23999.4
45104.6,24007.6
45091.3,24018.5
45076.9,24028.1
45064.7,24040.4
45051.3,24051.3
45040.4,24064.7
45028.1,24076.9
45018.5,24091.3
45007.6,24104.6
44999.4,24119.8
44989.8,24134.2
44983.2,24150.2
44975.1,24165.4
44970.1,24181.9
44963.5,24197.9
44960.1,24214.9
44955.1,24231.4
44953.4,24248.6
44950,24265.5
44950,24282.8
44948.3,24300
42703.4,24300
42561.6,24087.7
42362.3,23888.4
42127.9,23731.8
41867.4,23623.9
41591,23568.9
41309,23568.9
41032.6,23623.9
40772.1,23731.8
40537.7,23888.4
40338.4,24087.7
40181.8,24322.1
40073.9,24582.6
40018.9,24859
35671.2,24859
35626.1,24632.6
35518.2,24372.1
35361.6,24137.7
35162.3,23938.4
34927.9,23781.8
34667.4,23673.9
34391,23618.9
34109,23618.9
33832.6,23673.9
33572.1,23781.8
33337.7,23938.4
33138.4,24137.7
32981.8,24372.1
32873.9,24632.6
32818.9,24909
29667.9,24909
29677.4,24891.4
29691.7,24844.3
29696.5,24795.3
29696.5,24204.7
29691.7,24155.7
29677.4,24108.6
29654.1,24065.2
29622.9,24027.1
29584.8,23995.9
29541.4,23972.6
29494.3,23958.3
29445.3,23953.5
28854.7,23953.5
28805.7,23958.3
28758.6,23972.6
28715.2,23995.9
28677.1,24027.1
28645.9,24065.2
28622.6,24108.6
28608.3,24155.7
28603.5,24204.7
23269.7,24204.7
23269.7,21922.6
23956.7,21922.6
23956.7,22177.4
24006.4,22427.2
24103.9,22662.6
24245.4,22874.4
24425.6,23054.6
24637.4,23196.1
24872.8,23293.6
25122.6,23343.3
25377.4,23343.3
25627.2,23293.6
25862.6,23196.1
26074.4,23054.6
26081.6,23047.5
52566.5,23047.5
52566.5,23152.5
52587,23255.6
52627.2,23352.7
52685.6,23440.1
52759.9,23514.4
52847.3,23572.8
52913.1,23600
52847.3,23627.2
52759.9,23685.6
52685.6,23759.9
52627.2,23847.3
52587,23944.4
52566.5,24047.5
52566.5,24152.5
52587,24255.6
52627.2,24352.7
52685.6,24440.1
52759.9,24514.4
52847.3,24572.8
52913.1,24600
52847.3,24627.2
52759.9,24685.6
52685.6,24759.9
52627.2,24847.3
52587,24944.4
52566.5,25047.5
52566.5,25152.5
52587,25255.6
52627.2,25352.7
52685.6,25440.1
52759.9,25514.4
52847.3,25572.8
52944.4,25613
53047.5,25633.5
53152.5,25633.5
53255.6,25613
53352.7,25572.8
53440.1,25514.4
53514.4,25440.1
53572.8,25352.7
53613,25255.6
53633.5,25152.5
53633.5,25047.5
53613,24944.4
53572.8,24847.3
53514.4,24759.9
53440.1,24685.6
53352.7,24627.2
53286.9,24600
53352.7,24572.8
53440.1,24514.4
53514.4,24440.1
53572.8,24352.7
53613,24255.6
53633.5,24152.5
53633.5,24047.5
53613,23944.4
53572.8,23847.3
53514.4,23759.9
53440.1,23685.6
53352.7,23627.2
53286.9,23600
53352.7,23572.8
53440.1,23514.4
53514.4,23440.1
53572.8,23352.7
53613,23255.6
53633.5,23152.5
53633.5,23047.5
53613,22944.4
53572.8,22847.3
53514.4,22759.9
53440.1,22685.6
53352.7,22627.2
53255.6,22587
53152.5,22566.5
53047.5,22566.5
52944.4,22587
52847.3,22627.2
52759.9,22685.6
52685.6,22759.9
52627.2,22847.3
52587,22944.4
52566.5,23047.5
26081.6,23047.5
26254.6,22874.4
26396.1,22662.6
26493.6,22427.2
26543.3,22177.4
26543.3,21922.6
26493.6,21672.8
26396.1,21437.4
26254.6,21225.6
26074.4,21045.4
25862.6,20903.9
25627.2,20806.4
25377.4,20756.7
25122.6,20756.7
24872.8,20806.4
24637.4,20903.9
24425.6,21045.4
24245.4,21225.6
24103.9,21437.4
24006.4,21672.8
23956.7,21922.6
23269.7,21922.6
23269.7,19980.6
57790.4,19969.8
Z" /> 
</g>
</g>
</g>
<g style="fill:#FFFFFF; fill-opacity:1.0; 
stroke:#FFFFFF; stroke-width:100; stroke-opacity:1; 
stroke-linecap:round; stroke-linejoin:round;">
</g>
<g style="fill:#FFFFFF; fill-opacity:1.0; 
stroke:#FFFFFF; stroke-width:0; stroke-opacity:1; 
stroke-linecap:round; stroke-linejoin:round;">
<circle cx="46900" cy="25100" r="50" /> 
</g>
<g style="fill:#FFFFFF; fill-opacity:1.0; 
stroke:#FFFFFF; stroke-width:39.3701; stroke-opacity:1; 
stroke-linecap:round; stroke-linejoin:round;">
</g>
<g style="fill:#FFFFFF; fill-opacity:1.0; 
stroke:#FFFFFF; stroke-width:0; stroke-opacity:1; 
stroke-linecap:round; stroke-linejoin:round;">
<circle cx="45300" cy="24300" r="50" /> 
</g>
<g style="fill:#FFFFFF; fill-opacity:1.0; 
stroke:#FFFFFF; stroke-width:39.3701; stroke-opacity:1; 
stroke-linecap:round; stroke-linejoin:round;">
</g>
<g style="fill:#FFFFFF; fill-opacity:1.0; 
stroke:#FFFFFF; stroke-width:0; stroke-opacity:1; 
stroke-linecap:round; stroke-linejoin:round;">
<circle cx="51600" cy="21900" r="50" /> 
</g>
<g style="fill:#FFFFFF; fill-opacity:1.0; 
stroke:#FFFFFF; stroke-width:39.3701; stroke-opacity:1; 
stroke-linecap:round; stroke-linejoin:round;">
</g>
<g style="fill:#FFFFFF; fill-opacity:1.0; 
stroke:#FFFFFF; stroke-width:0; stroke-opacity:1; 
stroke-linecap:round; stroke-linejoin:round;">
<circle cx="49400" cy="21900" r="50" /> 
</g>
<g style="fill:#FFFFFF; fill-opacity:1.0; 
stroke:#FFFFFF; stroke-width:39.3701; stroke-opacity:1; 
stroke-linecap:round; stroke-linejoin:round;">
</g>
<g style="fill:#FFFFFF; fill-opacity:1.0; 
stroke:#FFFFFF; stroke-width:0; stroke-opacity:1; 
stroke-linecap:round; stroke-linejoin:round;">
<circle cx="47600" cy="23600" r="50" /> 
</g>
<g style="fill:#FFFFFF; fill-opacity:1.0; 
stroke:#FFFFFF; stroke-width:39.3701; stroke-opacity:1; 
stroke-linecap:round; stroke-linejoin:round;">
</g>
<g style="fill:#FFFFFF; fill-opacity:1.0; 
stroke:#FFFFFF; stroke-width:0; stroke-opacity:1; 
stroke-linecap:round; stroke-linejoin:round;">
<circle cx="47000" cy="27800" r="125" /> 
</g>
<g style="fill:#FFFFFF; fill-opacity:1.0; 
stroke:#FFFFFF; stroke-width:39.3701; stroke-opacity:1; 
stroke-linecap:round; stroke-linejoin:round;">
</g>
<g style="fill:#FFFFFF; fill-opacity:1.0; 
stroke:#FFFFFF; stroke-width:0; stroke-opacity:1; 
stroke-linecap:round; stroke-linejoin:round;">
<circle cx="39500" cy="22600" r="50" /> 
</g>
<g style="fill:#FFFFFF; fill-opacity:1.0; 
stroke:#FFFFFF; stroke-width:39.3701; stroke-opacity:1; 
stroke-linecap:round; stroke-linejoin:round;">
</g>
<g style="fill:#FFFFFF; fill-opacity:1.0; 
stroke:#FFFFFF; stroke-width:0; stroke-opacity:1; 
stroke-linecap:round; stroke-linejoin:round;">
<circle cx="55000" cy="21400" r="50" /> 
</g>
<g style="fill:#FFFFFF; fill-opacity:1.0; 
stroke:#FFFFFF; stroke-width:39.3701; stroke-opacity:1; 
stroke-linecap:round; stroke-linejoin:round;">
</g>
<g style="fill:#FFFFFF; fill-opacity:1.0; 
stroke:#FFFFFF; stroke-width:0; stroke-opacity:1; 
stroke-linecap:round; stroke-linejoin:round;">
<circle cx="56650" cy="21400" r="50" /> 
</g>
<g style="fill:#FFFFFF; fill-opacity:1.0; 
stroke:#FFFFFF; stroke-width:39.3701; stroke-opacity:1; 
stroke-linecap:round; stroke-linejoin:round;">
</g>
<g style="fill:#FFFFFF; fill-opacity:1.0; 
stroke:#FFFFFF; stroke-width:0; stroke-opacity:1; 
stroke-linecap:round; stroke-linejoin:round;">
<circle cx="50000" cy="21450" r="50" /> 
</g>
<g style="fill:#FFFFFF; fill-opacity:1.0; 
stroke:#FFFFFF; stroke-width:39.3701; stroke-opacity:1; 
stroke-linecap:round; stroke-linejoin:round;">
</g>
<g style="fill:#FFFFFF; fill-opacity:1.0; 
stroke:#FFFFFF; stroke-width:0; stroke-opacity:1; 
stroke-linecap:round; stroke-linejoin:round;">
<circle cx="51000" cy="21400" r="50" /> 
</g>
<g style="fill:#FFFFFF; fill-opacity:1.0; 
stroke:#FFFFFF; stroke-width:39.3701; stroke-opacity:1; 
stroke-linecap:round; stroke-linejoin:round;">
</g>
<g style="fill:#FFFFFF; fill-opacity:1.0; 
stroke:#FFFFFF; stroke-width:0; stroke-opacity:1; 
stroke-linecap:round; stroke-linejoin:round;">
<circle cx="47000" cy="26550" r="125" /> 
</g>
<g style="fill:#FFFFFF; fill-opacity:1.0; 
stroke:#FFFFFF; stroke-width:39.3701; stroke-opacity:1; 
stroke-linecap:round; stroke-linejoin:round;">
</g>
<g style="fill:#FFFFFF; fill-opacity:1.0; 
stroke:#FFFFFF; stroke-width:0; stroke-opacity:1; 
stroke-linecap:round; stroke-linejoin:round;">
<circle cx="29150" cy="24500" r="157.48" /> 
</g>
<g style="fill:#FFFFFF; fill-opacity:1.0; 
stroke:#FFFFFF; stroke-width:39.3701; stroke-opacity:1; 
stroke-linecap:round; stroke-linejoin:round;">
</g>
<g style="fill:#FFFFFF; fill-opacity:1.0; 
stroke:#FFFFFF; stroke-width:0; stroke-opacity:1; 
stroke-linecap:round; stroke-linejoin:round;">
<circle cx="29150" cy="26500" r="157.48" /> 
</g>
<g style="fill:#FFFFFF; fill-opacity:1.0; 
stroke:#FFFFFF; stroke-width:39.3701; stroke-opacity:1; 
stroke-linecap:round; stroke-linejoin:round;">
</g>
<g style="fill:#FFFFFF; fill-opacity:1.0; 
stroke:#FFFFFF; stroke-width:0; stroke-opacity:1; 
stroke-linecap:round; stroke-linejoin:round;">
<circle cx="29150" cy="25500" r="157.48" /> 
</g>
<g style="fill:#FFFFFF; fill-opacity:1.0; 
stroke:#FFFFFF; stroke-width:39.3701; stroke-opacity:1; 
stroke-linecap:round; stroke-linejoin:round;">
</g>
<g style="fill:#FFFFFF; fill-opacity:1.0; 
stroke:#FFFFFF; stroke-width:0; stroke-opacity:1; 
stroke-linecap:round; stroke-linejoin:round;">
<circle cx="26776.4" cy="29158.3" r="255.906" /> 
</g>
<g style="fill:#FFFFFF; fill-opacity:1.0; 
stroke:#FFFFFF; stroke-width:39.3701; stroke-opacity:1; 
stroke-linecap:round; stroke-linejoin:round;">
</g>
<g style="fill:#FFFFFF; fill-opacity:1.0; 
stroke:#FFFFFF; stroke-width:0; stroke-opacity:1; 
stroke-linecap:round; stroke-linejoin:round;">
<circle cx="24776.4" cy="29158.3" r="255.906" /> 
</g>
<g style="fill:#FFFFFF; fill-opacity:1.0; 
stroke:#FFFFFF; stroke-width:39.3701; stroke-opacity:1; 
stroke-linecap:round; stroke-linejoin:round;">
</g>
<g style="fill:#FFFFFF; fill-opacity:1.0; 
stroke:#FFFFFF; stroke-width:0; stroke-opacity:1; 
stroke-linecap:round; stroke-linejoin:round;">
<circle cx="26776.4" cy="28158.3" r="255.906" /> 
</g>
<g style="fill:#FFFFFF; fill-opacity:1.0; 
stroke:#FFFFFF; stroke-width:39.3701; stroke-opacity:1; 
stroke-linecap:round; stroke-linejoin:round;">
</g>
<g style="fill:#FFFFFF; fill-opacity:1.0; 
stroke:#FFFFFF; stroke-width:0; stroke-opacity:1; 
stroke-linecap:round; stroke-linejoin:round;">
<circle cx="24776.4" cy="28158.3" r="255.906" /> 
</g>
<g style="fill:#FFFFFF; fill-opacity:1.0; 
stroke:#FFFFFF; stroke-width:39.3701; stroke-opacity:1; 
stroke-linecap:round; stroke-linejoin:round;">
</g>
<g style="fill:#FFFFFF; fill-opacity:1.0; 
stroke:#FFFFFF; stroke-width:0; stroke-opacity:1; 
stroke-linecap:round; stroke-linejoin:round;">
<circle cx="54300" cy="29941.7" r="255.906" /> 
</g>
<g style="fill:#FFFFFF; fill-opacity:1.0; 
stroke:#FFFFFF; stroke-width:39.3701; stroke-opacity:1; 
stroke-linecap:round; stroke-linejoin:round;">
</g>
<g style="fill:#FFFFFF; fill-opacity:1.0; 
stroke:#FFFFFF; stroke-width:0; stroke-opacity:1; 
stroke-linecap:round; stroke-linejoin:round;">
<circle cx="56300" cy="29941.7" r="255.906" /> 
</g>
<g style="fill:#FFFFFF; fill-opacity:1.0; 
stroke:#FFFFFF; stroke-width:39.3701; stroke-opacity:1; 
stroke-linecap:round; stroke-linejoin:round;">
</g>
<g style="fill:#FFFFFF; fill-opacity:1.0; 
stroke:#FFFFFF; stroke-width:0; stroke-opacity:1; 
stroke-linecap:round; stroke-linejoin:round;">
<circle cx="54323.6" cy="30941.7" r="255.906" /> 
</g>
<g style="fill:#FFFFFF; fill-opacity:1.0; 
stroke:#FFFFFF; stroke-width:39.3701; stroke-opacity:1; 
stroke-linecap:round; stroke-linejoin:round;">
</g>
<g style="fill:#FFFFFF; fill-opacity:1.0; 
stroke:#FFFFFF; stroke-width:0; stroke-opacity:1; 
stroke-linecap:round; stroke-linejoin:round;">
<circle cx="56323.6" cy="30941.7" r="255.906" /> 
</g>
<g style="fill:#FFFFFF; fill-opacity:1.0; 
stroke:#FFFFFF; stroke-width:39.3701; stroke-opacity:1; 
stroke-linecap:round; stroke-linejoin:round;">
</g>
<g style="fill:#FFFFFF; fill-opacity:1.0; 
stroke:#FFFFFF; stroke-width:0; stroke-opacity:1; 
stroke-linecap:round; stroke-linejoin:round;">
<circle cx="54323.6" cy="31941.7" r="255.906" /> 
</g>
<g style="fill:#FFFFFF; fill-opacity:1.0; 
stroke:#FFFFFF; stroke-width:39.3701; stroke-opacity:1; 
stroke-linecap:round; stroke-linejoin:round;">
</g>
<g style="fill:#FFFFFF; fill-opacity:1.0; 
stroke:#FFFFFF; stroke-width:0; stroke-opacity:1; 
stroke-linecap:round; stroke-linejoin:round;">
<circle cx="56323.6" cy="31941.7" r="255.906" /> 
</g>
<g style="fill:#FFFFFF; fill-opacity:1.0; 
stroke:#FFFFFF; stroke-width:39.3701; stroke-opacity:1; 
stroke-linecap:round; stroke-linejoin:round;">
</g>
<g style="fill:#FFFFFF; fill-opacity:1.0; 
stroke:#FFFFFF; stroke-width:0; stroke-opacity:1; 
stroke-linecap:round; stroke-linejoin:round;">
<circle cx="53100" cy="23100" r="157.48" /> 
</g>
<g style="fill:#FFFFFF; fill-opacity:1.0; 
stroke:#FFFFFF; stroke-width:39.3701; stroke-opacity:1; 
stroke-linecap:round; stroke-linejoin:round;">
</g>
<g style="fill:#FFFFFF; fill-opacity:1.0; 
stroke:#FFFFFF; stroke-width:0; stroke-opacity:1; 
stroke-linecap:round; stroke-linejoin:round;">
<circle cx="53100" cy="24100" r="157.48" /> 
</g>
<g style="fill:#FFFFFF; fill-opacity:1.0; 
stroke:#FFFFFF; stroke-width:39.3701; stroke-opacity:1; 
stroke-linecap:round; stroke-linejoin:round;">
</g>
<g style="fill:#FFFFFF; fill-opacity:1.0; 
stroke:#FFFFFF; stroke-width:0; stroke-opacity:1; 
stroke-linecap:round; stroke-linejoin:round;">
<circle cx="53100" cy="25100" r="157.48" /> 
</g>
<g style="fill:#FFFFFF; fill-opacity:1.0; 
stroke:#FFFFFF; stroke-width:39.3701; stroke-opacity:1; 
stroke-linecap:round; stroke-linejoin:round;">
</g>
<g style="fill:#FFFFFF; fill-opacity:1.0; 
stroke:#FFFFFF; stroke-width:0; stroke-opacity:1; 
stroke-linecap:round; stroke-linejoin:round;">
<circle cx="39763" cy="29034" r="216.535" /> 
</g>
<g style="fill:#FFFFFF; fill-opacity:1.0; 
stroke:#FFFFFF; stroke-width:39.3701; stroke-opacity:1; 
stroke-linecap:round; stroke-linejoin:round;">
</g>
<g style="fill:#FFFFFF; fill-opacity:1.0; 
stroke:#FFFFFF; stroke-width:0; stroke-opacity:1; 
stroke-linecap:round; stroke-linejoin:round;">
<circle cx="39763" cy="31034" r="216.535" /> 
</g>
<g style="fill:#FFFFFF; fill-opacity:1.0; 
stroke:#FFFFFF; stroke-width:39.3701; stroke-opacity:1; 
stroke-linecap:round; stroke-linejoin:round;">
</g>
<g style="fill:#FFFFFF; fill-opacity:1.0; 
stroke:#FFFFFF; stroke-width:0; stroke-opacity:1; 
stroke-linecap:round; stroke-linejoin:round;">
<circle cx="43216" cy="31017" r="216.535" /> 
</g>
<g style="fill:#FFFFFF; fill-opacity:1.0; 
stroke:#FFFFFF; stroke-width:39.3701; stroke-opacity:1; 
stroke-linecap:round; stroke-linejoin:round;">
</g>
<g style="fill:#FFFFFF; fill-opacity:1.0; 
stroke:#FFFFFF; stroke-width:0; stroke-opacity:1; 
stroke-linecap:round; stroke-linejoin:round;">
<circle cx="43216" cy="29017" r="216.535" /> 
</g>
<g style="fill:#FFFFFF; fill-opacity:1.0; 
stroke:#FFFFFF; stroke-width:39.3701; stroke-opacity:1; 
stroke-linecap:round; stroke-linejoin:round;">
</g>
<g style="fill:#FFFFFF; fill-opacity:1.0; 
stroke:#FFFFFF; stroke-width:0; stroke-opacity:1; 
stroke-linecap:round; stroke-linejoin:round;">
<circle cx="32527" cy="29083" r="216.535" /> 
</g>
<g style="fill:#FFFFFF; fill-opacity:1.0; 
stroke:#FFFFFF; stroke-width:39.3701; stroke-opacity:1; 
stroke-linecap:round; stroke-linejoin:round;">
</g>
<g style="fill:#FFFFFF; fill-opacity:1.0; 
stroke:#FFFFFF; stroke-width:0; stroke-opacity:1; 
stroke-linecap:round; stroke-linejoin:round;">
<circle cx="32527" cy="30083" r="216.535" /> 
</g>
<g style="fill:#FFFFFF; fill-opacity:1.0; 
stroke:#FFFFFF; stroke-width:39.3701; stroke-opacity:1; 
stroke-linecap:round; stroke-linejoin:round;">
</g>
<g style="fill:#FFFFFF; fill-opacity:1.0; 
stroke:#FFFFFF; stroke-width:0; stroke-opacity:1; 
stroke-linecap:round; stroke-linejoin:round;">
<circle cx="32527" cy="31083" r="216.535" /> 
</g>
<g style="fill:#FFFFFF; fill-opacity:1.0; 
stroke:#FFFFFF; stroke-width:39.3701; stroke-opacity:1; 
stroke-linecap:round; stroke-linejoin:round;">
</g>
<g style="fill:#FFFFFF; fill-opacity:1.0; 
stroke:#FFFFFF; stroke-width:0; stroke-opacity:1; 
stroke-linecap:round; stroke-linejoin:round;">
<circle cx="35904" cy="29112" r="216.535" /> 
</g>
<g style="fill:#FFFFFF; fill-opacity:1.0; 
stroke:#FFFFFF; stroke-width:39.3701; stroke-opacity:1; 
stroke-linecap:round; stroke-linejoin:round;">
</g>
<g style="fill:#FFFFFF; fill-opacity:1.0; 
stroke:#FFFFFF; stroke-width:0; stroke-opacity:1; 
stroke-linecap:round; stroke-linejoin:round;">
<circle cx="35904" cy="30112" r="216.535" /> 
</g>
<g style="fill:#FFFFFF; fill-opacity:1.0; 
stroke:#FFFFFF; stroke-width:39.3701; stroke-opacity:1; 
stroke-linecap:round; stroke-linejoin:round;">
</g>
<g style="fill:#FFFFFF; fill-opacity:1.0; 
stroke:#FFFFFF; stroke-width:0; stroke-opacity:1; 
stroke-linecap:round; stroke-linejoin:round;">
<circle cx="35904" cy="31112" r="216.535" /> 
</g>
<g style="fill:#FFFFFF; fill-opacity:1.0; 
stroke:#FFFFFF; stroke-width:39.3701; stroke-opacity:1; 
stroke-linecap:round; stroke-linejoin:round;">
</g>
<g style="fill:#FFFFFF; fill-opacity:1.0; 
stroke:#FFFFFF; stroke-width:0; stroke-opacity:1; 
stroke-linecap:round; stroke-linejoin:round;">
<circle cx="25250" cy="22050" r="1043.31" /> 
</g>
<g style="fill:#FFFFFF; fill-opacity:1.0; 
stroke:#FFFFFF; stroke-width:39.3701; stroke-opacity:1; 
stroke-linecap:round; stroke-linejoin:round;">
</g>
<g style="fill:#FFFFFF; fill-opacity:1.0; 
stroke:#FFFFFF; stroke-width:0; stroke-opacity:1; 
stroke-linecap:round; stroke-linejoin:round;">
<circle cx="25250" cy="35050" r="1043.31" /> 
</g>
<g style="fill:#FFFFFF; fill-opacity:1.0; 
stroke:#FFFFFF; stroke-width:39.3701; stroke-opacity:1; 
stroke-linecap:round; stroke-linejoin:round;">
</g>
<g style="fill:#FFFFFF; fill-opacity:1.0; 
stroke:#FFFFFF; stroke-width:0; stroke-opacity:1; 
stroke-linecap:round; stroke-linejoin:round;">
<circle cx="55800" cy="35200" r="1043.31" /> 
</g>
<g style="fill:#FFFFFF; fill-opacity:1.0; 
stroke:#FFFFFF; stroke-width:39.3701; stroke-opacity:1; 
stroke-linecap:round; stroke-linejoin:round;">
</g>
<g style="fill:#FFFFFF; fill-opacity:1.0; 
stroke:#FFFFFF; stroke-width:0; stroke-opacity:1; 
stroke-linecap:round; stroke-linejoin:round;">
<circle cx="34250" cy="35050" r="492.126" /> 
</g>
<g style="fill:#FFFFFF; fill-opacity:1.0; 
stroke:#FFFFFF; stroke-width:39.3701; stroke-opacity:1; 
stroke-linecap:round; stroke-linejoin:round;">
</g>
<g style="fill:#FFFFFF; fill-opacity:1.0; 
stroke:#FFFFFF; stroke-width:0; stroke-opacity:1; 
stroke-linecap:round; stroke-linejoin:round;">
<circle cx="34250" cy="25050" r="492.126" /> 
</g>
<g style="fill:#FFFFFF; fill-opacity:1.0; 
stroke:#FFFFFF; stroke-width:39.3701; stroke-opacity:1; 
stroke-linecap:round; stroke-linejoin:round;">
</g>
<g style="fill:#FFFFFF; fill-opacity:1.0; 
stroke:#FFFFFF; stroke-width:0; stroke-opacity:1; 
stroke-linecap:round; stroke-linejoin:round;">
<circle cx="41450" cy="25000" r="492.126" /> 
</g>
<g style="fill:#FFFFFF; fill-opacity:1.0; 
stroke:#FFFFFF; stroke-width:39.3701; stroke-opacity:1; 
stroke-linecap:round; stroke-linejoin:round;">
</g>
<g style="fill:#FFFFFF; fill-opacity:1.0; 
stroke:#FFFFFF; stroke-width:0; stroke-opacity:1; 
stroke-linecap:round; stroke-linejoin:round;">
<circle cx="41450" cy="35000" r="492.126" /> 
</g>
<g style="fill:#FFFFFF; fill-opacity:1.0; 
stroke:#FFFFFF; stroke-width:39.3701; stroke-opacity:1; 
stroke-linecap:round; stroke-linejoin:round;">
</g>
<g style="fill:#000000; fill-opacity:1.0; 
stroke:#000000; stroke-width:39.3701; stroke-opacity:1; 
stroke-linecap:round; stroke-linejoin:round;">
</g>
<g style="fill:#C2C200; fill-opacity:1.0; 
stroke:#C2C200; stroke-width:39.3701; stroke-opacity:1; 
stroke-linecap:round; stroke-linejoin:round;">
</g>
<g style="fill:#C2C200; fill-opacity:0.0; 
stroke:#C2C200; stroke-width:39.3701; stroke-opacity:1; 
stroke-linecap:round; stroke-linejoin:round;">
<path d="M58060 19700
L58065 37574
" />
<path d="M23000 37500
L58065 37574
" />
<path d="M23000 19711
L23000 37500
" />
<path d="M23000 19711
L58060 19700
" />
<g >
</g>
<g >
</g>
<g >
</g>
<g >
</g>
<g >
</g>
<g >
</g>
<g >
</g>
<g >
</g>
<g >
</g>
<g >
</g>
<g >
</g>
<g >
</g>
<g >
</g>
<g >
</g>
<g >
</g>
<g >
</g>
<g >
</g>
<g >
</g>
<g >
</g>
<g >
</g>
<g >
</g>
<g >
</g>
<g >
</g>
<g >
</g>
<g >
</g>
<g >
</g>
<g >
</g>
<g >
</g>
<g >
</g>
<g >
</g>
<g >
</g>
<g >
</g>
</g> 
</svg>
