<?xml version="1.0" standalone="no"?>
 <!DOCTYPE svg PUBLIC "-//W3C//DTD SVG 1.1//EN" 
 "http://www.w3.org/Graphics/SVG/1.1/DTD/svg11.dtd"> 
<svg
  xmlns:svg="http://www.w3.org/2000/svg"
  xmlns="http://www.w3.org/2000/svg"
  xmlns:xlink="http://www.w3.org/1999/xlink"
  version="1.1"
  width="29.700220cm" height="21.000720cm" viewBox="0 0 116930 82680">
<title>SVG Picture created as PNN_PS_01-F_Fab.svg date 2020/12/30 23:45:29 </title>
  <desc>Picture generated by PCBNEW </desc>
<g style="fill:#000000; fill-opacity:1;stroke:#000000; stroke-opacity:1;
stroke-linecap:round; stroke-linejoin:round;"
 transform="translate(0 0) scale(1 1)">
</g>
<g style="fill:#000000; fill-opacity:0.0; 
stroke:#000000; stroke-width:-0.000393701; stroke-opacity:1; 
stroke-linecap:round; stroke-linejoin:round;">
</g>
<g style="fill:#000000; fill-opacity:0.0; 
stroke:#000000; stroke-width:39.3701; stroke-opacity:1; 
stroke-linecap:round; stroke-linejoin:round;">
</g>
<g style="fill:#000000; fill-opacity:0.0; 
stroke:#000000; stroke-width:59.0551; stroke-opacity:1; 
stroke-linecap:round; stroke-linejoin:round;">
<rect x="69685.9" y="65357.2" width="42519.7" height="12598.4" rx="0" />
</g>
<g style="fill:#000000; fill-opacity:0.0; 
stroke:#000000; stroke-width:39.3701; stroke-opacity:1; 
stroke-linecap:round; stroke-linejoin:round;">
</g>
<g style="fill:#000000; fill-opacity:0.0; 
stroke:#000000; stroke-width:59.0551; stroke-opacity:1; 
stroke-linecap:round; stroke-linejoin:round;">
<rect x="3937.01" y="3937.01" width="109056" height="74806" rx="0" />
</g>
<g style="fill:#000000; fill-opacity:0.0; 
stroke:#000000; stroke-width:39.3701; stroke-opacity:1; 
stroke-linecap:round; stroke-linejoin:round;">
</g>
<g style="fill:#000000; fill-opacity:0.0; 
stroke:#000000; stroke-width:59.0551; stroke-opacity:1; 
stroke-linecap:round; stroke-linejoin:round;">
<rect x="4724.41" y="4724.41" width="107481" height="73231.2" rx="0" />
</g>
<g style="fill:#000000; fill-opacity:0.0; 
stroke:#000000; stroke-width:39.3701; stroke-opacity:1; 
stroke-linecap:round; stroke-linejoin:round;">
</g>
<g style="fill:#000000; fill-opacity:0.0; 
stroke:#000000; stroke-width:59.0551; stroke-opacity:1; 
stroke-linecap:round; stroke-linejoin:round;">
<path d="M23622 4724
L23622 3937
" />
</g>
<g style="fill:#000000; fill-opacity:0.0; 
stroke:#000000; stroke-width:39.3701; stroke-opacity:1; 
stroke-linecap:round; stroke-linejoin:round;">
</g>
<g style="fill:#000000; fill-opacity:0.0; 
stroke:#000000; stroke-width:59.0551; stroke-opacity:1; 
stroke-linecap:round; stroke-linejoin:round;">
<path d="M43307 4724
L43307 3937
" />
</g>
<g style="fill:#000000; fill-opacity:0.0; 
stroke:#000000; stroke-width:39.3701; stroke-opacity:1; 
stroke-linecap:round; stroke-linejoin:round;">
</g>
<g style="fill:#000000; fill-opacity:0.0; 
stroke:#000000; stroke-width:59.0551; stroke-opacity:1; 
stroke-linecap:round; stroke-linejoin:round;">
<path d="M62992 4724
L62992 3937
" />
</g>
<g style="fill:#000000; fill-opacity:0.0; 
stroke:#000000; stroke-width:39.3701; stroke-opacity:1; 
stroke-linecap:round; stroke-linejoin:round;">
</g>
<g style="fill:#000000; fill-opacity:0.0; 
stroke:#000000; stroke-width:59.0551; stroke-opacity:1; 
stroke-linecap:round; stroke-linejoin:round;">
<path d="M82677 4724
L82677 3937
" />
</g>
<g style="fill:#000000; fill-opacity:0.0; 
stroke:#000000; stroke-width:39.3701; stroke-opacity:1; 
stroke-linecap:round; stroke-linejoin:round;">
</g>
<g style="fill:#000000; fill-opacity:0.0; 
stroke:#000000; stroke-width:59.0551; stroke-opacity:1; 
stroke-linecap:round; stroke-linejoin:round;">
<path d="M102362 4724
L102362 3937
" />
</g>
<g style="fill:#000000; fill-opacity:0.0; 
stroke:#000000; stroke-width:39.3701; stroke-opacity:1; 
stroke-linecap:round; stroke-linejoin:round;">
</g>
<g style="fill:#000000; fill-opacity:0.0; 
stroke:#000000; stroke-width:59.0551; stroke-opacity:1; 
stroke-linecap:round; stroke-linejoin:round;">
<text x="13779.5" y="4586.61"
textLength="546.494" font-size="682.415" lengthAdjust="spacingAndGlyphs"
text-anchor="start" opacity="0">1</text>
<path d="M14199 4562
L13906 4562
" />
<path d="M14052 4562
L14052 4050
L14004 4123
L13955 4172
L13906 4196
" />
</g>
<g style="fill:#000000; fill-opacity:0.0; 
stroke:#000000; stroke-width:39.3701; stroke-opacity:1; 
stroke-linecap:round; stroke-linejoin:round;">
</g>
<g style="fill:#000000; fill-opacity:0.0; 
stroke:#000000; stroke-width:59.0551; stroke-opacity:1; 
stroke-linecap:round; stroke-linejoin:round;">
<text x="33464.6" y="4586.61"
textLength="546.494" font-size="682.415" lengthAdjust="spacingAndGlyphs"
text-anchor="start" opacity="0">2</text>
<path d="M33591 4099
L33615 4074
L33664 4050
L33786 4050
L33835 4074
L33859 4099
L33884 4147
L33884 4196
L33859 4269
L33567 4562
L33884 4562
" />
</g>
<g style="fill:#000000; fill-opacity:0.0; 
stroke:#000000; stroke-width:39.3701; stroke-opacity:1; 
stroke-linecap:round; stroke-linejoin:round;">
</g>
<g style="fill:#000000; fill-opacity:0.0; 
stroke:#000000; stroke-width:59.0551; stroke-opacity:1; 
stroke-linecap:round; stroke-linejoin:round;">
<text x="53149.6" y="4586.61"
textLength="546.494" font-size="682.415" lengthAdjust="spacingAndGlyphs"
text-anchor="start" opacity="0">3</text>
<path d="M53252 4050
L53569 4050
L53398 4245
L53471 4245
L53520 4269
L53544 4294
L53569 4342
L53569 4464
L53544 4513
L53520 4537
L53471 4562
L53325 4562
L53276 4537
L53252 4513
" />
</g>
<g style="fill:#000000; fill-opacity:0.0; 
stroke:#000000; stroke-width:39.3701; stroke-opacity:1; 
stroke-linecap:round; stroke-linejoin:round;">
</g>
<g style="fill:#000000; fill-opacity:0.0; 
stroke:#000000; stroke-width:59.0551; stroke-opacity:1; 
stroke-linecap:round; stroke-linejoin:round;">
<text x="72834.6" y="4586.61"
textLength="546.494" font-size="682.415" lengthAdjust="spacingAndGlyphs"
text-anchor="start" opacity="0">4</text>
<path d="M73205 4221
L73205 4562
" />
<path d="M73083 4026
L72961 4391
L73278 4391
" />
</g>
<g style="fill:#000000; fill-opacity:0.0; 
stroke:#000000; stroke-width:39.3701; stroke-opacity:1; 
stroke-linecap:round; stroke-linejoin:round;">
</g>
<g style="fill:#000000; fill-opacity:0.0; 
stroke:#000000; stroke-width:59.0551; stroke-opacity:1; 
stroke-linecap:round; stroke-linejoin:round;">
<text x="92519.7" y="4586.61"
textLength="546.494" font-size="682.415" lengthAdjust="spacingAndGlyphs"
text-anchor="start" opacity="0">5</text>
<path d="M92914 4050
L92671 4050
L92646 4294
L92671 4269
L92719 4245
L92841 4245
L92890 4269
L92914 4294
L92939 4342
L92939 4464
L92914 4513
L92890 4537
L92841 4562
L92719 4562
L92671 4537
L92646 4513
" />
</g>
<g style="fill:#000000; fill-opacity:0.0; 
stroke:#000000; stroke-width:39.3701; stroke-opacity:1; 
stroke-linecap:round; stroke-linejoin:round;">
</g>
<g style="fill:#000000; fill-opacity:0.0; 
stroke:#000000; stroke-width:59.0551; stroke-opacity:1; 
stroke-linecap:round; stroke-linejoin:round;">
<text x="112205" y="4586.61"
textLength="546.494" font-size="682.415" lengthAdjust="spacingAndGlyphs"
text-anchor="start" opacity="0">6</text>
<path d="M112575 4050
L112477 4050
L112429 4074
L112404 4099
L112356 4172
L112331 4269
L112331 4464
L112356 4513
L112380 4537
L112429 4562
L112526 4562
L112575 4537
L112599 4513
L112624 4464
L112624 4342
L112599 4294
L112575 4269
L112526 4245
L112429 4245
L112380 4269
L112356 4294
L112331 4342
" />
</g>
<g style="fill:#000000; fill-opacity:0.0; 
stroke:#000000; stroke-width:39.3701; stroke-opacity:1; 
stroke-linecap:round; stroke-linejoin:round;">
</g>
<g style="fill:#000000; fill-opacity:0.0; 
stroke:#000000; stroke-width:59.0551; stroke-opacity:1; 
stroke-linecap:round; stroke-linejoin:round;">
<path d="M23622 77955
L23622 78742
" />
</g>
<g style="fill:#000000; fill-opacity:0.0; 
stroke:#000000; stroke-width:39.3701; stroke-opacity:1; 
stroke-linecap:round; stroke-linejoin:round;">
</g>
<g style="fill:#000000; fill-opacity:0.0; 
stroke:#000000; stroke-width:59.0551; stroke-opacity:1; 
stroke-linecap:round; stroke-linejoin:round;">
<path d="M43307 77955
L43307 78742
" />
</g>
<g style="fill:#000000; fill-opacity:0.0; 
stroke:#000000; stroke-width:39.3701; stroke-opacity:1; 
stroke-linecap:round; stroke-linejoin:round;">
</g>
<g style="fill:#000000; fill-opacity:0.0; 
stroke:#000000; stroke-width:59.0551; stroke-opacity:1; 
stroke-linecap:round; stroke-linejoin:round;">
<path d="M62992 77955
L62992 78742
" />
</g>
<g style="fill:#000000; fill-opacity:0.0; 
stroke:#000000; stroke-width:39.3701; stroke-opacity:1; 
stroke-linecap:round; stroke-linejoin:round;">
</g>
<g style="fill:#000000; fill-opacity:0.0; 
stroke:#000000; stroke-width:59.0551; stroke-opacity:1; 
stroke-linecap:round; stroke-linejoin:round;">
<path d="M82677 77955
L82677 78742
" />
</g>
<g style="fill:#000000; fill-opacity:0.0; 
stroke:#000000; stroke-width:39.3701; stroke-opacity:1; 
stroke-linecap:round; stroke-linejoin:round;">
</g>
<g style="fill:#000000; fill-opacity:0.0; 
stroke:#000000; stroke-width:59.0551; stroke-opacity:1; 
stroke-linecap:round; stroke-linejoin:round;">
<path d="M102362 77955
L102362 78742
" />
</g>
<g style="fill:#000000; fill-opacity:0.0; 
stroke:#000000; stroke-width:39.3701; stroke-opacity:1; 
stroke-linecap:round; stroke-linejoin:round;">
</g>
<g style="fill:#000000; fill-opacity:0.0; 
stroke:#000000; stroke-width:59.0551; stroke-opacity:1; 
stroke-linecap:round; stroke-linejoin:round;">
<text x="13779.5" y="78605.2"
textLength="546.494" font-size="682.415" lengthAdjust="spacingAndGlyphs"
text-anchor="start" opacity="0">1</text>
<path d="M14199 78580
L13906 78580
" />
<path d="M14052 78580
L14052 78069
L14004 78142
L13955 78190
L13906 78215
" />
</g>
<g style="fill:#000000; fill-opacity:0.0; 
stroke:#000000; stroke-width:39.3701; stroke-opacity:1; 
stroke-linecap:round; stroke-linejoin:round;">
</g>
<g style="fill:#000000; fill-opacity:0.0; 
stroke:#000000; stroke-width:59.0551; stroke-opacity:1; 
stroke-linecap:round; stroke-linejoin:round;">
<text x="33464.6" y="78605.2"
textLength="546.494" font-size="682.415" lengthAdjust="spacingAndGlyphs"
text-anchor="start" opacity="0">2</text>
<path d="M33591 78117
L33615 78093
L33664 78069
L33786 78069
L33835 78093
L33859 78117
L33884 78166
L33884 78215
L33859 78288
L33567 78580
L33884 78580
" />
</g>
<g style="fill:#000000; fill-opacity:0.0; 
stroke:#000000; stroke-width:39.3701; stroke-opacity:1; 
stroke-linecap:round; stroke-linejoin:round;">
</g>
<g style="fill:#000000; fill-opacity:0.0; 
stroke:#000000; stroke-width:59.0551; stroke-opacity:1; 
stroke-linecap:round; stroke-linejoin:round;">
<text x="53149.6" y="78605.2"
textLength="546.494" font-size="682.415" lengthAdjust="spacingAndGlyphs"
text-anchor="start" opacity="0">3</text>
<path d="M53252 78069
L53569 78069
L53398 78263
L53471 78263
L53520 78288
L53544 78312
L53569 78361
L53569 78483
L53544 78532
L53520 78556
L53471 78580
L53325 78580
L53276 78556
L53252 78532
" />
</g>
<g style="fill:#000000; fill-opacity:0.0; 
stroke:#000000; stroke-width:39.3701; stroke-opacity:1; 
stroke-linecap:round; stroke-linejoin:round;">
</g>
<g style="fill:#000000; fill-opacity:0.0; 
stroke:#000000; stroke-width:59.0551; stroke-opacity:1; 
stroke-linecap:round; stroke-linejoin:round;">
<text x="72834.6" y="78605.2"
textLength="546.494" font-size="682.415" lengthAdjust="spacingAndGlyphs"
text-anchor="start" opacity="0">4</text>
<path d="M73205 78239
L73205 78580
" />
<path d="M73083 78044
L72961 78410
L73278 78410
" />
</g>
<g style="fill:#000000; fill-opacity:0.0; 
stroke:#000000; stroke-width:39.3701; stroke-opacity:1; 
stroke-linecap:round; stroke-linejoin:round;">
</g>
<g style="fill:#000000; fill-opacity:0.0; 
stroke:#000000; stroke-width:59.0551; stroke-opacity:1; 
stroke-linecap:round; stroke-linejoin:round;">
<text x="92519.7" y="78605.2"
textLength="546.494" font-size="682.415" lengthAdjust="spacingAndGlyphs"
text-anchor="start" opacity="0">5</text>
<path d="M92914 78069
L92671 78069
L92646 78312
L92671 78288
L92719 78263
L92841 78263
L92890 78288
L92914 78312
L92939 78361
L92939 78483
L92914 78532
L92890 78556
L92841 78580
L92719 78580
L92671 78556
L92646 78532
" />
</g>
<g style="fill:#000000; fill-opacity:0.0; 
stroke:#000000; stroke-width:39.3701; stroke-opacity:1; 
stroke-linecap:round; stroke-linejoin:round;">
</g>
<g style="fill:#000000; fill-opacity:0.0; 
stroke:#000000; stroke-width:59.0551; stroke-opacity:1; 
stroke-linecap:round; stroke-linejoin:round;">
<text x="112205" y="78605.2"
textLength="546.494" font-size="682.415" lengthAdjust="spacingAndGlyphs"
text-anchor="start" opacity="0">6</text>
<path d="M112575 78069
L112477 78069
L112429 78093
L112404 78117
L112356 78190
L112331 78288
L112331 78483
L112356 78532
L112380 78556
L112429 78580
L112526 78580
L112575 78556
L112599 78532
L112624 78483
L112624 78361
L112599 78312
L112575 78288
L112526 78263
L112429 78263
L112380 78288
L112356 78312
L112331 78361
" />
</g>
<g style="fill:#000000; fill-opacity:0.0; 
stroke:#000000; stroke-width:39.3701; stroke-opacity:1; 
stroke-linecap:round; stroke-linejoin:round;">
</g>
<g style="fill:#000000; fill-opacity:0.0; 
stroke:#000000; stroke-width:59.0551; stroke-opacity:1; 
stroke-linecap:round; stroke-linejoin:round;">
<path d="M3937 23622
L4724 23622
" />
</g>
<g style="fill:#000000; fill-opacity:0.0; 
stroke:#000000; stroke-width:39.3701; stroke-opacity:1; 
stroke-linecap:round; stroke-linejoin:round;">
</g>
<g style="fill:#000000; fill-opacity:0.0; 
stroke:#000000; stroke-width:59.0551; stroke-opacity:1; 
stroke-linecap:round; stroke-linejoin:round;">
<path d="M3937 43307
L4724 43307
" />
</g>
<g style="fill:#000000; fill-opacity:0.0; 
stroke:#000000; stroke-width:39.3701; stroke-opacity:1; 
stroke-linecap:round; stroke-linejoin:round;">
</g>
<g style="fill:#000000; fill-opacity:0.0; 
stroke:#000000; stroke-width:59.0551; stroke-opacity:1; 
stroke-linecap:round; stroke-linejoin:round;">
<path d="M3937 62992
L4724 62992
" />
</g>
<g style="fill:#000000; fill-opacity:0.0; 
stroke:#000000; stroke-width:39.3701; stroke-opacity:1; 
stroke-linecap:round; stroke-linejoin:round;">
</g>
<g style="fill:#000000; fill-opacity:0.0; 
stroke:#000000; stroke-width:59.0551; stroke-opacity:1; 
stroke-linecap:round; stroke-linejoin:round;">
<text x="4330.71" y="14035.4"
textLength="497.75" font-size="682.415" lengthAdjust="spacingAndGlyphs"
text-anchor="middle" opacity="0">A</text>
<path d="M4208 13864
L4452 13864
" />
<path d="M4160 14011
L4330 13499
L4501 14011
" />
</g>
<g style="fill:#000000; fill-opacity:0.0; 
stroke:#000000; stroke-width:39.3701; stroke-opacity:1; 
stroke-linecap:round; stroke-linejoin:round;">
</g>
<g style="fill:#000000; fill-opacity:0.0; 
stroke:#000000; stroke-width:59.0551; stroke-opacity:1; 
stroke-linecap:round; stroke-linejoin:round;">
<text x="4330.71" y="33720.5"
textLength="570.866" font-size="682.415" lengthAdjust="spacingAndGlyphs"
text-anchor="middle" opacity="0">B</text>
<path d="M4367 33428
L4440 33452
L4464 33476
L4489 33525
L4489 33598
L4464 33647
L4440 33671
L4391 33696
L4196 33696
L4196 33184
L4367 33184
L4416 33208
L4440 33233
L4464 33281
L4464 33330
L4440 33379
L4416 33403
L4367 33428
L4196 33428
" />
</g>
<g style="fill:#000000; fill-opacity:0.0; 
stroke:#000000; stroke-width:39.3701; stroke-opacity:1; 
stroke-linecap:round; stroke-linejoin:round;">
</g>
<g style="fill:#000000; fill-opacity:0.0; 
stroke:#000000; stroke-width:59.0551; stroke-opacity:1; 
stroke-linecap:round; stroke-linejoin:round;">
<text x="4330.71" y="53405.5"
textLength="570.866" font-size="682.415" lengthAdjust="spacingAndGlyphs"
text-anchor="middle" opacity="0">C</text>
<path d="M4489 53332
L4464 53356
L4391 53381
L4342 53381
L4269 53356
L4221 53308
L4196 53259
L4172 53161
L4172 53088
L4196 52991
L4221 52942
L4269 52893
L4342 52869
L4391 52869
L4464 52893
L4489 52918
" />
</g>
<g style="fill:#000000; fill-opacity:0.0; 
stroke:#000000; stroke-width:39.3701; stroke-opacity:1; 
stroke-linecap:round; stroke-linejoin:round;">
</g>
<g style="fill:#000000; fill-opacity:0.0; 
stroke:#000000; stroke-width:59.0551; stroke-opacity:1; 
stroke-linecap:round; stroke-linejoin:round;">
<text x="4330.71" y="73090.6"
textLength="570.866" font-size="682.415" lengthAdjust="spacingAndGlyphs"
text-anchor="middle" opacity="0">D</text>
<path d="M4196 73066
L4196 72554
L4318 72554
L4391 72578
L4440 72627
L4464 72676
L4489 72773
L4489 72846
L4464 72944
L4440 72993
L4391 73041
L4318 73066
L4196 73066
" />
</g>
<g style="fill:#000000; fill-opacity:0.0; 
stroke:#000000; stroke-width:39.3701; stroke-opacity:1; 
stroke-linecap:round; stroke-linejoin:round;">
</g>
<g style="fill:#000000; fill-opacity:0.0; 
stroke:#000000; stroke-width:59.0551; stroke-opacity:1; 
stroke-linecap:round; stroke-linejoin:round;">
<path d="M112992 23622
L112205 23622
" />
</g>
<g style="fill:#000000; fill-opacity:0.0; 
stroke:#000000; stroke-width:39.3701; stroke-opacity:1; 
stroke-linecap:round; stroke-linejoin:round;">
</g>
<g style="fill:#000000; fill-opacity:0.0; 
stroke:#000000; stroke-width:59.0551; stroke-opacity:1; 
stroke-linecap:round; stroke-linejoin:round;">
<path d="M112992 43307
L112205 43307
" />
</g>
<g style="fill:#000000; fill-opacity:0.0; 
stroke:#000000; stroke-width:39.3701; stroke-opacity:1; 
stroke-linecap:round; stroke-linejoin:round;">
</g>
<g style="fill:#000000; fill-opacity:0.0; 
stroke:#000000; stroke-width:59.0551; stroke-opacity:1; 
stroke-linecap:round; stroke-linejoin:round;">
<path d="M112992 62992
L112205 62992
" />
</g>
<g style="fill:#000000; fill-opacity:0.0; 
stroke:#000000; stroke-width:39.3701; stroke-opacity:1; 
stroke-linecap:round; stroke-linejoin:round;">
</g>
<g style="fill:#000000; fill-opacity:0.0; 
stroke:#000000; stroke-width:59.0551; stroke-opacity:1; 
stroke-linecap:round; stroke-linejoin:round;">
<text x="112599" y="14035.4"
textLength="497.75" font-size="682.415" lengthAdjust="spacingAndGlyphs"
text-anchor="middle" opacity="0">A</text>
<path d="M112477 13864
L112721 13864
" />
<path d="M112428 14011
L112599 13499
L112769 14011
" />
</g>
<g style="fill:#000000; fill-opacity:0.0; 
stroke:#000000; stroke-width:39.3701; stroke-opacity:1; 
stroke-linecap:round; stroke-linejoin:round;">
</g>
<g style="fill:#000000; fill-opacity:0.0; 
stroke:#000000; stroke-width:59.0551; stroke-opacity:1; 
stroke-linecap:round; stroke-linejoin:round;">
<text x="112599" y="33720.5"
textLength="570.866" font-size="682.415" lengthAdjust="spacingAndGlyphs"
text-anchor="middle" opacity="0">B</text>
<path d="M112635 33428
L112708 33452
L112733 33476
L112757 33525
L112757 33598
L112733 33647
L112708 33671
L112660 33696
L112465 33696
L112465 33184
L112635 33184
L112684 33208
L112708 33233
L112733 33281
L112733 33330
L112708 33379
L112684 33403
L112635 33428
L112465 33428
" />
</g>
<g style="fill:#000000; fill-opacity:0.0; 
stroke:#000000; stroke-width:39.3701; stroke-opacity:1; 
stroke-linecap:round; stroke-linejoin:round;">
</g>
<g style="fill:#000000; fill-opacity:0.0; 
stroke:#000000; stroke-width:59.0551; stroke-opacity:1; 
stroke-linecap:round; stroke-linejoin:round;">
<text x="112599" y="53405.5"
textLength="570.866" font-size="682.415" lengthAdjust="spacingAndGlyphs"
text-anchor="middle" opacity="0">C</text>
<path d="M112757 53332
L112733 53356
L112660 53381
L112611 53381
L112538 53356
L112489 53308
L112465 53259
L112440 53161
L112440 53088
L112465 52991
L112489 52942
L112538 52893
L112611 52869
L112660 52869
L112733 52893
L112757 52918
" />
</g>
<g style="fill:#000000; fill-opacity:0.0; 
stroke:#000000; stroke-width:39.3701; stroke-opacity:1; 
stroke-linecap:round; stroke-linejoin:round;">
</g>
<g style="fill:#000000; fill-opacity:0.0; 
stroke:#000000; stroke-width:59.0551; stroke-opacity:1; 
stroke-linecap:round; stroke-linejoin:round;">
<text x="112599" y="73090.6"
textLength="570.866" font-size="682.415" lengthAdjust="spacingAndGlyphs"
text-anchor="middle" opacity="0">D</text>
<path d="M112465 73066
L112465 72554
L112587 72554
L112660 72578
L112708 72627
L112733 72676
L112757 72773
L112757 72846
L112733 72944
L112708 72993
L112660 73041
L112587 73066
L112465 73066
" />
</g>
<g style="fill:#000000; fill-opacity:0.0; 
stroke:#000000; stroke-width:39.3701; stroke-opacity:1; 
stroke-linecap:round; stroke-linejoin:round;">
</g>
<g style="fill:#000000; fill-opacity:0.0; 
stroke:#000000; stroke-width:59.0551; stroke-opacity:1; 
stroke-linecap:round; stroke-linejoin:round;">
<text x="78741" y="76321.7"
textLength="2758.72" font-size="787.402" lengthAdjust="spacingAndGlyphs"
text-anchor="start" opacity="0">Date: </text>
<path d="M78911 76293
L78911 75703
L79051 75703
L79136 75731
L79192 75787
L79220 75843
L79248 75956
L79248 76040
L79220 76153
L79192 76209
L79136 76265
L79051 76293
L78911 76293
" />
<path d="M79754 76293
L79754 75984
L79726 75928
L79670 75899
L79557 75899
L79501 75928
" />
<path d="M79754 76265
L79698 76293
L79557 76293
L79501 76265
L79473 76209
L79473 76153
L79501 76096
L79557 76068
L79698 76068
L79754 76040
" />
<path d="M79951 75899
L80176 75899
" />
<path d="M80036 75703
L80036 76209
L80064 76265
L80120 76293
L80176 76293
" />
<path d="M80598 76265
L80542 76293
L80429 76293
L80373 76265
L80345 76209
L80345 75984
L80373 75928
L80429 75899
L80542 75899
L80598 75928
L80626 75984
L80626 76040
L80345 76096
" />
<path d="M80879 76237
L80907 76265
L80879 76293
L80851 76265
L80879 76237
L80879 76293
" />
<path d="M80879 75928
L80907 75956
L80879 75984
L80851 75956
L80879 75928
L80879 75984
" />
</g>
<g style="fill:#000000; fill-opacity:0.0; 
stroke:#000000; stroke-width:39.3701; stroke-opacity:1; 
stroke-linecap:round; stroke-linejoin:round;">
</g>
<g style="fill:#000000; fill-opacity:0.0; 
stroke:#000000; stroke-width:59.0551; stroke-opacity:1; 
stroke-linecap:round; stroke-linejoin:round;">
<path d="M69685 76577
L112205 76577
" />
</g>
<g style="fill:#000000; fill-opacity:0.0; 
stroke:#000000; stroke-width:39.3701; stroke-opacity:1; 
stroke-linecap:round; stroke-linejoin:round;">
</g>
<g style="fill:#000000; fill-opacity:0.0; 
stroke:#000000; stroke-width:59.0551; stroke-opacity:1; 
stroke-linecap:round; stroke-linejoin:round;">
<text x="70079.6" y="77424.1"
textLength="14991.6" font-size="787.402" lengthAdjust="spacingAndGlyphs"
text-anchor="start" opacity="0">KiCad E.D.A.  kicad 5.1.8-5.fc33</text>
<path d="M70249 77395
L70249 76805
" />
<path d="M70587 77395
L70334 77058
" />
<path d="M70587 76805
L70249 77142
" />
<path d="M70840 77395
L70840 77002
" />
<path d="M70840 76805
L70812 76833
L70840 76861
L70868 76833
L70840 76805
L70840 76861
" />
<path d="M71458 77339
L71430 77367
L71346 77395
L71290 77395
L71205 77367
L71149 77311
L71121 77255
L71093 77142
L71093 77058
L71121 76946
L71149 76889
L71205 76833
L71290 76805
L71346 76805
L71430 76833
L71458 76861
" />
<path d="M71965 77395
L71965 77086
L71937 77030
L71880 77002
L71768 77002
L71712 77030
" />
<path d="M71965 77367
L71908 77395
L71768 77395
L71712 77367
L71683 77311
L71683 77255
L71712 77199
L71768 77171
L71908 77171
L71965 77142
" />
<path d="M72499 77395
L72499 76805
" />
<path d="M72499 77367
L72443 77395
L72330 77395
L72274 77367
L72246 77339
L72218 77283
L72218 77114
L72246 77058
L72274 77030
L72330 77002
L72443 77002
L72499 77030
" />
<path d="M73230 77086
L73427 77086
" />
<path d="M73511 77395
L73230 77395
L73230 76805
L73511 76805
" />
<path d="M73764 77339
L73793 77367
L73764 77395
L73736 77367
L73764 77339
L73764 77395
" />
<path d="M74046 77395
L74046 76805
L74186 76805
L74271 76833
L74327 76889
L74355 76946
L74383 77058
L74383 77142
L74355 77255
L74327 77311
L74271 77367
L74186 77395
L74046 77395
" />
<path d="M74636 77339
L74664 77367
L74636 77395
L74608 77367
L74636 77339
L74636 77395
" />
<path d="M74889 77227
L75171 77227
" />
<path d="M74833 77395
L75030 76805
L75227 77395
" />
<path d="M75424 77339
L75452 77367
L75424 77395
L75395 77367
L75424 77339
L75424 77395
" />
<path d="M76605 77395
L76605 76805
" />
<path d="M76661 77171
L76830 77395
" />
<path d="M76830 77002
L76605 77227
" />
<path d="M77083 77395
L77083 77002
" />
<path d="M77083 76805
L77055 76833
L77083 76861
L77111 76833
L77083 76805
L77083 76861
" />
<path d="M77617 77367
L77561 77395
L77448 77395
L77392 77367
L77364 77339
L77336 77283
L77336 77114
L77364 77058
L77392 77030
L77448 77002
L77561 77002
L77617 77030
" />
<path d="M78123 77395
L78123 77086
L78095 77030
L78039 77002
L77926 77002
L77870 77030
" />
<path d="M78123 77367
L78067 77395
L77926 77395
L77870 77367
L77842 77311
L77842 77255
L77870 77199
L77926 77171
L78067 77171
L78123 77142
" />
<path d="M78658 77395
L78658 76805
" />
<path d="M78658 77367
L78601 77395
L78489 77395
L78433 77367
L78404 77339
L78376 77283
L78376 77114
L78404 77058
L78433 77030
L78489 77002
L78601 77002
L78658 77030
" />
<path d="M79670 76805
L79389 76805
L79361 77086
L79389 77058
L79445 77030
L79586 77030
L79642 77058
L79670 77086
L79698 77142
L79698 77283
L79670 77339
L79642 77367
L79586 77395
L79445 77395
L79389 77367
L79361 77339
" />
<path d="M79951 77339
L79979 77367
L79951 77395
L79923 77367
L79951 77339
L79951 77395
" />
<path d="M80542 77395
L80204 77395
" />
<path d="M80373 77395
L80373 76805
L80317 76889
L80260 76946
L80204 76974
" />
<path d="M80795 77339
L80823 77367
L80795 77395
L80767 77367
L80795 77339
L80795 77395
" />
<path d="M81160 77058
L81104 77030
L81076 77002
L81048 76946
L81048 76917
L81076 76861
L81104 76833
L81160 76805
L81273 76805
L81329 76833
L81357 76861
L81385 76917
L81385 76946
L81357 77002
L81329 77030
L81273 77058
L81160 77058
L81104 77086
L81076 77114
L81048 77171
L81048 77283
L81076 77339
L81104 77367
L81160 77395
L81273 77395
L81329 77367
L81357 77339
L81385 77283
L81385 77171
L81357 77114
L81329 77086
L81273 77058
" />
<path d="M81638 77171
L82088 77171
" />
<path d="M82651 76805
L82370 76805
L82341 77086
L82370 77058
L82426 77030
L82566 77030
L82623 77058
L82651 77086
L82679 77142
L82679 77283
L82651 77339
L82623 77367
L82566 77395
L82426 77395
L82370 77367
L82341 77339
" />
<path d="M82932 77339
L82960 77367
L82932 77395
L82904 77367
L82932 77339
L82932 77395
" />
<path d="M83129 77002
L83354 77002
" />
<path d="M83213 77395
L83213 76889
L83241 76833
L83298 76805
L83354 76805
" />
<path d="M83804 77367
L83748 77395
L83635 77395
L83579 77367
L83551 77339
L83523 77283
L83523 77114
L83551 77058
L83579 77030
L83635 77002
L83748 77002
L83804 77030
" />
<path d="M84001 76805
L84366 76805
L84169 77030
L84254 77030
L84310 77058
L84338 77086
L84366 77142
L84366 77283
L84338 77339
L84310 77367
L84254 77395
L84085 77395
L84029 77367
L84001 77339
" />
<path d="M84563 76805
L84929 76805
L84732 77030
L84816 77030
L84872 77058
L84901 77086
L84929 77142
L84929 77283
L84901 77339
L84872 77367
L84816 77395
L84647 77395
L84591 77367
L84563 77339
" />
</g>
<g style="fill:#000000; fill-opacity:0.0; 
stroke:#000000; stroke-width:39.3701; stroke-opacity:1; 
stroke-linecap:round; stroke-linejoin:round;">
</g>
<g style="fill:#000000; fill-opacity:0.0; 
stroke:#000000; stroke-width:59.0551; stroke-opacity:1; 
stroke-linecap:round; stroke-linejoin:round;">
<path d="M69685 75396
L112205 75396
" />
</g>
<g style="fill:#000000; fill-opacity:0.0; 
stroke:#000000; stroke-width:39.3701; stroke-opacity:1; 
stroke-linecap:round; stroke-linejoin:round;">
</g>
<g style="fill:#000000; fill-opacity:0.0; 
stroke:#000000; stroke-width:118.11; stroke-opacity:1; 
stroke-linecap:round; stroke-linejoin:round;">
<text x="103544" y="76321.7"
textLength="2336.9" font-size="787.402" lengthAdjust="spacingAndGlyphs"
text-anchor="start" opacity="0">Rev: </text>
<path d="M104099 76293
L103902 76012
" />
<path d="M103761 76293
L103761 75703
L103986 75703
L104042 75731
L104070 75759
L104099 75815
L104099 75899
L104070 75956
L104042 75984
L103986 76012
L103761 76012
" />
<path d="M104577 76265
L104520 76293
L104408 76293
L104352 76265
L104323 76209
L104323 75984
L104352 75928
L104408 75899
L104520 75899
L104577 75928
L104605 75984
L104605 76040
L104323 76096
" />
<path d="M104802 75899
L104942 76293
L105083 75899
" />
<path d="M105308 76237
L105336 76265
L105308 76293
L105280 76265
L105308 76237
L105308 76293
" />
<path d="M105308 75928
L105336 75956
L105308 75984
L105280 75956
L105308 75928
L105308 75984
" />
</g>
<g style="fill:#000000; fill-opacity:0.0; 
stroke:#000000; stroke-width:39.3701; stroke-opacity:1; 
stroke-linecap:round; stroke-linejoin:round;">
</g>
<g style="fill:#000000; fill-opacity:0.0; 
stroke:#000000; stroke-width:59.0551; stroke-opacity:1; 
stroke-linecap:round; stroke-linejoin:round;">
<text x="70079.6" y="76321.7"
textLength="3781.21" font-size="787.402" lengthAdjust="spacingAndGlyphs"
text-anchor="start" opacity="0">Size: A4</text>
<path d="M70221 76265
L70305 76293
L70446 76293
L70502 76265
L70530 76237
L70559 76181
L70559 76124
L70530 76068
L70502 76040
L70446 76012
L70334 75984
L70277 75956
L70249 75928
L70221 75871
L70221 75815
L70249 75759
L70277 75731
L70334 75703
L70474 75703
L70559 75731
" />
<path d="M70812 76293
L70812 75899
" />
<path d="M70812 75703
L70784 75731
L70812 75759
L70840 75731
L70812 75703
L70812 75759
" />
<path d="M71037 75899
L71346 75899
L71037 76293
L71346 76293
" />
<path d="M71796 76265
L71740 76293
L71627 76293
L71571 76265
L71543 76209
L71543 75984
L71571 75928
L71627 75899
L71740 75899
L71796 75928
L71824 75984
L71824 76040
L71543 76096
" />
<path d="M72077 76237
L72105 76265
L72077 76293
L72049 76265
L72077 76237
L72077 76293
" />
<path d="M72077 75928
L72105 75956
L72077 75984
L72049 75956
L72077 75928
L72077 75984
" />
<path d="M72780 76124
L73061 76124
" />
<path d="M72724 76293
L72921 75703
L73118 76293
" />
<path d="M73568 75899
L73568 76293
" />
<path d="M73427 75674
L73286 76096
L73652 76096
" />
</g>
<g style="fill:#000000; fill-opacity:0.0; 
stroke:#000000; stroke-width:39.3701; stroke-opacity:1; 
stroke-linecap:round; stroke-linejoin:round;">
</g>
<g style="fill:#000000; fill-opacity:0.0; 
stroke:#000000; stroke-width:59.0551; stroke-opacity:1; 
stroke-linecap:round; stroke-linejoin:round;">
<text x="103544" y="77424.1"
textLength="3349.27" font-size="787.402" lengthAdjust="spacingAndGlyphs"
text-anchor="start" opacity="0">Id: 1/1</text>
<path d="M103714 77395
L103714 76805
" />
<path d="M104248 77395
L104248 76805
" />
<path d="M104248 77367
L104192 77395
L104079 77395
L104023 77367
L103995 77339
L103967 77283
L103967 77114
L103995 77058
L104023 77030
L104079 77002
L104192 77002
L104248 77030
" />
<path d="M104529 77339
L104557 77367
L104529 77395
L104501 77367
L104529 77339
L104529 77395
" />
<path d="M104529 77030
L104557 77058
L104529 77086
L104501 77058
L104529 77030
L104529 77086
" />
<path d="M105570 77395
L105232 77395
" />
<path d="M105401 77395
L105401 76805
L105345 76889
L105289 76946
L105232 76974
" />
<path d="M106245 76777
L105739 77536
" />
<path d="M106751 77395
L106413 77395
" />
<path d="M106582 77395
L106582 76805
L106526 76889
L106470 76946
L106413 76974
" />
</g>
<g style="fill:#000000; fill-opacity:0.0; 
stroke:#000000; stroke-width:39.3701; stroke-opacity:1; 
stroke-linecap:round; stroke-linejoin:round;">
</g>
<g style="fill:#000000; fill-opacity:0.0; 
stroke:#000000; stroke-width:59.0551; stroke-opacity:1; 
stroke-linecap:round; stroke-linejoin:round;">
<path d="M69685 73821
L112205 73821
" />
</g>
<g style="fill:#000000; fill-opacity:0.0; 
stroke:#000000; stroke-width:39.3701; stroke-opacity:1; 
stroke-linecap:round; stroke-linejoin:round;">
</g>
<g style="fill:#000000; fill-opacity:0.0; 
stroke:#000000; stroke-width:157.48; stroke-opacity:1; 
stroke-linecap:round; stroke-linejoin:round;">
<text x="70079.6" y="74924.1"
textLength="3701.14" font-size="1049.87" lengthAdjust="spacingAndGlyphs"
text-anchor="start" opacity="0">Title: </text>
<path d="M70360 74099
L70810 74099
" />
<path d="M70486 74886
L70585 74099
" />
<path d="M70974 74886
L71039 74361
" />
<path d="M71072 74099
L71030 74136
L71063 74174
L71105 74136
L71072 74099
L71063 74174
" />
<path d="M71302 74361
L71602 74361
" />
<path d="M71447 74099
L71363 74774
L71391 74849
L71461 74886
L71536 74886
" />
<path d="M71911 74886
L71841 74849
L71813 74774
L71897 74099
" />
<path d="M72516 74849
L72436 74886
L72286 74886
L72216 74849
L72187 74774
L72225 74474
L72272 74399
L72352 74361
L72501 74361
L72572 74399
L72600 74474
L72591 74549
L72206 74624
" />
<path d="M72895 74811
L72928 74849
L72886 74886
L72853 74849
L72895 74811
L72886 74886
" />
<path d="M72947 74399
L72980 74436
L72937 74474
L72905 74436
L72947 74399
L72937 74474
" />
</g>
<g style="fill:#000000; fill-opacity:0.0; 
stroke:#000000; stroke-width:39.3701; stroke-opacity:1; 
stroke-linecap:round; stroke-linejoin:round;">
</g>
<g style="fill:#000000; fill-opacity:0.0; 
stroke:#000000; stroke-width:59.0551; stroke-opacity:1; 
stroke-linecap:round; stroke-linejoin:round;">
<text x="70079.6" y="73408.3"
textLength="12184.5" font-size="787.402" lengthAdjust="spacingAndGlyphs"
text-anchor="start" opacity="0">File: PNN_PS_01.kicad_pcb</text>
<path d="M70446 73070
L70249 73070
" />
<path d="M70249 73380
L70249 72789
L70530 72789
" />
<path d="M70755 73380
L70755 72986
" />
<path d="M70755 72789
L70727 72817
L70755 72845
L70784 72817
L70755 72789
L70755 72845
" />
<path d="M71121 73380
L71065 73352
L71037 73295
L71037 72789
" />
<path d="M71571 73352
L71515 73380
L71402 73380
L71346 73352
L71318 73295
L71318 73070
L71346 73014
L71402 72986
L71515 72986
L71571 73014
L71599 73070
L71599 73127
L71318 73183
" />
<path d="M71852 73323
L71880 73352
L71852 73380
L71824 73352
L71852 73323
L71852 73380
" />
<path d="M71852 73014
L71880 73042
L71852 73070
L71824 73042
L71852 73014
L71852 73070
" />
<path d="M72583 73380
L72583 72789
L72808 72789
L72865 72817
L72893 72845
L72921 72902
L72921 72986
L72893 73042
L72865 73070
L72808 73099
L72583 73099
" />
<path d="M73174 73380
L73174 72789
L73511 73380
L73511 72789
" />
<path d="M73793 73380
L73793 72789
L74130 73380
L74130 72789
" />
<path d="M74271 73436
L74721 73436
" />
<path d="M74861 73380
L74861 72789
L75086 72789
L75142 72817
L75171 72845
L75199 72902
L75199 72986
L75171 73042
L75142 73070
L75086 73099
L74861 73099
" />
<path d="M75424 73352
L75508 73380
L75649 73380
L75705 73352
L75733 73323
L75761 73267
L75761 73211
L75733 73155
L75705 73127
L75649 73099
L75536 73070
L75480 73042
L75452 73014
L75424 72958
L75424 72902
L75452 72845
L75480 72817
L75536 72789
L75677 72789
L75761 72817
" />
<path d="M75874 73436
L76323 73436
" />
<path d="M76577 72789
L76633 72789
L76689 72817
L76717 72845
L76745 72902
L76773 73014
L76773 73155
L76745 73267
L76717 73323
L76689 73352
L76633 73380
L76577 73380
L76520 73352
L76492 73323
L76464 73267
L76436 73155
L76436 73014
L76464 72902
L76492 72845
L76520 72817
L76577 72789
" />
<path d="M77336 73380
L76998 73380
" />
<path d="M77167 73380
L77167 72789
L77111 72874
L77055 72930
L76998 72958
" />
<path d="M77589 73323
L77617 73352
L77589 73380
L77561 73352
L77589 73323
L77589 73380
" />
<path d="M77870 73380
L77870 72789
" />
<path d="M77926 73155
L78095 73380
" />
<path d="M78095 72986
L77870 73211
" />
<path d="M78348 73380
L78348 72986
" />
<path d="M78348 72789
L78320 72817
L78348 72845
L78376 72817
L78348 72789
L78348 72845
" />
<path d="M78883 73352
L78826 73380
L78714 73380
L78658 73352
L78629 73323
L78601 73267
L78601 73099
L78629 73042
L78658 73014
L78714 72986
L78826 72986
L78883 73014
" />
<path d="M79389 73380
L79389 73070
L79361 73014
L79304 72986
L79192 72986
L79136 73014
" />
<path d="M79389 73352
L79332 73380
L79192 73380
L79136 73352
L79108 73295
L79108 73239
L79136 73183
L79192 73155
L79332 73155
L79389 73127
" />
<path d="M79923 73380
L79923 72789
" />
<path d="M79923 73352
L79867 73380
L79754 73380
L79698 73352
L79670 73323
L79642 73267
L79642 73099
L79670 73042
L79698 73014
L79754 72986
L79867 72986
L79923 73014
" />
<path d="M80064 73436
L80514 73436
" />
<path d="M80654 72986
L80654 73577
" />
<path d="M80654 73014
L80710 72986
L80823 72986
L80879 73014
L80907 73042
L80935 73099
L80935 73267
L80907 73323
L80879 73352
L80823 73380
L80710 73380
L80654 73352
" />
<path d="M81442 73352
L81385 73380
L81273 73380
L81217 73352
L81188 73323
L81160 73267
L81160 73099
L81188 73042
L81217 73014
L81273 72986
L81385 72986
L81442 73014
" />
<path d="M81695 73380
L81695 72789
" />
<path d="M81695 73014
L81751 72986
L81863 72986
L81920 73014
L81948 73042
L81976 73099
L81976 73267
L81948 73323
L81920 73352
L81863 73380
L81751 73380
L81695 73352
" />
</g>
<g style="fill:#000000; fill-opacity:0.0; 
stroke:#000000; stroke-width:39.3701; stroke-opacity:1; 
stroke-linecap:round; stroke-linejoin:round;">
</g>
<g style="fill:#000000; fill-opacity:0.0; 
stroke:#000000; stroke-width:59.0551; stroke-opacity:1; 
stroke-linecap:round; stroke-linejoin:round;">
<path d="M69685 71459
L112205 71459
" />
</g>
<g style="fill:#000000; fill-opacity:0.0; 
stroke:#000000; stroke-width:39.3701; stroke-opacity:1; 
stroke-linecap:round; stroke-linejoin:round;">
</g>
<g style="fill:#000000; fill-opacity:0.0; 
stroke:#000000; stroke-width:59.0551; stroke-opacity:1; 
stroke-linecap:round; stroke-linejoin:round;">
<text x="70079.6" y="72345.4"
textLength="3236.78" font-size="787.402" lengthAdjust="spacingAndGlyphs"
text-anchor="start" opacity="0">Sheet: </text>
<path d="M70221 72289
L70305 72317
L70446 72317
L70502 72289
L70530 72260
L70559 72204
L70559 72148
L70530 72092
L70502 72064
L70446 72036
L70334 72007
L70277 71979
L70249 71951
L70221 71895
L70221 71839
L70249 71782
L70277 71754
L70334 71726
L70474 71726
L70559 71754
" />
<path d="M70812 72317
L70812 71726
" />
<path d="M71065 72317
L71065 72007
L71037 71951
L70980 71923
L70896 71923
L70840 71951
L70812 71979
" />
<path d="M71571 72289
L71515 72317
L71402 72317
L71346 72289
L71318 72232
L71318 72007
L71346 71951
L71402 71923
L71515 71923
L71571 71951
L71599 72007
L71599 72064
L71318 72120
" />
<path d="M72077 72289
L72021 72317
L71908 72317
L71852 72289
L71824 72232
L71824 72007
L71852 71951
L71908 71923
L72021 71923
L72077 71951
L72105 72007
L72105 72064
L71824 72120
" />
<path d="M72274 71923
L72499 71923
" />
<path d="M72358 71726
L72358 72232
L72386 72289
L72443 72317
L72499 72317
" />
<path d="M72696 72260
L72724 72289
L72696 72317
L72668 72289
L72696 72260
L72696 72317
" />
<path d="M72696 71951
L72724 71979
L72696 72007
L72668 71979
L72696 71951
L72696 72007
" />
</g>
<g style="fill:#000000; fill-opacity:0.0; 
stroke:#000000; stroke-width:39.3701; stroke-opacity:1; 
stroke-linecap:round; stroke-linejoin:round;">
</g>
<g style="fill:#000000; fill-opacity:0.0; 
stroke:#000000; stroke-width:59.0551; stroke-opacity:1; 
stroke-linecap:round; stroke-linejoin:round;">
<path d="M77559 75396
L77559 76577
" />
</g>
<g style="fill:#000000; fill-opacity:0.0; 
stroke:#000000; stroke-width:39.3701; stroke-opacity:1; 
stroke-linecap:round; stroke-linejoin:round;">
</g>
<g style="fill:#000000; fill-opacity:0.0; 
stroke:#000000; stroke-width:59.0551; stroke-opacity:1; 
stroke-linecap:round; stroke-linejoin:round;">
<path d="M102756 75396
L102756 77955
" />
</g>
<g style="fill:#848484; fill-opacity:0.0; 
stroke:#848484; stroke-width:59.0551; stroke-opacity:1; 
stroke-linecap:round; stroke-linejoin:round;">
</g>
<g style="fill:#848484; fill-opacity:0.0; 
stroke:#848484; stroke-width:39.3701; stroke-opacity:1; 
stroke-linecap:round; stroke-linejoin:round;">
<path d="M28461 24814
L28461 26192
" />
<path d="M30126.4 25500 A976.378 976.378 0.0 0 0 28459.6 24809.6" />
<path d="M28459.6 26190.4 A976.378 976.378 0.0 0 0 30126.4 25500" />
<path d="M26863 24609
L27336 24609
" />
<path d="M27336 24609
L27336 25397
" />
<path d="M27336 25397
L26863 25397
" />
<path d="M26863 25397
L26863 24609
" />
<path d="M52220 25475
L53074 25476
" />
<path d="M52220 25475
L53074 25476
" />
<path d="M54048 25975
L54048 22224
" />
<path d="M52147 25975
L54048 25975
" />
<path d="M52147 22224
L52147 25975
" />
<path d="M54048 22224
L52147 22224
" />
<circle cx="52647.2" cy="25476" r="431.102" /> 
<path d="M51314 21870
L51314 23129
" />
<path d="M50685 21870
L51314 21870
" />
<path d="M50685 23129
L50685 21870
" />
<path d="M51314 23129
L50685 23129
" />
<path d="M51314 25070
L51314 26329
" />
<path d="M50685 25070
L51314 25070
" />
<path d="M50685 26329
L50685 25070
" />
<path d="M51314 26329
L50685 26329
" />
<path d="M29793 28446
L29006 28446
" />
<path d="M29793 27953
L29793 28446
" />
<path d="M29006 27953
L29793 27953
" />
<path d="M29006 28446
L29006 27953
" />
<path d="M29693 29436
L28906 29436
" />
<path d="M29693 28963
L29693 29436
" />
<path d="M28906 28963
L29693 28963
" />
<path d="M28906 29436
L28906 28963
" />
<path d="M41003 30762
L40503 30762
" />
<path d="M41003 29305
L40503 29305
" />
<path d="M40503 28065
L40503 32002
" />
<path d="M41003 32002
L41003 28065
" />
<path d="M39270 32002
L41003 32002
" />
<path d="M39270 28065
L39270 32002
" />
<path d="M41003 28065
L39270 28065
" />
<path d="M41975 29288
L42475 29288
" />
<path d="M41975 30745
L42475 30745
" />
<path d="M42475 31985
L42475 28048
" />
<path d="M41975 28048
L41975 31985
" />
<path d="M43708 28048
L41975 28048
" />
<path d="M43708 31985
L43708 28048
" />
<path d="M41975 31985
L43708 31985
" />
<circle cx="55800" cy="22400" r="1240.16" /> 
<path d="M54500 21100
L57099 21100
" />
<path d="M54500 23305
L54500 21100
" />
<path d="M57099 23305
L57099 21100
" />
<path d="M54894 23699
L56705 23699
" />
<path d="M54894 23699
L54500 23305
" />
<path d="M56705 23699
L57099 23305
" />
<circle cx="48200" cy="33600" r="1574.8" /> 
<path d="M46566 31966
L49833 31966
" />
<path d="M46566 34840
L46566 31966
" />
<path d="M49833 34840
L49833 31966
" />
<path d="M46959 35233
L49440 35233
" />
<path d="M46959 35233
L46566 34840
" />
<path d="M49440 35233
L49833 34840
" />
<path d="M39263 21893
L39263 21106
" />
<path d="M39736 21893
L39263 21893
" />
<path d="M39736 21106
L39736 21893
" />
<path d="M39263 21106
L39736 21106
" />
<path d="M56705 27599
L57099 27205
" />
<path d="M54894 27599
L54500 27205
" />
<path d="M54894 27599
L56705 27599
" />
<path d="M57099 27205
L57099 25000
" />
<path d="M54500 27205
L54500 25000
" />
<path d="M54500 25000
L57099 25000
" />
<circle cx="55800" cy="26300" r="1240.16" /> 
<path d="M38236 21890
L37763 21890
" />
<path d="M37763 21890
L37763 21102
" />
<path d="M37763 21102
L38236 21102
" />
<path d="M38236 21102
L38236 21890
" />
<path d="M49440 30233
L49833 29840
" />
<path d="M46959 30233
L46566 29840
" />
<path d="M46959 30233
L49440 30233
" />
<path d="M49833 29840
L49833 26966
" />
<path d="M46566 29840
L46566 26966
" />
<path d="M46566 26966
L49833 26966
" />
<circle cx="48200" cy="28600" r="1574.8" /> 
<path d="M33767 28114
L32034 28114
" />
<path d="M32034 28114
L32034 32051
" />
<path d="M32034 32051
L33767 32051
" />
<path d="M33767 32051
L33767 28114
" />
<path d="M33267 28114
L33267 32051
" />
<path d="M33767 29354
L33267 29354
" />
<path d="M33767 30811
L33267 30811
" />
<path d="M34663 29383
L35163 29383
" />
<path d="M34663 30840
L35163 30840
" />
<path d="M35163 32080
L35163 28143
" />
<path d="M34663 28143
L34663 32080
" />
<path d="M36396 28143
L34663 28143
" />
<path d="M36396 32080
L36396 28143
" />
<path d="M34663 32080
L36396 32080
" />
<path d="M50236 25506
L50236 26293
" />
<path d="M49763 25506
L50236 25506
" />
<path d="M49763 26293
L49763 25506
" />
<path d="M50236 26293
L49763 26293
" />
<path d="M50236 22693
L49763 22693
" />
<path d="M49763 22693
L49763 21906
" />
<path d="M49763 21906
L50236 21906
" />
<path d="M50236 21906
L50236 22693
" />
<path d="M34936 21897
L34463 21897
" />
<path d="M34463 21897
L34463 21109
" />
<path d="M34463 21109
L34936 21109
" />
<path d="M34936 21109
L34936 21897
" />
<path d="M48052 24924
L47668 25308
" />
<path d="M48052 23379
L48052 24924
" />
<path d="M46516 23379
L48052 23379
" />
<path d="M46516 25308
L46516 23379
" />
<path d="M47668 25308
L46516 25308
" />
<circle cx="41855.9" cy="21972.4" r="295.276" /> 
<path d="M40911 22444
L42288 22444
" />
<path d="M42288 22444
L42288 20555
" />
<path d="M42288 20555
L40911 20555
" />
<path d="M40911 20555
L40911 22444
" />
<path d="M42148 21972
L41563 21972
" />
<path d="M42148 21972
L41563 21972
" />
<path d="M36836 21657
L36363 21657
" />
<path d="M36363 21657
L36363 21342
" />
<path d="M36363 21342
L36718 21342
" />
<path d="M36718 21342
L36836 21460
" />
<path d="M36836 21460
L36836 21657
" />
<path d="M35549 23160
L34604 24144
" />
<path d="M33950 29350
L34550 29350
" />
<path d="M36809 23160
L35650 25300
" />
<path d="M35650 25300
L36809 25030
" />
<path d="M36809 26900
L36809 26703
" />
<path d="M35250 24050
L35549 23160
" />
<path d="M36809 23160
L35250 24050
" />
<path d="M35300 26050
L36809 25030
" />
<path d="M36809 26703
L35300 26050
" />
<path d="M34550 30050
L34550 26900
" />
<path d="M34550 26900
L36809 26900
" />
<path d="M32950 23160
L33895 24144
" />
<path d="M33250 24050
L32950 23160
" />
<path d="M31690 23160
L33250 24050
" />
<path d="M31690 23160
L32850 25300
" />
<path d="M32850 25300
L31690 25030
" />
<path d="M33200 26050
L31690 25030
" />
<path d="M31690 26703
L33200 26050
" />
<path d="M31690 26900
L31690 26703
" />
<path d="M33950 26900
L31690 26900
" />
<path d="M33950 30050
L33950 26900
" />
<path d="M35549 36939
L34604 35955
" />
<path d="M32950 36939
L33895 35955
" />
<path d="M35250 36050
L35549 36939
" />
<path d="M31690 36939
L33250 36050
" />
<path d="M33250 36050
L32950 36939
" />
<path d="M31690 36939
L32850 34800
" />
<path d="M35300 34050
L36809 35069
" />
<path d="M35650 34800
L36809 35069
" />
<path d="M36809 33199
L36809 33396
" />
<path d="M34550 33200
L36809 33199
" />
<path d="M36809 33396
L35300 34050
" />
<path d="M36809 36939
L35250 36050
" />
<path d="M36809 36939
L35650 34800
" />
<path d="M34550 30050
L34550 33200
" />
<path d="M33950 30050
L33950 33200
" />
<path d="M34550 30750
L33950 30750
" />
<path d="M33950 33200
L31690 33199
" />
<path d="M31690 33199
L31690 33396
" />
<path d="M31690 33396
L33200 34050
" />
<path d="M32850 34800
L31690 35069
" />
<path d="M33200 34050
L31690 35069
" />
<path d="M34604.3 35955.5 A972.369 972.369 0.0 1 0 33888.4 35952.6" />
<path d="M33895.7 24144.5 A972.369 972.369 0.0 1 0 34611.6 24147.4" />
<path d="M40400 34000
L38890 35019
" />
<path d="M40050 34750
L38890 35019
" />
<path d="M38890 33346
L40400 34000
" />
<path d="M38890 33149
L38890 33346
" />
<path d="M41150 33150
L38890 33149
" />
<path d="M41750 30700
L41150 30700
" />
<path d="M41150 30000
L41150 33150
" />
<path d="M41750 30000
L41750 33150
" />
<path d="M44009 36889
L42850 34750
" />
<path d="M44009 36889
L42450 36000
" />
<path d="M44009 33346
L42500 34000
" />
<path d="M41750 33150
L44009 33149
" />
<path d="M44009 33149
L44009 33346
" />
<path d="M42850 34750
L44009 35019
" />
<path d="M42500 34000
L44009 35019
" />
<path d="M38890 36889
L40050 34750
" />
<path d="M40450 36000
L40150 36889
" />
<path d="M38890 36889
L40450 36000
" />
<path d="M42450 36000
L42749 36889
" />
<path d="M40150 36889
L41095 35905
" />
<path d="M42749 36889
L41804 35905
" />
<path d="M41150 30000
L41150 26850
" />
<path d="M41150 26850
L38890 26850
" />
<path d="M38890 26850
L38890 26653
" />
<path d="M38890 26653
L40400 26000
" />
<path d="M40400 26000
L38890 24980
" />
<path d="M40050 25250
L38890 24980
" />
<path d="M38890 23110
L40050 25250
" />
<path d="M38890 23110
L40450 24000
" />
<path d="M40450 24000
L40150 23110
" />
<path d="M40150 23110
L41095 24094
" />
<path d="M41750 26850
L44009 26850
" />
<path d="M41750 30000
L41750 26850
" />
<path d="M44009 26653
L42500 26000
" />
<path d="M42500 26000
L44009 24980
" />
<path d="M44009 23110
L42450 24000
" />
<path d="M42450 24000
L42749 23110
" />
<path d="M44009 26850
L44009 26653
" />
<path d="M42850 25250
L44009 24980
" />
<path d="M44009 23110
L42850 25250
" />
<path d="M41150 29300
L41750 29300
" />
<path d="M42749 23110
L41804 24094
" />
<path d="M41095.7 24094.5 A972.369 972.369 0.0 1 0 41811.6 24097.4" />
<path d="M41804.3 35905.5 A972.369 972.369 0.0 1 0 41088.4 35902.6" />
<g >
</g>
<g >
</g>
<g >
</g>
<g >
</g>
<g >
</g>
<g >
</g>
<g >
</g>
<g >
</g>
<g >
</g>
<g >
</g>
<g >
</g>
<g >
</g>
<g >
</g>
<g >
</g>
<g >
</g>
<g >
</g>
<g >
</g>
<g >
</g>
<g >
</g>
<g >
</g>
<g >
</g>
<g >
</g>
<g >
</g>
<g >
</g>
<g >
</g>
<g >
</g>
<g >
</g>
<g >
</g>
<g >
</g>
<g >
</g>
<g >
</g>
</g>
<g style="fill:#848484; fill-opacity:0.0; 
stroke:#848484; stroke-width:39.3701; stroke-opacity:1; 
stroke-linecap:round; stroke-linejoin:round;">
</g>
<g style="fill:#848484; fill-opacity:0.0; 
stroke:#848484; stroke-width:59.0551; stroke-opacity:1; 
stroke-linecap:round; stroke-linejoin:round;">
<g transform="rotate(-90 29150 25000)">
<text x="29150" y="25196.9"
textLength="846.457" font-size="524.934" lengthAdjust="spacingAndGlyphs"
text-anchor="middle" opacity="0">U2</text>
</g>
<path d="M28934 25299
L29253 25299
L29290 25281
L29309 25262
L29328 25224
L29328 25149
L29309 25112
L29290 25093
L29253 25074
L28934 25074
" />
<path d="M28971 24906
L28953 24887
L28934 24850
L28934 24756
L28953 24718
L28971 24700
L29009 24681
L29046 24681
L29103 24700
L29328 24925
L29328 24681
" />
</g>
<g style="fill:#848484; fill-opacity:0.0; 
stroke:#848484; stroke-width:31.4961; stroke-opacity:1; 
stroke-linecap:round; stroke-linejoin:round;">
<g transform="rotate(-90 27100 25003.5)">
<text x="27100" y="25102"
textLength="461.098" font-size="262.467" lengthAdjust="spacingAndGlyphs"
text-anchor="middle" opacity="0">R3</text>
</g>
<path d="M27189 25036
L27095 25101
" />
<path d="M27189 25148
L26992 25148
L26992 25073
L27001 25055
L27010 25045
L27029 25036
L27057 25036
L27076 25045
L27085 25055
L27095 25073
L27095 25148
" />
<path d="M26992 24970
L26992 24848
L27067 24914
L27067 24886
L27076 24867
L27085 24858
L27104 24848
L27151 24848
L27170 24858
L27179 24867
L27189 24886
L27189 24942
L27179 24961
L27170 24970
" />
</g>
<g style="fill:#848484; fill-opacity:0.0; 
stroke:#848484; stroke-width:59.0551; stroke-opacity:1; 
stroke-linecap:round; stroke-linejoin:round;">
<g transform="rotate(-90 53098 23850)">
<text x="53098" y="24046.9"
textLength="1147.06" font-size="524.934" lengthAdjust="spacingAndGlyphs"
text-anchor="middle" opacity="0">RV2</text>
</g>
<path d="M53276 24084
L53088 24215
" />
<path d="M53276 24309
L52882 24309
L52882 24159
L52901 24121
L52919 24103
L52957 24084
L53013 24084
L53051 24103
L53069 24121
L53088 24159
L53088 24309
" />
<path d="M52882 23971
L53276 23840
L52882 23709
" />
<path d="M52919 23596
L52901 23578
L52882 23540
L52882 23446
L52901 23409
L52919 23390
L52957 23371
L52994 23371
L53051 23390
L53276 23615
L53276 23371
" />
</g>
<g style="fill:#848484; fill-opacity:0.0; 
stroke:#848484; stroke-width:47.2441; stroke-opacity:1; 
stroke-linecap:round; stroke-linejoin:round;">
<g transform="rotate(-90 51000 22500)">
<text x="51000" y="22657.5"
textLength="691.695" font-size="419.947" lengthAdjust="spacingAndGlyphs"
text-anchor="middle" opacity="0">R9</text>
</g>
<path d="M51142 22552
L50992 22657
" />
<path d="M51142 22732
L50827 22732
L50827 22612
L50842 22582
L50857 22567
L50887 22552
L50932 22552
L50962 22567
L50977 22582
L50992 22612
L50992 22732
" />
<path d="M51142 22402
L51142 22342
L51127 22312
L51112 22297
L51067 22267
L51007 22252
L50887 22252
L50857 22267
L50842 22282
L50827 22312
L50827 22372
L50842 22402
L50857 22417
L50887 22432
L50962 22432
L50992 22417
L51007 22402
L51022 22372
L51022 22312
L51007 22282
L50992 22267
L50962 22252
" />
<g transform="rotate(-90 51000 25700)">
<text x="51000" y="25857.5"
textLength="676.341" font-size="419.947" lengthAdjust="spacingAndGlyphs"
text-anchor="middle" opacity="0">R8</text>
</g>
<path d="M51142 25752
L50992 25857
" />
<path d="M51142 25932
L50827 25932
L50827 25812
L50842 25782
L50857 25767
L50887 25752
L50932 25752
L50962 25767
L50977 25782
L50992 25812
L50992 25932
" />
<path d="M50962 25572
L50947 25602
L50932 25617
L50902 25632
L50887 25632
L50857 25617
L50842 25602
L50827 25572
L50827 25512
L50842 25482
L50857 25467
L50887 25452
L50902 25452
L50932 25467
L50947 25482
L50962 25512
L50962 25572
L50977 25602
L50992 25617
L51022 25632
L51082 25632
L51112 25617
L51127 25602
L51142 25572
L51142 25512
L51127 25482
L51112 25467
L51082 25452
L51022 25452
L50992 25467
L50977 25482
L50962 25512
" />
</g>
<g style="fill:#848484; fill-opacity:0.0; 
stroke:#848484; stroke-width:31.4961; stroke-opacity:1; 
stroke-linecap:round; stroke-linejoin:round;">
<text x="29400" y="28298.4"
textLength="445.744" font-size="262.467" lengthAdjust="spacingAndGlyphs"
text-anchor="middle" opacity="0">C7</text>
<path d="M29367 28270
L29357 28279
L29329 28289
L29310 28289
L29282 28279
L29264 28260
L29254 28242
L29245 28204
L29245 28176
L29254 28139
L29264 28120
L29282 28101
L29310 28092
L29329 28092
L29357 28101
L29367 28110
" />
<path d="M29432 28092
L29564 28092
L29479 28289
" />
<text x="29300" y="29298.4"
textLength="397.15" font-size="262.467" lengthAdjust="spacingAndGlyphs"
text-anchor="middle" opacity="0">F1</text>
<path d="M29234 29185
L29168 29185
" />
<path d="M29168 29289
L29168 29092
L29262 29092
" />
<path d="M29440 29289
L29328 29289
" />
<path d="M29384 29289
L29384 29092
L29365 29120
L29346 29139
L29328 29148
" />
<g transform="rotate(-90 39763 29034)">
<text x="39763" y="29132.4"
textLength="425.272" font-size="262.467" lengthAdjust="spacingAndGlyphs"
text-anchor="middle" opacity="0">R6</text>
</g>
<path d="M39852 29066
L39758 29132
" />
<path d="M39852 29179
L39655 29179
L39655 29104
L39664 29085
L39673 29076
L39692 29066
L39720 29066
L39739 29076
L39748 29085
L39758 29104
L39758 29179
" />
<path d="M39655 28898
L39655 28935
L39664 28954
L39673 28963
L39702 28982
L39739 28991
L39814 28991
L39833 28982
L39842 28973
L39852 28954
L39852 28916
L39842 28898
L39833 28888
L39814 28879
L39767 28879
L39748 28888
L39739 28898
L39730 28916
L39730 28954
L39739 28973
L39748 28982
L39767 28991
" />
<g transform="rotate(-90 43216 31017)">
<text x="43216" y="31115.4"
textLength="425.272" font-size="262.467" lengthAdjust="spacingAndGlyphs"
text-anchor="middle" opacity="0">R7</text>
</g>
<path d="M43305 31049
L43211 31115
" />
<path d="M43305 31162
L43108 31162
L43108 31087
L43117 31068
L43126 31059
L43145 31049
L43173 31049
L43192 31059
L43201 31068
L43211 31087
L43211 31162
" />
<path d="M43108 30984
L43108 30852
L43305 30937
" />
</g>
<g style="fill:#848484; fill-opacity:0.0; 
stroke:#848484; stroke-width:59.0551; stroke-opacity:1; 
stroke-linecap:round; stroke-linejoin:round;">
<g transform="rotate(-90 55800 22400)">
<text x="55800" y="22596.9"
textLength="809.599" font-size="524.934" lengthAdjust="spacingAndGlyphs"
text-anchor="middle" opacity="0">C2</text>
</g>
<path d="M55940 22465
L55959 22484
L55978 22540
L55978 22578
L55959 22634
L55921 22671
L55884 22690
L55809 22709
L55753 22709
L55678 22690
L55640 22671
L55603 22634
L55584 22578
L55584 22540
L55603 22484
L55621 22465
" />
<path d="M55621 22315
L55603 22296
L55584 22259
L55584 22165
L55603 22128
L55621 22109
L55659 22090
L55696 22090
L55753 22109
L55978 22334
L55978 22090
" />
<g transform="rotate(-90 48200 33600)">
<text x="48200" y="33796.9"
textLength="845.426" font-size="524.934" lengthAdjust="spacingAndGlyphs"
text-anchor="middle" opacity="0">C5</text>
</g>
<path d="M48340 33665
L48359 33684
L48378 33740
L48378 33778
L48359 33834
L48321 33871
L48284 33890
L48209 33909
L48153 33909
L48078 33890
L48040 33871
L48003 33834
L47984 33778
L47984 33740
L48003 33684
L48021 33665
" />
<path d="M47984 33309
L47984 33496
L48171 33515
L48153 33496
L48134 33459
L48134 33365
L48153 33328
L48171 33309
L48209 33290
L48303 33290
L48340 33309
L48359 33328
L48378 33365
L48378 33459
L48359 33496
L48340 33515
" />
</g>
<g style="fill:#848484; fill-opacity:0.0; 
stroke:#848484; stroke-width:31.4961; stroke-opacity:1; 
stroke-linecap:round; stroke-linejoin:round;">
<g transform="rotate(-90 39500 21500)">
<text x="39500" y="21598.4"
textLength="461.098" font-size="262.467" lengthAdjust="spacingAndGlyphs"
text-anchor="middle" opacity="0">R4</text>
</g>
<path d="M39589 21532
L39495 21598
" />
<path d="M39589 21645
L39392 21645
L39392 21570
L39401 21551
L39410 21542
L39429 21532
L39457 21532
L39476 21542
L39485 21551
L39495 21570
L39495 21645
" />
<path d="M39457 21364
L39589 21364
" />
<path d="M39382 21410
L39523 21457
L39523 21335
" />
</g>
<g style="fill:#848484; fill-opacity:0.0; 
stroke:#848484; stroke-width:59.0551; stroke-opacity:1; 
stroke-linecap:round; stroke-linejoin:round;">
<g transform="rotate(-90 55800 26300)">
<text x="55800" y="26496.9"
textLength="809.599" font-size="524.934" lengthAdjust="spacingAndGlyphs"
text-anchor="middle" opacity="0">C1</text>
</g>
<path d="M55940 26365
L55959 26384
L55978 26440
L55978 26478
L55959 26534
L55921 26571
L55884 26590
L55809 26609
L55753 26609
L55678 26590
L55640 26571
L55603 26534
L55584 26478
L55584 26440
L55603 26384
L55621 26365
" />
<path d="M55978 25990
L55978 26215
" />
<path d="M55978 26103
L55584 26103
L55640 26140
L55678 26178
L55696 26215
" />
</g>
<g style="fill:#848484; fill-opacity:0.0; 
stroke:#848484; stroke-width:31.4961; stroke-opacity:1; 
stroke-linecap:round; stroke-linejoin:round;">
<g transform="rotate(-90 38000 21496.5)">
<text x="38000" y="21594.9"
textLength="461.098" font-size="262.467" lengthAdjust="spacingAndGlyphs"
text-anchor="middle" opacity="0">C4</text>
</g>
<path d="M38070 21529
L38079 21538
L38089 21566
L38089 21585
L38079 21613
L38060 21632
L38042 21641
L38004 21651
L37976 21651
L37939 21641
L37920 21632
L37901 21613
L37892 21585
L37892 21566
L37901 21538
L37910 21529
" />
<path d="M37957 21360
L38089 21360
" />
<path d="M37882 21407
L38023 21454
L38023 21332
" />
</g>
<g style="fill:#848484; fill-opacity:0.0; 
stroke:#848484; stroke-width:59.0551; stroke-opacity:1; 
stroke-linecap:round; stroke-linejoin:round;">
<g transform="rotate(-90 48200 28600)">
<text x="48200" y="28796.9"
textLength="809.599" font-size="524.934" lengthAdjust="spacingAndGlyphs"
text-anchor="middle" opacity="0">C6</text>
</g>
<path d="M48340 28665
L48359 28684
L48378 28740
L48378 28778
L48359 28834
L48321 28871
L48284 28890
L48209 28909
L48153 28909
L48078 28890
L48040 28871
L48003 28834
L47984 28778
L47984 28740
L48003 28684
L48021 28665
" />
<path d="M47984 28328
L47984 28403
L48003 28440
L48021 28459
L48078 28496
L48153 28515
L48303 28515
L48340 28496
L48359 28478
L48378 28440
L48378 28365
L48359 28328
L48340 28309
L48303 28290
L48209 28290
L48171 28309
L48153 28328
L48134 28365
L48134 28440
L48153 28478
L48171 28496
L48209 28515
" />
<g transform="rotate(-90 33300 30100)">
<text x="33300" y="30296.9"
textLength="864.173" font-size="524.934" lengthAdjust="spacingAndGlyphs"
text-anchor="middle" opacity="0">Q2</text>
</g>
<path d="M33515 30137
L33496 30174
L33459 30212
L33403 30268
L33384 30306
L33384 30343
" />
<path d="M33478 30324
L33459 30362
L33421 30399
L33346 30418
L33215 30418
L33140 30399
L33103 30362
L33084 30324
L33084 30249
L33103 30212
L33140 30174
L33215 30156
L33346 30156
L33421 30174
L33459 30212
L33478 30249
L33478 30324
" />
<path d="M33121 30006
L33103 29987
L33084 29950
L33084 29856
L33103 29818
L33121 29800
L33159 29781
L33196 29781
L33253 29800
L33478 30025
L33478 29781
" />
<g transform="rotate(-90 34900 30100)">
<text x="34900" y="30296.9"
textLength="864.173" font-size="524.934" lengthAdjust="spacingAndGlyphs"
text-anchor="middle" opacity="0">Q3</text>
</g>
<path d="M35115 30137
L35096 30174
L35059 30212
L35003 30268
L34984 30306
L34984 30343
" />
<path d="M35078 30324
L35059 30362
L35021 30399
L34946 30418
L34815 30418
L34740 30399
L34703 30362
L34684 30324
L34684 30249
L34703 30212
L34740 30174
L34815 30156
L34946 30156
L35021 30174
L35059 30212
L35078 30249
L35078 30324
" />
<path d="M34684 30025
L34684 29781
L34834 29912
L34834 29856
L34853 29818
L34871 29800
L34909 29781
L35003 29781
L35040 29800
L35059 29818
L35078 29856
L35078 29968
L35059 30006
L35040 30025
" />
</g>
<g style="fill:#848484; fill-opacity:0.0; 
stroke:#848484; stroke-width:31.4961; stroke-opacity:1; 
stroke-linecap:round; stroke-linejoin:round;">
<g transform="rotate(-90 50000 25900)">
<text x="50000" y="25998.4"
textLength="461.098" font-size="262.467" lengthAdjust="spacingAndGlyphs"
text-anchor="middle" opacity="0">R1</text>
</g>
<path d="M50089 25932
L49995 25998
" />
<path d="M50089 26045
L49892 26045
L49892 25970
L49901 25951
L49910 25942
L49929 25932
L49957 25932
L49976 25942
L49985 25951
L49995 25970
L49995 26045
" />
<path d="M50089 25745
L50089 25857
" />
<path d="M50089 25801
L49892 25801
L49920 25820
L49939 25839
L49948 25857
" />
<g transform="rotate(-90 50000 22300)">
<text x="50000" y="22398.4"
textLength="425.272" font-size="262.467" lengthAdjust="spacingAndGlyphs"
text-anchor="middle" opacity="0">R2</text>
</g>
<path d="M50089 22332
L49995 22398
" />
<path d="M50089 22445
L49892 22445
L49892 22370
L49901 22351
L49910 22342
L49929 22332
L49957 22332
L49976 22342
L49985 22351
L49995 22370
L49995 22445
" />
<path d="M49910 22257
L49901 22248
L49892 22229
L49892 22182
L49901 22164
L49910 22154
L49929 22145
L49948 22145
L49976 22154
L50089 22267
L50089 22145
" />
<g transform="rotate(-90 34700 21503.5)">
<text x="34700" y="21602"
textLength="425.272" font-size="262.467" lengthAdjust="spacingAndGlyphs"
text-anchor="middle" opacity="0">R5</text>
</g>
<path d="M34789 21536
L34695 21601
" />
<path d="M34789 21648
L34592 21648
L34592 21573
L34601 21555
L34610 21545
L34629 21536
L34657 21536
L34676 21545
L34685 21555
L34695 21573
L34695 21648
" />
<path d="M34592 21358
L34592 21451
L34685 21461
L34676 21451
L34667 21433
L34667 21386
L34676 21367
L34685 21358
L34704 21348
L34751 21348
L34770 21358
L34779 21367
L34789 21386
L34789 21433
L34779 21451
L34770 21461
" />
</g>
<g style="fill:#848484; fill-opacity:0.0; 
stroke:#848484; stroke-width:59.0551; stroke-opacity:1; 
stroke-linecap:round; stroke-linejoin:round;">
<text x="47284.5" y="24537.1"
textLength="812.598" font-size="514.435" lengthAdjust="spacingAndGlyphs"
text-anchor="middle" opacity="0">U1</text>
<path d="M46990 24132
L46990 24445
L47008 24481
L47027 24500
L47063 24518
L47137 24518
L47174 24500
L47192 24481
L47210 24445
L47210 24132
" />
<path d="M47596 24518
L47376 24518
" />
<path d="M47486 24518
L47486 24132
L47449 24187
L47413 24224
L47376 24243
" />
<g transform="rotate(-90 41600 21263.8)">
<text x="41600" y="21381.9"
textLength="740.439" font-size="314.961" lengthAdjust="spacingAndGlyphs"
text-anchor="middle" opacity="0">RV1</text>
</g>
<path d="M41706 21404
L41594 21483
" />
<path d="M41706 21539
L41470 21539
L41470 21449
L41481 21426
L41493 21415
L41515 21404
L41549 21404
L41571 21415
L41583 21426
L41594 21449
L41594 21539
" />
<path d="M41470 21336
L41706 21258
L41470 21179
" />
<path d="M41706 20976
L41706 21111
" />
<path d="M41706 21044
L41470 21044
L41504 21066
L41526 21089
L41538 21111
" />
</g>
<g style="fill:#848484; fill-opacity:0.0; 
stroke:#848484; stroke-width:11.811; stroke-opacity:1; 
stroke-linecap:round; stroke-linejoin:round;">
<text x="36600" y="21539.4"
textLength="234.252" font-size="104.987" lengthAdjust="spacingAndGlyphs"
text-anchor="middle" opacity="0">Q1</text>
<path d="M36592 21543
L36585 21539
L36577 21531
L36566 21520
L36558 21516
L36551 21516
" />
<path d="M36555 21535
L36547 21531
L36540 21524
L36536 21509
L36536 21483
L36540 21468
L36547 21460
L36555 21456
L36570 21456
L36577 21460
L36585 21468
L36588 21483
L36588 21509
L36585 21524
L36577 21531
L36570 21535
L36555 21535
" />
<path d="M36663 21535
L36618 21535
" />
<path d="M36641 21535
L36641 21456
L36633 21468
L36626 21475
L36618 21479
" />
</g>
<g style="fill:#848484; fill-opacity:0.0; 
stroke:#848484; stroke-width:59.0551; stroke-opacity:1; 
stroke-linecap:round; stroke-linejoin:round;">
<text x="25368.1" y="22246.9"
textLength="802.756" font-size="524.934" lengthAdjust="spacingAndGlyphs"
text-anchor="middle" opacity="0">H1</text>
<path d="M25068 22228
L25068 21834
" />
<path d="M25068 22021
L25293 22021
" />
<path d="M25293 22228
L25293 21834
" />
<path d="M25686 22228
L25461 22228
" />
<path d="M25574 22228
L25574 21834
L25536 21890
L25499 21928
L25461 21946
" />
<text x="25368.1" y="35246.9"
textLength="864.173" font-size="524.934" lengthAdjust="spacingAndGlyphs"
text-anchor="middle" opacity="0">H2</text>
<path d="M25068 35228
L25068 34834
" />
<path d="M25068 35021
L25293 35021
" />
<path d="M25293 35228
L25293 34834
" />
<path d="M25461 34871
L25480 34853
L25518 34834
L25611 34834
L25649 34853
L25668 34871
L25686 34909
L25686 34946
L25668 35003
L25443 35228
L25686 35228
" />
<text x="55918.1" y="35396.9"
textLength="864.173" font-size="524.934" lengthAdjust="spacingAndGlyphs"
text-anchor="middle" opacity="0">H3</text>
<path d="M55618 35378
L55618 34984
" />
<path d="M55618 35171
L55843 35171
" />
<path d="M55843 35378
L55843 34984
" />
<path d="M55993 34984
L56236 34984
L56105 35134
L56161 35134
L56199 35153
L56218 35171
L56236 35209
L56236 35303
L56218 35340
L56199 35359
L56161 35378
L56049 35378
L56011 35359
L55993 35340
" />
<g transform="rotate(-90 37822.8 29794.1)">
<text x="37822.8" y="29990.9"
textLength="2588.96" font-size="524.934" lengthAdjust="spacingAndGlyphs"
text-anchor="middle" opacity="0">Heatsink</text>
</g>
<path d="M38000 30956
L37607 30956
" />
<path d="M37794 30956
L37794 30731
" />
<path d="M38000 30731
L37607 30731
" />
<path d="M37982 30394
L38000 30431
L38000 30506
L37982 30544
L37944 30562
L37794 30562
L37757 30544
L37738 30506
L37738 30431
L37757 30394
L37794 30375
L37832 30375
L37869 30562
" />
<path d="M38000 30037
L37794 30037
L37757 30056
L37738 30094
L37738 30169
L37757 30206
" />
<path d="M37982 30037
L38000 30075
L38000 30169
L37982 30206
L37944 30225
L37907 30225
L37869 30206
L37850 30169
L37850 30075
L37832 30037
" />
<path d="M37738 29906
L37738 29756
" />
<path d="M37607 29850
L37944 29850
L37982 29831
L38000 29794
L38000 29756
" />
<path d="M37982 29644
L38000 29606
L38000 29531
L37982 29494
L37944 29475
L37925 29475
L37888 29494
L37869 29531
L37869 29587
L37850 29625
L37813 29644
L37794 29644
L37757 29625
L37738 29587
L37738 29531
L37757 29494
" />
<path d="M38000 29306
L37738 29306
" />
<path d="M37607 29306
L37625 29325
L37644 29306
L37625 29287
L37607 29306
L37644 29306
" />
<path d="M37738 29119
L38000 29119
" />
<path d="M37775 29119
L37757 29100
L37738 29062
L37738 29006
L37757 28969
L37794 28950
L38000 28950
" />
<path d="M38000 28762
L37607 28762
" />
<path d="M37850 28725
L38000 28612
" />
<path d="M37738 28612
L37888 28762
" />
<g transform="rotate(-90 34250 30050)">
<text x="34250" y="30246.9"
textLength="1239.13" font-size="524.934" lengthAdjust="spacingAndGlyphs"
text-anchor="middle" opacity="0">HS1</text>
</g>
<path d="M34428 30537
L34034 30537
" />
<path d="M34221 30537
L34221 30312
" />
<path d="M34428 30312
L34034 30312
" />
<path d="M34409 30143
L34428 30087
L34428 29993
L34409 29956
L34390 29937
L34353 29918
L34315 29918
L34278 29937
L34259 29956
L34240 29993
L34221 30068
L34203 30106
L34184 30124
L34146 30143
L34109 30143
L34071 30124
L34053 30106
L34034 30068
L34034 29975
L34053 29918
" />
<path d="M34428 29543
L34428 29768
" />
<path d="M34428 29656
L34034 29656
L34090 29693
L34128 29731
L34146 29768
" />
<g transform="rotate(-90 45022.8 29744.1)">
<text x="45022.8" y="29940.9"
textLength="2588.96" font-size="524.934" lengthAdjust="spacingAndGlyphs"
text-anchor="middle" opacity="0">Heatsink</text>
</g>
<path d="M45200 30906
L44807 30906
" />
<path d="M44994 30906
L44994 30681
" />
<path d="M45200 30681
L44807 30681
" />
<path d="M45182 30344
L45200 30381
L45200 30456
L45182 30494
L45144 30512
L44994 30512
L44957 30494
L44938 30456
L44938 30381
L44957 30344
L44994 30325
L45032 30325
L45069 30512
" />
<path d="M45200 29987
L44994 29987
L44957 30006
L44938 30044
L44938 30119
L44957 30156
" />
<path d="M45182 29987
L45200 30025
L45200 30119
L45182 30156
L45144 30175
L45107 30175
L45069 30156
L45050 30119
L45050 30025
L45032 29987
" />
<path d="M44938 29856
L44938 29706
" />
<path d="M44807 29800
L45144 29800
L45182 29781
L45200 29744
L45200 29706
" />
<path d="M45182 29594
L45200 29556
L45200 29481
L45182 29444
L45144 29425
L45125 29425
L45088 29444
L45069 29481
L45069 29537
L45050 29575
L45013 29594
L44994 29594
L44957 29575
L44938 29537
L44938 29481
L44957 29444
" />
<path d="M45200 29256
L44938 29256
" />
<path d="M44807 29256
L44825 29275
L44844 29256
L44825 29237
L44807 29256
L44844 29256
" />
<path d="M44938 29069
L45200 29069
" />
<path d="M44975 29069
L44957 29050
L44938 29012
L44938 28956
L44957 28919
L44994 28900
L45200 28900
" />
<path d="M45200 28712
L44807 28712
" />
<path d="M45050 28675
L45200 28562
" />
<path d="M44938 28562
L45088 28712
" />
<g transform="rotate(-90 41450 30000)">
<text x="41450" y="30196.9"
textLength="1239.13" font-size="524.934" lengthAdjust="spacingAndGlyphs"
text-anchor="middle" opacity="0">HS2</text>
</g>
<path d="M41628 30487
L41234 30487
" />
<path d="M41421 30487
L41421 30262
" />
<path d="M41628 30262
L41234 30262
" />
<path d="M41609 30093
L41628 30037
L41628 29943
L41609 29906
L41590 29887
L41553 29868
L41515 29868
L41478 29887
L41459 29906
L41440 29943
L41421 30018
L41403 30056
L41384 30074
L41346 30093
L41309 30093
L41271 30074
L41253 30056
L41234 30018
L41234 29925
L41253 29868
" />
<path d="M41271 29718
L41253 29700
L41234 29662
L41234 29568
L41253 29531
L41271 29512
L41309 29493
L41346 29493
L41403 29512
L41628 29737
L41628 29493
" />
<g >
</g>
</g>
<g style="fill:#000000; fill-opacity:0.0; 
stroke:#000000; stroke-width:59.0551; stroke-opacity:1; 
stroke-linecap:round; stroke-linejoin:round;">
</g>
<g style="fill:#C2C200; fill-opacity:0.0; 
stroke:#C2C200; stroke-width:59.0551; stroke-opacity:1; 
stroke-linecap:round; stroke-linejoin:round;">
</g>
<g style="fill:#C2C200; fill-opacity:0.0; 
stroke:#C2C200; stroke-width:39.3701; stroke-opacity:1; 
stroke-linecap:round; stroke-linejoin:round;">
<path d="M58060 19700
L58065 37574
" />
<path d="M23000 37500
L58065 37574
" />
<path d="M23000 19711
L23000 37500
" />
<path d="M23000 19711
L58060 19700
" />
<g >
</g>
<g >
</g>
<g >
</g>
<g >
</g>
<g >
</g>
<g >
</g>
<g >
</g>
<g >
</g>
<g >
</g>
<g >
</g>
<g >
</g>
<g >
</g>
<g >
</g>
<g >
</g>
<g >
</g>
<g >
</g>
<g >
</g>
<g >
</g>
<g >
</g>
<g >
</g>
<g >
</g>
<g >
</g>
<g >
</g>
<g >
</g>
<g >
</g>
<g >
</g>
<g >
</g>
<g >
</g>
<g >
</g>
<g >
</g>
<g >
</g>
<g >
</g>
</g> 
</svg>
